<?xml version="1.0" standalone="no"?>
<!DOCTYPE svg PUBLIC "-//W3C//DTD SVG 20010904//EN"
 "http://www.w3.org/TR/2001/REC-SVG-20010904/DTD/svg10.dtd">
<svg version="1.0" xmlns="http://www.w3.org/2000/svg"
 width="512.000000pt" height="512.000000pt" viewBox="0 0 512.000000 512.000000"
 preserveAspectRatio="xMidYMid meet">

<g transform="translate(0.000000,512.000000) scale(0.100000,-0.100000)"
fill="currentColor" stroke="none">
<path d="M1490 5113 c-27 -11 -1117 -892 -1124 -908 -3 -9 -6 -63 -6 -120 l0
-104 -54 -38 c-95 -67 -86 111 -86 -1656 0 -1476 1 -1566 17 -1585 22 -25
1237 -692 1273 -698 14 -2 760 182 1685 415 1513 383 1662 423 1683 446 l22
26 0 1379 0 1379 -22 25 c-19 21 -114 56 -498 182 -435 142 -478 155 -510 145
-19 -6 -161 -62 -315 -125 l-280 -115 -5 218 c-4 162 -8 222 -18 234 -8 9 -52
29 -98 44 l-84 27 0 103 c0 101 -13 161 -39 177 -24 15 -1496 556 -1510 555
-9 0 -23 -3 -31 -6z m490 -838 c146 -42 277 -81 293 -87 l27 -10 0 -315 c0
-284 -2 -314 -17 -320 -15 -6 -497 86 -570 108 l-33 11 0 337 c0 186 3 341 7
344 11 12 20 9 293 -68z m-635 -334 l0 -334 -180 -79 c-99 -43 -189 -77 -200
-76 -19 3 -20 12 -22 293 -2 160 0 295 5 301 13 20 367 234 382 232 13 -3 15
-48 15 -337z m1475 92 c91 -25 171 -51 178 -56 9 -7 12 -78 12 -292 0 -243 -2
-284 -15 -289 -18 -7 -465 82 -482 96 -17 14 -19 598 -2 615 8 8 29 6 78 -8
36 -11 140 -40 231 -66z m-2115 -175 c3 -13 4 -138 3 -278 l-3 -255 -132 -59
c-111 -50 -135 -57 -148 -46 -13 11 -15 48 -15 251 0 216 2 241 18 254 38 32
238 153 254 154 10 1 20 -8 23 -21z m3454 -209 c58 -16 127 -37 154 -45 l47
-16 0 -229 c0 -207 -2 -230 -17 -236 -9 -4 -82 6 -161 22 -106 21 -146 33
-153 46 -13 24 -12 445 1 470 6 10 13 19 16 19 3 0 54 -14 113 -31z m456 -132
l110 -32 3 -218 c2 -179 0 -218 -12 -223 -13 -5 -249 41 -267 52 -11 6 -12
447 -2 458 9 8 30 4 168 -37z m-2609 -182 c152 -25 280 -48 285 -51 5 -3 9
-144 9 -320 0 -272 -2 -315 -15 -320 -23 -9 -578 37 -592 48 -10 8 -13 89 -13
343 0 182 3 335 7 338 11 11 31 9 319 -38z m-656 -330 l0 -335 -22 -5 c-13 -3
-99 -19 -193 -35 -121 -20 -173 -26 -182 -18 -10 8 -13 78 -13 299 0 273 1
289 19 301 32 20 334 126 364 127 l27 1 0 -335z m1405 209 c127 -20 236 -41
243 -47 18 -14 18 -560 -1 -575 -9 -8 -78 -6 -245 8 -128 10 -236 22 -242 25
-11 7 -14 607 -3 618 9 9 -8 11 248 -29z m-2057 -106 c18 -18 17 -531 0 -546
-23 -17 -260 -53 -275 -40 -10 8 -13 64 -13 247 0 130 4 241 8 248 6 9 234 98
263 102 3 1 10 -4 17 -11z m3502 -129 c74 -12 141 -26 148 -32 9 -7 12 -66 12
-232 0 -166 -3 -225 -12 -232 -20 -15 -308 11 -319 28 -10 16 -12 448 -3 473
8 21 14 20 174 -5z m395 -64 c50 -9 100 -18 113 -20 l22 -5 0 -222 0 -221
-130 7 c-72 4 -137 9 -145 12 -13 5 -15 42 -15 235 l0 229 33 0 c17 0 73 -7
122 -15z m-2307 -528 c9 -6 12 -82 12 -322 0 -273 -2 -314 -15 -319 -24 -9
-569 -31 -588 -23 -16 6 -17 35 -17 341 0 279 2 336 14 343 18 10 576 -9 594
-20z m-954 17 c14 -5 16 -44 16 -335 0 -296 -2 -330 -16 -336 -23 -9 -366 26
-381 39 -19 15 -19 583 0 595 6 4 91 15 187 24 96 9 176 17 177 18 1 0 8 -2
17 -5z m1664 -46 c9 -8 12 -78 12 -288 0 -210 -3 -280 -12 -288 -14 -10 -460
-34 -484 -25 -12 4 -14 54 -14 307 0 167 3 306 8 310 10 12 475 -4 490 -16z
m560 -12 c235 -10 348 -18 357 -26 21 -18 22 -1631 2 -1652 -19 -18 -718 -194
-740 -185 -16 6 -17 62 -17 930 0 956 0 947 40 947 8 0 169 -7 358 -14z
m-2854 -12 c9 -24 7 -517 -3 -533 -7 -11 -30 -11 -137 -1 -71 7 -135 17 -141
22 -15 12 -19 474 -4 497 9 13 109 27 222 30 44 1 58 -3 63 -15z m3644 -26 c9
-8 12 -67 12 -233 0 -166 -3 -225 -12 -232 -7 -6 -79 -13 -160 -17 -139 -6
-147 -6 -157 13 -17 31 -15 456 2 473 11 10 47 13 158 10 79 -2 150 -9 157
-14z m375 -17 c4 -4 6 -104 5 -222 l-3 -214 -127 -9 c-69 -5 -133 -6 -142 -3
-14 6 -16 35 -16 230 0 123 3 227 8 232 9 9 264 -3 275 -14z m-9 -587 c14 -5
16 -35 16 -225 0 -219 0 -219 -22 -224 -64 -14 -246 -41 -256 -37 -9 3 -12 64
-12 233 0 126 1 230 3 230 1 1 58 7 127 14 69 7 126 13 127 14 1 0 8 -2 17 -5z
m-356 -271 l2 -233 -22 -5 c-13 -3 -83 -16 -157 -28 -114 -20 -135 -22 -147
-10 -20 21 -21 465 0 482 16 13 164 29 256 27 l65 -1 3 -232z m-3781 176 c59
-11 114 -25 121 -31 9 -8 12 -122 10 -532 -3 -490 -4 -521 -21 -524 -18 -4
-257 121 -269 142 -10 14 -10 950 -1 959 11 11 46 8 160 -14z m2421 -61 c18
-18 17 -561 0 -576 -17 -13 -462 -86 -482 -79 -14 6 -16 42 -16 311 l0 306 23
5 c17 4 325 34 448 44 8 0 20 -4 27 -11z m-1818 -51 l165 -32 3 -647 c2 -549
0 -647 -12 -651 -15 -6 -375 186 -388 206 -9 15 -11 1141 -1 1150 12 12 66 6
233 -26z m1120 -326 c0 -235 -3 -311 -12 -319 -17 -13 -574 -106 -593 -98 -13
5 -15 56 -15 339 0 256 3 337 13 345 17 14 567 61 590 50 16 -8 17 -33 17
-317z"/>
<path d="M3282 2238 c-19 -19 -17 -1441 1 -1457 18 -14 495 -122 527 -119 l25
3 2 765 c2 421 -1 771 -5 778 -6 9 -82 17 -263 27 -140 8 -259 15 -264 15 -6
0 -16 -5 -23 -12z"/>
</g>
</svg>
