<svg fill="currentColor" version="1.2" xmlns="http://www.w3.org/2000/svg" viewBox="0 0 537 384" width="537" height="384">
	<title>air-conditioning-svg</title>
	<g id="Layer">
		<path id="Layer" fill-rule="evenodd" fill="currentColor" d="m270.6 0.3l236.5 0.2 6.1 2.4c7.9 3.3 16.6 11.7 20.4 19.9l2.9 6.1v287.4l-2.9 6c-3.6 8-10.9 15.5-18.3 19.3l-6.1 3.1h-481.4l-6.1-3.1c-7.4-3.8-14.7-11.3-18.3-19.3l-2.9-6v-287.4l2.4-5.2c5.1-11 14.4-19.1 25.4-22 5.1-1.4 36.7-1.6 242.3-1.4zm-205.6 63.7c-24.1 23.9-38.4 51.6-44.1 86-2 11.6-1.7 36.2 0.5 48.8 11.3 63.7 59.8 112.6 123.9 125.1 13.4 2.6 40.4 2.5 54.5-0.1 63.7-11.9 112.3-60.9 124-124.7 3.6-20.4 2.1-48.4-4.1-69.5-16.6-57-67.8-101.3-125.1-108.5-50.2-6.3-95 8.5-129.6 42.9zm437.5-34.6h-46.4l-2.5 2.6c-3.8 3.7-3.5 9.2 0.4 13.2l3.1 3.1h44.2l3.1-3c4.5-4.1 4.7-9.3 0.6-13.3zm-41.2 38.1c-3.4-0.5-4.3-0.1-7.1 2.6-6.3 6.4-2.8 16 5.9 16 4.4-0.1 6.6-1.4 8.5-5 1.9-3.4 1.5-7.2-1-10.3-1.5-1.5-4-2.9-6.3-3.3zm28.5 5.9c-3.8 9.2 8.2 17.2 15.2 10 4.6-4.5 3.4-12.5-2.3-15.1-5-2.3-10.7-0.1-12.9 5.1zm-53.5 32.6c-44.7 0.1-66.2 0.4-67.4 1.1-5.7 3.3-5.5 13.3 0.4 16.2 4.5 2.4 129.6 2.3 134.2 0 5.5-2.8 5.9-12.1 0.7-15.7-1.9-1.4-11.5-1.6-67.9-1.6zm66.1 38.3l-64.8-0.2c-35.6-0.1-65.7 0.2-66.8 0.6-6.4 2.7-8.1 10.9-3.3 15.7l2.8 2.8h132.1l2.7-2.8c3.8-3.7 3.8-9.6 0-13.4zm-133.5 39.5c-1.1 0.6-2.6 2.7-3.4 4.7-1.3 3-1.3 4.1 0 7.1 0.8 2 2.4 4.1 3.5 4.7 3.1 1.6 131.6 1.6 134.7 0 1.1-0.6 2.7-2.7 3.6-4.7 1.2-3 1.2-4.1 0-7.1-0.9-2-2.5-4.1-3.6-4.7-3.1-1.6-132.2-1.6-134.8 0zm133.5 37.1l-64.3-0.1c-35.2-0.1-65.2 0-66.4 0.3-6.7 1.4-9.2 10.9-4.1 16l2.7 2.7h132.1l2.8-2.7c3.7-3.8 3.7-9.7 0-13.5zm-66.3 38.3c-70.6 0.1-68.7-0.1-71 6.4-1.4 3.9 0.6 9.6 3.8 11.4 3.1 1.5 131.7 1.5 134.7 0 5.8-3.1 5.6-13.2-0.3-16.2-2.5-1.4-12.7-1.6-67.2-1.6zm66.4 38.8h-132.2l-2.7 2.5c-4.2 3.5-4 9.6 0.4 13.5l3.3 2.9h130l3.1-2.9c4.5-4.1 4.7-9.3 0.6-13.3z"/>
		<path id="Layer" fill-rule="evenodd" fill="currentColor" d="m194.7 40.4c28.5 4.9 52 17.3 72.9 38.2 15.9 16.1 26.4 33 32.7 53.2 10.5 33.1 7.6 70.6-7.4 100.6-28.7 57-92.7 86.2-153.8 70.3-51-13.2-89.7-55.3-98.7-107.2-2-11.7-2-34 0-45.8 7.4-42.5 35.1-78.9 74.4-97.9 11.7-5.6 22.3-9 35.7-11.4 10.4-1.9 33-1.9 44.2 0zm-43.7 22.8c-13.4 6.3-21.5 18.2-21.5 31.8 0.1 8.6 2.3 13.8 9.7 21.9 4 4.4 8.7 11.8 8.7 13.6 0 0.2-3.2-1.3-7-3.5-13.8-7.9-31.2-11.8-42.8-9.5-26.8 5.3-46.2 38.4-38.8 66.4 4.8 18.6 17.1 30.6 33 31.9 8.3 0.9 15.1-1.7 22.4-8.1 5.8-5 15-11.1 15.8-10.3 0.2 0.2-1.4 3.3-3.5 6.8-4.6 7.6-8.1 17.7-9.7 28.3-2.3 14.6 2.2 27.9 12.9 38.3 21.9 21.3 58 22.4 76.3 2.5 6.6-7.2 9-13.1 9-22.5 0-9.2-1.6-13-9.4-22-6.3-7.4-11.6-17.5-7-13.5 7 6.3 28.7 13.4 40.8 13.4 18.5 0 34.5-12.1 43.3-33.1 4.4-10.6 5.5-24.7 2.6-34.7-5.6-19.3-18.7-31.1-34.6-31.2-8.8 0-13 1.7-21.7 8.9-4.1 3.5-9.2 7.2-11.3 8.3l-3.8 1.9 5.5-11.1c9.2-18.6 10.8-33.6 5.5-48.1-3.5-9.2-14.6-20.1-26.3-25.5-4.8-2.2-11.3-4.6-14.3-5.2-11.2-2.3-22.8-0.9-33.8 4.3z"/>
		<path id="Layer" fill="currentColor" d="m167.1 77.6c-8.7 1.8-14.2 5.6-17.6 12.5-2.2 4.5-1.5 7.8 3.3 13 5.2 5.8 11.7 16.1 13.6 21.9l1.8 4.9 8.1 0.4c6.4 0.4 9.7 1.2 14.8 3.8 3.6 1.8 6.9 2.9 7.3 2.7 2.3-1.5 8.3-15.7 9.8-23.3 1.6-7.7 1.6-9 0.1-14.1-2.7-9.5-13-17.7-26.3-21.2-6.8-1.7-8.3-1.8-14.9-0.6z"/>
		<path id="Layer" fill="currentColor" d="m96 138.1c-8.8 4.5-17.5 18.1-19 29.5-1.8 14.1 7.4 29.6 17.7 29.6 1.6 0 5.4-2.3 9.6-5.6 7.5-6.3 15.8-11.2 21.7-13.1 3.7-1.2 3.7-1.4 3.8-6.9 0-6.9 1.8-13.4 5.1-19.5 3-5.4 2.9-5.6-6.7-10.1-11.8-5.6-25.8-7.3-32.2-3.9z"/>
		<path id="Layer" fill="currentColor" d="m161.4 151.9c-7.9 4.1-11.7 10.5-12.3 20.1-0.4 8.5 2.4 14.5 9.1 19.7 15.4 11.7 37.9 0.8 37.9-18.6 0-18.5-18.4-29.7-34.7-21.2z"/>
		<path id="Layer" fill="currentColor" d="m241.7 153.5c-7.4 6.5-11.3 9-18.9 12.3l-6.8 2.8-0.4 7.6c-0.3 6.3-1 8.9-4.1 14.9l-3.6 7.2 4.3 2.6c12.4 7.2 25.3 10.3 33.5 7.9 7.3-2 13.7-8.1 18.3-17.6 3.6-7.3 4-8.9 4-16.4 0-7.4-0.4-9.3-3.2-14.8q-5.5-11-14.1-11c-3.2 0-5.1 0.9-9 4.5z"/>
		<path id="Layer" fill="currentColor" d="m143.8 213.5c-7.5 12.3-9.9 28.3-5.6 36.9 2.8 5.4 9.4 10.8 17.7 14.7 5.2 2.5 7.5 3 15.2 3 7.8 0 9.6-0.5 15.1-3.2 5-2.5 6.6-4.1 8.7-8.1 3.2-6.3 2.7-8.5-4.1-16.2-3-3.4-7.4-10.2-9.7-15.2l-4.4-9.2-4.2-0.1c-5.9 0-15.6-2.7-20.8-5.7l-4.4-2.7z"/>
		<path id="Layer" fill="currentColor" d="m67.1 371.3c0 5.1 0.4 6.8 2.5 9.2l2.6 3 17 0.3c18.8 0.4 22.2-0.3 24.6-5.2 0.8-1.5 1.6-5.3 1.6-8.2v-5.3h-24.2-24.1z"/>
		<path id="Layer" fill="currentColor" d="m421.6 370.4c0 2.9 0.8 6.7 1.6 8.2 2.4 4.9 5.8 5.6 24.6 5.2l17-0.3 2.6-3c2.1-2.4 2.5-4.1 2.5-9.2v-6.2h-24.1-24.2z"/>
	</g>
</svg>