<?xml version="1.0" standalone="no"?>
<!DOCTYPE svg PUBLIC "-//W3C//DTD SVG 20010904//EN"
 "http://www.w3.org/TR/2001/REC-SVG-20010904/DTD/svg10.dtd">
<svg version="1.0" xmlns="http://www.w3.org/2000/svg" fill="currentColor"
 width="512.000000pt" height="512.000000pt" viewBox="0 0 512.000000 512.000000"
 preserveAspectRatio="xMidYMid meet">

<g transform="translate(0.000000,512.000000) scale(0.100000,-0.100000)"
fill="currentColor" stroke="none">
<path d="M2457 5109 c-133 -31 -243 -137 -281 -270 -9 -31 -28 -67 -42 -80
-25 -23 -30 -24 -225 -27 l-199 -3 0 -330 0 -329 850 0 850 0 0 329 0 330
-204 3 c-201 3 -205 3 -230 27 -15 14 -31 43 -37 65 -37 139 -136 241 -268
280 -59 17 -153 19 -214 5z"/>
<path d="M839 4324 c-62 -19 -131 -81 -160 -146 l-24 -53 -3 -1919 c-3 -2110
-6 -1988 58 -2080 37 -55 107 -102 173 -116 37 -8 525 -10 1708 -8 l1655 3 59
30 c69 35 126 103 147 174 11 38 13 395 13 1981 l0 1935 -24 53 c-14 31 -43
69 -69 92 -74 66 -103 70 -454 70 l-308 0 0 -186 c0 -197 -9 -242 -51 -264
-11 -7 -383 -9 -1010 -8 l-992 3 -21 28 c-19 26 -21 43 -24 228 l-3 199 -312
-1 c-239 0 -323 -4 -358 -15z m1182 -923 c46 -47 41 -90 -18 -151 -137 -138
-515 -480 -536 -485 -14 -4 -34 -4 -44 -1 -32 10 -331 318 -338 349 -9 35 11
84 41 104 13 8 41 15 61 15 35 0 46 -8 150 -117 l113 -118 72 68 c40 38 144
135 230 217 150 142 159 148 198 148 33 0 48 -6 71 -29z m1986 -346 c31 -31
35 -40 30 -72 -4 -20 -18 -48 -32 -62 l-25 -26 -796 0 -796 0 -29 33 c-32 35
-37 72 -15 111 29 52 4 50 845 51 l783 0 35 -35z m-1986 -704 c28 -29 37 -68
23 -105 -9 -22 -541 -519 -568 -530 -46 -18 -76 3 -224 155 -81 83 -153 162
-161 176 -10 21 -11 34 -2 63 14 46 48 70 98 70 35 0 45 -7 150 -117 l113
-117 47 45 c27 25 130 123 230 217 175 165 185 172 224 172 31 0 47 -6 70 -29z
m1984 -342 c14 -14 28 -42 32 -62 5 -32 1 -41 -30 -72 l-35 -35 -781 0 c-583
0 -787 3 -806 12 -30 13 -55 55 -55 91 0 29 34 75 64 87 11 5 373 8 803 7
l783 -2 25 -26z m-1984 -708 c28 -29 37 -68 23 -105 -3 -8 -103 -107 -222
-219 -353 -331 -337 -317 -379 -317 -35 0 -47 10 -191 157 -84 87 -157 169
-163 182 -24 59 30 131 99 131 34 0 46 -9 149 -117 l112 -118 38 36 c21 19
115 107 208 195 94 88 183 170 199 182 42 32 90 29 127 -7z m1976 -337 c36
-27 50 -73 33 -114 -26 -62 7 -60 -850 -60 -517 0 -788 3 -801 10 -24 13 -49
61 -49 94 0 30 43 83 73 89 12 2 369 4 794 3 767 -1 772 -1 800 -22z"/>
</g>
</svg>
