<?xml version="1.0" standalone="no"?>
<!DOCTYPE svg PUBLIC "-//W3C//DTD SVG 20010904//EN"
 "http://www.w3.org/TR/2001/REC-SVG-20010904/DTD/svg10.dtd">
<svg version="1.0" xmlns="http://www.w3.org/2000/svg"
 width="472.000000pt" height="482.000000pt" viewBox="0 0 472.000000 482.000000"
 preserveAspectRatio="xMidYMid meet">

<g transform="translate(0.000000,482.000000) scale(0.100000,-0.100000)"
fill="currentColor" stroke="none">
<path d="M258 4806 c-115 -31 -224 -145 -248 -259 -7 -36 -10 -691 -8 -2167
l3 -2115 29 -59 c37 -76 96 -135 172 -172 l59 -29 1390 0 1390 0 55 26 c82 39
135 90 172 167 l33 67 3 312 c2 172 4 313 5 313 1 0 38 -7 82 -15 104 -19 198
-19 314 0 52 9 95 14 96 13 1 -2 82 -173 180 -381 99 -208 192 -393 207 -412
16 -18 54 -46 86 -62 76 -37 181 -39 258 -5 94 42 166 140 180 245 13 94 -1
122 -261 499 l-243 352 48 56 c103 120 172 254 211 405 32 125 32 311 1 440
-44 176 -161 372 -293 488 -224 199 -560 283 -841 212 l-28 -7 -2 919 -3 918
-33 67 c-38 77 -92 130 -171 167 l-56 26 -1370 2 c-1085 1 -1380 -1 -1417 -11z
m2797 -130 c60 -28 87 -56 114 -116 20 -44 21 -61 21 -962 l0 -918 -53 -26
c-145 -73 -311 -223 -385 -347 -222 -371 -180 -830 104 -1136 84 -90 176 -161
265 -204 l68 -32 0 -315 c1 -313 1 -315 -23 -367 -27 -57 -84 -106 -145 -124
-24 -7 -473 -9 -1387 -7 l-1351 3 -49 30 c-30 19 -60 49 -79 79 l-30 49 0
2126 0 2126 28 47 c30 51 70 84 126 104 29 11 308 13 1381 13 l1345 1 50 -24z
m625 -2057 c226 -36 430 -166 554 -352 317 -476 83 -1101 -472 -1259 -100 -29
-303 -31 -401 -5 -153 41 -258 99 -368 201 -114 106 -192 232 -235 383 -33
113 -33 324 0 437 68 236 234 429 456 531 145 67 308 90 466 64z m480 -1631
c8 -13 -7 -26 -93 -75 -56 -32 -105 -59 -108 -61 -7 -3 -44 76 -38 82 2 2 31
17 64 34 33 17 76 42 95 55 l35 25 18 -21 c10 -12 22 -29 27 -39z m257 -374
c104 -150 176 -262 179 -282 19 -100 -79 -212 -186 -212 -45 0 -114 32 -134
62 -36 56 -270 562 -261 565 6 2 55 30 110 62 55 33 105 58 110 57 6 -1 88
-115 182 -252z"/>
<path d="M2117 4452 c-21 -23 -22 -56 -1 -76 18 -18 41 -25 104 -28 l45 -3
-230 -214 c-127 -117 -235 -215 -241 -218 -7 -2 -112 61 -234 141 -151 100
-230 146 -248 145 -19 0 -160 -95 -462 -308 -396 -280 -435 -311 -438 -338 -4
-36 19 -63 54 -63 17 0 162 96 427 283 221 156 407 287 414 290 6 4 109 -57
239 -143 132 -87 237 -150 251 -150 17 0 96 67 283 240 142 132 262 245 265
250 16 25 25 5 25 -54 0 -73 14 -96 60 -96 51 0 60 27 60 180 0 190 11 180
-194 180 -145 0 -165 -2 -179 -18z"/>
<path d="M2207 3830 l-27 -21 0 -650 0 -649 -60 0 -60 0 0 424 c0 373 -2 426
-16 440 -13 13 -45 16 -198 16 -128 0 -186 -4 -194 -12 -9 -9 -12 -120 -12
-440 l0 -428 -60 0 -60 0 0 535 0 536 -25 24 c-24 24 -27 25 -185 25 -156 0
-194 -6 -212 -34 -4 -6 -8 -253 -8 -548 l0 -538 -60 0 -60 0 0 308 c0 287 -1
310 -18 325 -27 25 -362 25 -386 1 -14 -13 -16 -57 -16 -325 l0 -309 -45 0
c-74 0 -110 -55 -65 -100 20 -20 33 -20 1138 -20 1071 0 1120 1 1135 18 42 46
6 102 -65 102 l-38 0 -2 650 c-3 608 -4 650 -21 667 -15 16 -40 18 -185 21
-159 3 -169 2 -195 -18z m281 -712 l2 -608 -95 0 -95 0 0 610 0 611 93 -3 92
-3 3 -607z m-1090 -110 l2 -498 -95 0 -95 0 0 500 0 501 93 -3 92 -3 3 -497z
m542 -118 l0 -380 -90 0 -90 0 0 380 0 380 90 0 90 0 0 -380z m-1090 -115 l0
-265 -90 0 -90 0 0 265 0 265 90 0 90 0 0 -265z"/>
<path d="M457 1832 c-15 -16 -17 -47 -17 -220 0 -189 1 -203 20 -222 19 -19
33 -20 218 -20 163 0 201 3 220 16 22 15 22 20 22 220 0 122 -4 213 -10 225
-10 18 -23 19 -224 19 -194 0 -214 -2 -229 -18z m343 -222 l0 -120 -120 0
-120 0 0 120 0 120 120 0 120 0 0 -120z"/>
<path d="M1046 1814 c-24 -23 -20 -70 6 -88 20 -14 83 -16 490 -16 455 0 469
1 488 20 25 25 26 62 2 83 -17 15 -66 17 -495 17 -419 0 -477 -2 -491 -16z"/>
<path d="M1052 1524 c-27 -19 -29 -64 -4 -87 17 -15 76 -17 644 -17 593 0 626
1 641 18 24 26 21 68 -5 86 -20 14 -97 16 -638 16 -541 0 -618 -2 -638 -16z"/>
<path d="M460 1060 c-19 -19 -20 -33 -20 -223 0 -185 2 -205 18 -220 16 -15
47 -17 230 -17 199 0 212 1 222 19 6 12 10 103 10 225 0 200 0 205 -22 220
-19 13 -57 16 -220 16 -185 0 -199 -1 -218 -20z m340 -220 l0 -120 -120 0
-120 0 0 120 0 120 120 0 120 0 0 -120z"/>
<path d="M1052 1044 c-26 -18 -30 -65 -6 -88 14 -14 72 -16 493 -16 450 0 479
1 494 18 18 19 22 49 9 68 -21 32 -53 34 -509 34 -399 0 -461 -2 -481 -16z"/>
<path d="M1046 744 c-24 -23 -20 -70 6 -88 20 -14 97 -16 638 -16 677 0 660
-2 660 59 0 64 27 61 -663 61 -555 0 -627 -2 -641 -16z"/>
<path d="M3382 2490 c-259 -68 -456 -269 -518 -528 -24 -104 -15 -279 20 -381
98 -281 339 -463 632 -479 388 -20 717 275 741 663 8 124 -15 233 -73 354 -38
78 -60 108 -132 181 -73 73 -102 95 -182 134 -52 25 -126 53 -165 61 -97 20
-234 18 -323 -5z m307 -115 c304 -72 504 -387 437 -688 -64 -285 -317 -481
-601 -464 -199 11 -358 103 -465 268 -56 87 -81 167 -87 282 -7 116 5 182 51
282 77 165 232 286 421 328 46 11 185 6 244 -8z"/>
<path d="M3645 1840 l-191 -190 -89 90 c-56 56 -97 90 -110 90 -35 0 -58 -24
-58 -60 0 -28 15 -47 115 -146 93 -92 120 -114 143 -114 24 0 64 35 243 214
179 177 215 218 215 241 0 30 -33 65 -61 65 -9 0 -102 -85 -207 -190z"/>
</g>
</svg>
