<?xml version="1.0" standalone="no"?>
<!DOCTYPE svg PUBLIC "-//W3C//DTD SVG 20010904//EN"
 "http://www.w3.org/TR/2001/REC-SVG-20010904/DTD/svg10.dtd">
<svg version="1.0" xmlns="http://www.w3.org/2000/svg"
 width="980.000000pt" height="910.000000pt" viewBox="0 0 980.000000 910.000000"
 preserveAspectRatio="xMidYMid meet">

<g transform="translate(0.000000,910.000000) scale(0.100000,-0.100000)"
fill="currentColor" stroke="none">
<path d="M350 4900 l0 -4200 -175 0 -175 0 0 -350 0 -350 4900 0 4900 0 0 350
0 350 -175 0 -175 0 0 3150 0 3150 -1400 0 -1400 0 0 1050 0 1050 -3150 0
-3150 0 0 -4200z m5600 -350 l0 -3850 -2450 0 -2450 0 0 3850 0 3850 2450 0
2450 0 0 -3850z m2800 -1050 l0 -2800 -1050 0 -1050 0 0 2800 0 2800 1050 0
1050 0 0 -2800z"/>
<path d="M1750 6825 l0 -525 700 0 700 0 0 525 0 525 -700 0 -700 0 0 -525z"/>
<path d="M3850 6825 l0 -525 700 0 700 0 0 525 0 525 -700 0 -700 0 0 -525z"/>
<path d="M1750 5075 l0 -525 700 0 700 0 0 525 0 525 -700 0 -700 0 0 -525z"/>
<path d="M3850 5075 l0 -525 700 0 700 0 0 525 0 525 -700 0 -700 0 0 -525z"/>
<path d="M1750 3325 l0 -525 700 0 700 0 0 525 0 525 -700 0 -700 0 0 -525z"/>
<path d="M3850 3325 l0 -525 700 0 700 0 0 525 0 525 -700 0 -700 0 0 -525z"/>
<path d="M7350 5075 l0 -525 350 0 350 0 0 525 0 525 -350 0 -350 0 0 -525z"/>
<path d="M7350 3325 l0 -525 350 0 350 0 0 525 0 525 -350 0 -350 0 0 -525z"/>
</g>
</svg>
