<?xml version="1.0" standalone="no"?>
<!DOCTYPE svg PUBLIC "-//W3C//DTD SVG 20010904//EN"
 "http://www.w3.org/TR/2001/REC-SVG-20010904/DTD/svg10.dtd">
<svg version="1.0" xmlns="http://www.w3.org/2000/svg"
 width="512.000000pt" height="512.000000pt" viewBox="0 0 512.000000 512.000000"
 preserveAspectRatio="xMidYMid meet">

<g transform="translate(0.000000,512.000000) scale(0.100000,-0.100000)"
fill="currentColor" stroke="none">
<path d="M523 5051 c-76 -7 -109 -30 -143 -97 -23 -46 -25 -59 -25 -194 0
-139 1 -147 27 -190 14 -25 41 -56 60 -70 30 -23 44 -25 183 -32 195 -8 3582
-10 3829 -1 l189 6 40 31 c75 57 82 79 82 261 0 183 -7 203 -84 262 l-43 33
-2026 -2 c-1115 0 -2055 -4 -2089 -7z"/>
<path d="M490 4247 c-52 -17 -114 -84 -128 -139 -7 -26 -12 -97 -12 -159 l0
-113 -119 -340 c-211 -604 -226 -651 -212 -696 35 -118 174 -175 280 -115 23
14 45 25 46 25 2 0 6 -561 8 -1247 2 -863 7 -1260 15 -1287 14 -52 68 -105
118 -116 22 -6 603 -10 1357 -10 l1317 0 0 1000 0 1000 503 -2 502 -3 3 -998
2 -997 225 0 c251 0 267 3 324 63 30 32 34 44 42 114 4 43 8 477 8 964 1 487
4 1028 8 1202 l6 316 40 -20 c50 -26 133 -35 180 -20 51 17 94 70 103 126 9
61 1 86 -177 597 -125 357 -149 437 -149 485 0 32 -5 99 -9 149 -11 115 -35
164 -98 205 l-47 29 -2050 -1 c-1474 -1 -2061 -4 -2086 -12z m626 -639 c-4
-24 -36 -176 -71 -338 -35 -162 -71 -338 -80 -390 -23 -127 -41 -175 -83 -222
-118 -131 -328 -123 -433 16 -21 27 -43 69 -50 93 -16 60 -2 122 118 527 52
177 97 329 100 339 5 16 26 17 255 17 l251 0 -7 -42z m854 37 c0 -32 -72 -794
-79 -835 -12 -71 -22 -96 -59 -146 -66 -90 -224 -126 -334 -77 -94 43 -158
139 -158 241 0 70 112 790 126 813 5 9 504 13 504 4z m858 -332 c20 -560 20
-569 -49 -647 -62 -71 -127 -100 -219 -100 -88 0 -137 21 -201 85 -48 48 -66
88 -75 163 -6 50 8 520 22 744 l6 92 252 0 252 0 12 -337z m836 310 c8 -41 72
-426 96 -583 36 -232 25 -318 -52 -397 -73 -76 -224 -101 -321 -54 -61 30
-123 101 -142 163 -8 27 -30 226 -50 441 -19 216 -37 407 -40 425 l-6 32 255
0 254 0 6 -27z m927 -273 c150 -500 157 -536 109 -630 -50 -99 -143 -154 -255
-154 -80 0 -147 28 -202 86 -45 46 -59 88 -89 245 -13 76 -43 221 -65 323 -74
340 -88 414 -83 422 3 5 116 7 251 6 l246 -3 88 -295z m-2031 -2003 l0 -703
-792 4 c-436 2 -799 5 -805 7 -10 4 -13 151 -13 694 l0 690 28 4 c15 2 377 5
805 6 l777 1 0 -703z"/>
</g>
</svg>
