<?xml version="1.0" standalone="no"?>
<!DOCTYPE svg PUBLIC "-//W3C//DTD SVG 20010904//EN"
 "http://www.w3.org/TR/2001/REC-SVG-20010904/DTD/svg10.dtd">
<svg version="1.0" xmlns="http://www.w3.org/2000/svg" fill="currentColor"
 width="512.000000pt" height="512.000000pt" viewBox="0 0 512.000000 512.000000"
 preserveAspectRatio="xMidYMid meet">

<g transform="translate(0.000000,512.000000) scale(0.100000,-0.100000)"
fill="currentColor" stroke="none">
<path d="M1941 4945 c-67 -19 -109 -49 -118 -83 -8 -33 25 -306 42 -349 20
-48 59 -63 167 -63 105 0 146 16 166 66 13 35 42 247 42 311 0 36 -6 50 -28
73 -51 50 -177 71 -271 45z"/>
<path d="M1603 4701 c-73 -58 -139 -137 -182 -221 -36 -70 -71 -166 -71 -197
0 -11 124 -13 680 -13 612 0 680 2 680 16 0 33 -53 172 -88 229 -20 33 -55 80
-77 104 -41 46 -131 121 -144 121 -4 0 -13 -48 -20 -107 -16 -142 -35 -197
-84 -251 -73 -78 -100 -87 -267 -87 -168 0 -197 10 -269 91 -48 55 -64 104
-82 252 -7 56 -16 102 -20 102 -4 0 -29 -17 -56 -39z"/>
<path d="M4377 4663 c-2 -5 -23 -93 -47 -196 l-43 -188 47 -99 46 -100 0 -545
0 -545 130 0 130 0 0 550 0 550 44 95 44 94 -44 191 c-24 105 -44 193 -44 196
0 7 -259 4 -263 -3z"/>
<path d="M3244 4571 c-56 -40 -92 -86 -128 -161 -28 -58 -31 -75 -31 -160 0
-86 3 -101 32 -162 37 -80 96 -146 158 -179 l45 -24 0 -736 0 -735 -32 -16
c-110 -53 -197 -190 -206 -323 -8 -132 51 -261 156 -342 24 -18 48 -33 53 -33
5 0 9 84 9 198 l0 198 88 51 87 51 55 -31 c30 -17 72 -41 93 -54 l37 -23 0
-195 c0 -116 4 -195 9 -195 6 0 37 25 70 56 41 38 71 77 93 122 31 62 33 73
33 172 0 93 -3 111 -27 163 -32 69 -113 156 -168 183 l-40 19 0 732 0 732 44
26 c61 36 132 115 164 183 24 50 27 69 27 162 0 93 -3 112 -27 162 -29 62
-106 151 -150 174 l-28 15 0 -196 0 -195 -37 -23 c-21 -13 -63 -38 -93 -55
l-55 -31 -87 52 -88 51 0 198 c0 109 -4 198 -8 198 -5 0 -27 -13 -48 -29z"/>
<path d="M1295 4099 c-66 -19 -87 -104 -39 -153 l27 -26 749 0 749 0 24 25
c18 17 25 35 25 62 0 50 -22 80 -68 93 -46 12 -1424 12 -1467 -1z"/>
<path d="M1420 3754 c0 -3 17 -38 37 -78 58 -110 165 -212 284 -269 118 -57
188 -71 326 -65 129 6 205 29 309 94 110 68 231 209 259 302 l6 22 -610 0
c-336 0 -611 -3 -611 -6z"/>
<path d="M1798 3215 c-351 -66 -660 -272 -853 -570 -49 -75 -95 -157 -95 -170
0 -3 115 -5 255 -5 222 0 255 -2 255 -15 0 -9 -11 -77 -25 -151 -14 -74 -25
-155 -25 -180 l0 -44 803 0 804 0 12 69 c22 123 103 262 190 326 58 43 57 84
-4 175 -182 273 -447 461 -775 547 -81 22 -121 26 -280 29 -132 2 -207 -1
-262 -11z"/>
<path d="M4292 2823 c-7 -3 -19 -18 -27 -33 -13 -25 -15 -112 -15 -570 l0
-540 255 0 255 0 0 554 0 555 -26 20 c-25 20 -39 21 -228 20 -110 0 -207 -3
-214 -6z"/>
<path d="M550 2055 c0 -140 4 -255 8 -255 4 0 27 20 51 44 l43 44 79 -35 79
-36 54 18 53 18 34 86 34 86 81 3 81 3 6 112 c4 62 10 124 13 140 l6 27 -311
0 -311 0 0 -255z"/>
<path d="M3998 2248 c30 -76 41 -230 22 -321 -32 -155 -146 -297 -310 -385
-93 -50 -96 -53 -133 -122 -178 -328 -529 -578 -906 -646 -96 -17 -333 -20
-420 -6 -48 8 -64 6 -120 -15 -76 -28 -83 -34 -104 -90 -17 -42 -17 -43 18
-119 19 -42 35 -84 36 -93 0 -9 24 -77 53 -151 l52 -135 258 0 259 0 57 150
c31 82 63 152 71 157 8 4 61 22 119 40 58 18 160 60 227 94 l122 62 142 -64
c79 -35 148 -64 153 -64 6 0 92 80 190 179 l178 178 -67 151 -67 151 56 109
c59 116 105 234 125 318 11 44 16 52 47 63 l34 12 0 305 0 304 -59 0 -59 0 26
-62z"/>
<path d="M1076 1818 c-13 -29 -26 -63 -30 -75 -4 -14 -18 -24 -39 -28 -18 -4
-67 -23 -109 -42 l-77 -35 -56 26 c-32 14 -65 26 -74 26 -19 0 -161 -139 -161
-157 0 -6 12 -39 26 -73 l27 -60 -31 -68 c-17 -37 -36 -86 -43 -109 -11 -39
-16 -43 -78 -66 l-66 -25 -3 -118 -3 -119 67 -25 c66 -25 66 -25 88 -85 12
-33 33 -81 46 -108 l24 -47 -23 -53 c-39 -88 -40 -84 47 -170 l79 -79 68 30
68 30 71 -34 c38 -19 85 -37 103 -40 40 -7 44 -13 73 -92 l22 -62 117 0 117 0
23 65 c13 36 28 68 35 72 6 4 39 17 74 29 34 12 78 31 97 43 l36 21 70 -32 71
-31 81 81 81 81 -31 71 -32 71 21 35 c11 19 33 67 47 107 l27 72 67 25 67 25
0 117 0 116 -69 27 c-68 27 -70 29 -86 78 -9 28 -29 76 -45 107 l-28 56 30 68
30 69 -82 82 -82 83 -66 -30 -66 -30 -55 26 c-31 15 -80 34 -110 44 -52 18
-53 19 -80 87 l-26 70 -113 3 -113 3 -23 -53z m244 -420 c242 -73 357 -338
246 -563 -147 -297 -571 -296 -718 2 -27 55 -33 80 -36 155 -5 100 16 177 69
255 92 134 280 198 439 151z"/>
</g>
</svg>
