<?xml version="1.0" standalone="no"?>
<!DOCTYPE svg PUBLIC "-//W3C//DTD SVG 20010904//EN"
 "http://www.w3.org/TR/2001/REC-SVG-20010904/DTD/svg10.dtd">
<svg version="1.0" xmlns="http://www.w3.org/2000/svg"
 width="512.000000pt" height="512.000000pt" viewBox="0 0 512.000000 512.000000"
 preserveAspectRatio="xMidYMid meet">

<g transform="translate(0.000000,512.000000) scale(0.100000,-0.100000)"
fill="#000000" stroke="none">
<path d="M12 5018 c-19 -19 -18 -4901 2 -4917 9 -8 63 -11 167 -9 l154 3 5
175 5 175 1433 3 1432 2 0 -161 c0 -91 4 -169 10 -180 10 -17 23 -19 163 -19
106 0 157 4 165 12 9 9 12 109 12 390 l0 378 698 0 c653 0 700 2 737 19 50 22
101 79 115 128 8 27 10 476 8 1540 l-3 1501 -30 44 c-17 23 -51 54 -75 68
l-45 25 -342 3 -343 3 0 29 c0 51 -20 60 -135 60 l-103 0 -11 33 c-6 18 -29
50 -50 71 -100 98 -265 70 -322 -53 -22 -47 -26 -50 -61 -51 l-38 0 0 358 c0
265 -3 361 -12 370 -8 8 -59 12 -165 12 -140 0 -153 -2 -163 -19 -6 -13 -10
-162 -10 -415 l0 -396 -228 0 c-260 0 -307 -8 -359 -62 -47 -50 -57 -76 -63
-168 l-5 -85 -350 0 -350 0 -3 444 c-1 308 -6 448 -13 458 -17 19 -951 19
-968 0 -7 -10 -12 -150 -13 -458 l-3 -444 -255 0 -255 0 -5 570 -5 570 -155 3
c-113 2 -159 -1 -168 -10z m248 -2458 l0 -2390 -90 0 -90 0 0 2390 0 2390 90
0 90 0 0 -2390z m3220 2060 l0 -330 -28 0 c-37 0 -52 -17 -52 -57 l0 -33 -55
0 -55 0 0 375 0 375 95 0 95 0 0 -330z m-2280 -30 c0 -128 0 -130 23 -135 16
-4 40 3 76 24 28 17 55 31 58 31 3 0 28 -14 55 -31 28 -16 60 -29 72 -27 20 3
21 9 24 136 l3 132 129 0 130 0 0 -420 0 -420 -415 0 -415 0 0 420 0 420 130
0 130 0 0 -130z m230 55 c0 -41 -2 -75 -5 -75 -2 0 -20 7 -39 16 -33 16 -36
16 -70 -4 l-36 -21 0 79 0 80 75 0 75 0 0 -75z m2497 -308 c14 -13 29 -44 34
-68 6 -24 15 -47 22 -51 7 -4 58 -8 115 -8 l102 0 0 -150 0 -150 -360 0 -360
0 0 150 0 150 104 0 c114 0 116 1 134 66 28 96 141 129 209 61z m-527 -282 l0
-65 -323 0 c-238 0 -326 -3 -335 -12 -9 -9 -12 -344 -12 -1444 0 -1289 2
-1434 16 -1448 14 -14 126 -16 1087 -16 955 0 1075 2 1095 16 l22 15 0 1433
c0 1100 -3 1435 -12 1444 -9 9 -97 12 -335 12 l-323 0 0 65 0 66 338 -3 c306
-3 339 -5 364 -21 62 -42 58 60 58 -1569 0 -1453 0 -1484 -20 -1515 -40 -67
36 -63 -1183 -63 l-1104 0 -34 23 c-18 12 -39 34 -46 47 -10 20 -13 343 -13
1515 0 1476 0 1490 20 1523 36 59 50 61 413 62 l327 0 0 -65z m0 -173 c0 -15
5 -33 12 -40 17 -17 839 -17 856 0 7 7 12 25 12 40 l0 28 295 0 295 0 -2
-1377 -3 -1378 -1027 -3 -1028 -2 0 1380 0 1380 295 0 295 0 0 -28z m-840
-172 l0 -90 -1110 0 -1110 0 0 90 0 90 1110 0 1110 0 0 -90z m0 -315 l0 -145
-847 -2 -848 -3 -3 -452 -2 -453 -260 0 -260 0 0 593 c0 327 3 597 7 600 3 4
503 7 1110 7 l1103 0 0 -145z m-1360 -349 c0 -158 5 -165 94 -116 l63 33 61
-33 c87 -48 92 -42 92 116 l0 124 130 0 130 0 0 -415 0 -415 -415 0 -415 0 0
415 0 415 130 0 130 0 0 -124z m230 49 c0 -41 -3 -75 -7 -75 -5 0 -17 7 -27
15 -11 8 -29 15 -41 15 -12 0 -30 -7 -41 -15 -10 -8 -22 -15 -26 -15 -5 0 -8
34 -8 75 l0 75 75 0 75 0 0 -75z m680 -44 c0 -95 3 -123 16 -135 20 -21 16
-21 86 16 l60 32 59 -33 c48 -26 62 -30 79 -21 18 10 20 20 20 135 l0 125 65
0 65 0 0 -415 0 -415 -355 0 -355 0 0 415 0 415 130 0 130 0 0 -119z m240 44
c0 -41 -3 -75 -6 -75 -3 0 -19 8 -35 17 -30 18 -31 17 -101 -12 -16 -6 -18 0
-18 69 l0 76 80 0 80 0 0 -75z m210 -930 l0 -95 -1107 2 -1108 3 -3 79 c-2 44
-1 85 2 93 4 11 197 13 1111 13 l1105 0 0 -95z m0 -315 l0 -140 -831 0 c-553
0 -837 -3 -850 -10 -18 -10 -19 -26 -19 -461 l0 -449 -257 2 -258 3 -3 598 -2
597 1110 0 1110 0 0 -140z m-1360 -355 c5 -130 5 -130 30 -133 14 -1 47 11 75
27 l49 30 53 -30 c29 -17 63 -29 75 -27 22 3 23 7 28 133 l5 130 128 3 127 3
0 -421 0 -420 -415 0 -415 0 0 420 0 421 128 -3 127 -3 5 -130z m230 55 l0
-80 -36 19 c-37 20 -37 20 -75 0 l-39 -19 0 80 0 80 75 0 75 0 0 -80z m680
-43 c0 -161 15 -177 112 -117 l50 31 49 -31 c54 -33 94 -39 103 -14 3 9 6 69
6 135 l0 119 65 0 65 0 0 -301 0 -301 26 -48 c15 -28 41 -57 64 -71 37 -22 39
-27 40 -71 l0 -48 -420 0 -420 0 0 413 c0 228 3 417 7 420 3 4 62 7 130 7
l123 0 0 -123z m240 43 l0 -80 -41 20 -40 21 -35 -20 c-19 -12 -37 -21 -40
-21 -2 0 -4 36 -4 80 l0 80 80 0 80 0 0 -80z m860 -720 l0 -40 -220 0 -220 0
0 40 0 40 220 0 220 0 0 -40z m270 -310 l0 -350 -95 0 -95 0 0 350 0 350 95 0
95 0 0 -350z m-270 100 l0 -90 -1435 0 -1435 0 0 90 0 90 1435 0 1435 0 0 -90z"/>
<path d="M3024 3647 c-2 -7 -3 -71 -2 -143 l3 -129 135 -3 c118 -2 136 0 147
15 16 21 18 225 3 254 -10 17 -22 19 -146 19 -101 0 -136 -3 -140 -13z m216
-132 l0 -65 -70 0 -70 0 0 65 0 65 70 0 70 0 0 -65z"/>
<path d="M3437 3543 c-17 -17 -6 -54 19 -64 40 -15 1069 -8 1085 8 7 7 9 22 5
37 l-6 26 -549 0 c-301 0 -551 -3 -554 -7z"/>
<path d="M3032 3248 c-17 -17 -17 -259 0 -276 8 -8 54 -12 140 -12 116 0 128
2 138 19 5 11 10 71 10 134 0 150 3 147 -156 147 -80 0 -124 -4 -132 -12z
m206 -140 l3 -68 -71 0 -70 0 0 70 0 71 68 -3 67 -3 3 -67z"/>
<path d="M3442 3138 c-21 -21 -15 -57 11 -63 12 -3 260 -4 551 -3 491 3 530 4
540 21 8 12 8 22 0 35 -10 16 -49 17 -551 20 -411 2 -542 -1 -551 -10z"/>
<path d="M3032 2838 c-17 -17 -17 -259 0 -276 8 -8 52 -12 133 -12 158 0 155
-3 155 149 0 62 -5 121 -10 132 -10 17 -22 19 -138 19 -86 0 -132 -4 -140 -12z
m206 -135 l-3 -68 -67 -3 -68 -3 0 71 0 70 70 0 71 0 -3 -67z"/>
<path d="M4372 2748 c-9 -9 -12 -143 -12 -539 0 -466 2 -529 16 -543 12 -13
39 -16 130 -16 64 0 124 5 135 10 18 10 19 27 19 543 0 401 -3 536 -12 545 -8
8 -53 12 -138 12 -85 0 -130 -4 -138 -12z m208 -543 l0 -475 -70 0 -70 0 0
475 0 475 70 0 70 0 0 -475z"/>
<path d="M3437 2733 c-11 -11 -8 -48 5 -61 9 -9 95 -12 324 -12 339 0 344 1
330 55 l-6 25 -324 0 c-177 0 -326 -3 -329 -7z"/>
<path d="M3483 2413 c-18 -7 -19 -733 -1 -751 17 -17 249 -17 266 0 17 17 17
729 0 746 -12 12 -238 17 -265 5z m197 -378 l0 -305 -65 0 -65 0 0 305 0 305
65 0 65 0 0 -305z"/>
<path d="M3920 2341 c-6 -13 -10 -138 -10 -339 0 -296 1 -320 18 -335 15 -14
40 -17 131 -17 62 0 121 5 132 10 18 10 19 25 19 340 0 180 -3 335 -6 344 -5
14 -27 16 -140 16 -122 0 -134 -2 -144 -19z m210 -336 l0 -276 -67 3 -68 3 -3
273 -2 272 70 0 70 0 0 -275z"/>
<path d="M3032 2228 c-17 -17 -17 -549 0 -566 8 -8 52 -12 133 -12 105 0 124
2 138 18 15 16 17 51 17 280 0 224 -2 263 -16 276 -12 13 -40 16 -138 16 -81
0 -126 -4 -134 -12z m203 -283 l0 -210 -67 -3 -68 -3 0 216 0 216 68 -3 67 -3
0 -210z"/>
<path d="M2912 1468 c-18 -18 -14 -46 7 -58 13 -7 320 -10 925 -10 809 0 906
2 920 16 19 19 20 36 4 52 -17 17 -1839 17 -1856 0z"/>
</g>
</svg>
