<?xml version="1.0" standalone="no"?>
<!DOCTYPE svg PUBLIC "-//W3C//DTD SVG 20010904//EN"
 "http://www.w3.org/TR/2001/REC-SVG-20010904/DTD/svg10.dtd">
<svg version="1.0" xmlns="http://www.w3.org/2000/svg" fill="currentColor"
 width="512.000000pt" height="512.000000pt" viewBox="0 0 512.000000 512.000000"
 preserveAspectRatio="xMidYMid meet">

<g transform="translate(0.000000,512.000000) scale(0.100000,-0.100000)"
fill="currentColor" stroke="none">
<path d="M297 4943 c-12 -14 -97 -410 -97 -453 0 -5 28 -44 63 -86 l62 -78 5
-566 5 -565 103 -3 102 -3 0 563 1 563 64 80 c41 51 65 89 65 105 0 45 -79
432 -91 446 -9 11 -42 14 -139 14 -108 0 -129 -3 -143 -17z"/>
<path d="M1686 4938 c-14 -19 -16 -71 -16 -360 0 -325 1 -339 20 -358 18 -18
33 -20 193 -20 140 0 177 3 195 16 l22 15 0 348 c0 324 -1 349 -18 364 -16 15
-45 17 -200 17 -176 0 -181 -1 -196 -22z"/>
<path d="M2788 4949 c-17 -9 -18 -37 -18 -364 l0 -355 24 -15 c35 -23 372 -18
386 5 15 23 13 713 -2 728 -15 15 -365 16 -390 1z"/>
<path d="M3877 4942 c-15 -17 -17 -56 -17 -360 0 -329 1 -343 20 -362 18 -18
33 -20 195 -20 162 0 177 2 195 20 19 19 20 33 20 363 0 320 -1 345 -18 360
-16 15 -45 17 -199 17 -162 0 -182 -2 -196 -18z"/>
<path d="M1257 4569 c-96 -23 -182 -94 -226 -188 -25 -54 -26 -63 -29 -263
l-4 -208 1982 0 1981 0 -3 208 -3 208 -33 66 c-37 76 -83 120 -162 157 -49 22
-71 26 -192 29 l-136 4 -4 -194 c-3 -193 -3 -195 -31 -236 -15 -23 -46 -52
-70 -64 -40 -22 -53 -23 -252 -23 -241 0 -265 6 -320 84 l-30 43 -3 194 -4
194 -191 -2 -192 -3 -5 -195 c-3 -126 -9 -203 -17 -216 -18 -32 -80 -83 -111
-91 -15 -5 -119 -8 -232 -8 -231 0 -243 3 -304 78 l-31 39 -3 199 -3 199 -195
0 -194 0 0 -182 c0 -207 -10 -244 -71 -291 -54 -41 -108 -49 -310 -45 -178 3
-185 4 -229 30 -28 16 -55 43 -70 70 -24 41 -25 52 -28 231 l-4 187 -116 -1
c-64 -1 -134 -5 -155 -10z"/>
<path d="M1000 2865 l0 -905 61 0 c123 0 184 -58 213 -201 8 -40 37 -41 97 -3
43 27 63 34 105 34 76 0 98 -12 192 -103 100 -98 122 -136 122 -212 l0 -55
603 0 603 0 48 70 c64 93 195 215 289 268 300 171 661 156 948 -38 78 -54 180
-156 216 -218 59 -99 15 -232 -90 -271 -17 -7 -120 -11 -257 -11 l-228 0 -64
-75 c-34 -42 -64 -80 -66 -85 -5 -13 803 -13 882 0 114 18 206 87 255 190 l26
55 3 1233 2 1232 -1980 0 -1980 0 0 -905z m981 304 c19 -19 20 -30 17 -190 -2
-138 -6 -172 -18 -179 -8 -5 -91 -10 -185 -10 -93 0 -177 5 -185 10 -12 7 -16
41 -18 179 -4 225 -18 211 203 211 153 0 166 -1 186 -21z m789 1 c18 -18 20
-33 20 -181 0 -91 -4 -169 -10 -180 -10 -18 -23 -19 -190 -19 -228 0 -213 -15
-208 210 3 146 5 163 22 176 15 11 58 14 183 14 150 0 165 -2 183 -20z m790 0
c18 -18 20 -33 20 -181 0 -91 -4 -169 -10 -180 -10 -18 -23 -19 -189 -19 -154
0 -180 2 -192 17 -11 12 -14 57 -14 185 0 156 2 171 19 184 15 11 58 14 183
14 150 0 165 -2 183 -20z m790 0 c18 -18 20 -33 20 -181 0 -91 -4 -169 -10
-180 -10 -18 -23 -19 -188 -19 -125 0 -182 4 -190 12 -8 8 -12 65 -12 190 0
158 2 178 18 187 9 6 88 11 180 11 149 0 164 -2 182 -20z m-2370 -790 c18 -18
20 -33 20 -174 0 -85 -4 -166 -10 -180 l-10 -26 -185 0 -185 0 -10 26 c-6 14
-10 95 -10 180 0 206 -12 194 205 194 152 0 167 -2 185 -20z m790 0 c18 -18
20 -33 20 -181 0 -91 -4 -169 -10 -180 -10 -18 -23 -19 -188 -19 -97 0 -184 5
-192 10 -12 8 -15 40 -15 185 0 163 1 178 19 191 15 11 58 14 183 14 150 0
165 -2 183 -20z m790 0 c18 -18 20 -33 20 -181 0 -91 -4 -169 -10 -180 -10
-18 -23 -19 -190 -19 -228 0 -213 -15 -208 210 3 146 5 163 22 176 15 11 58
14 183 14 150 0 165 -2 183 -20z m790 0 c18 -18 20 -33 20 -181 0 -91 -4 -169
-10 -180 -10 -18 -23 -19 -188 -19 -125 0 -182 4 -190 12 -8 8 -12 65 -12 190
0 158 2 178 18 187 9 6 88 11 180 11 149 0 164 -2 182 -20z"/>
<path d="M172 3038 c-18 -18 -16 -1507 3 -1563 l13 -40 1 43 c1 23 8 59 16 78
19 46 158 190 207 215 69 35 153 23 229 -34 22 -15 31 -17 48 -8 l21 12 0 642
c0 487 -3 646 -12 655 -17 17 -509 17 -526 0z"/>
<path d="M866 1798 c-9 -12 -16 -35 -16 -51 0 -67 -72 -142 -153 -161 -37 -9
-104 10 -144 40 -17 13 -42 24 -55 24 -30 0 -168 -136 -168 -166 0 -11 11 -35
25 -54 53 -72 57 -151 10 -221 -27 -41 -95 -79 -142 -79 -52 0 -63 -24 -63
-138 0 -116 13 -142 71 -142 76 0 152 -72 165 -156 7 -51 -14 -120 -46 -149
-37 -33 -26 -63 53 -142 79 -79 109 -90 142 -53 28 31 99 54 146 46 89 -14
144 -69 158 -157 12 -72 24 -79 146 -79 113 0 135 10 135 65 0 45 39 114 79
140 70 47 149 43 221 -10 19 -14 43 -25 55 -25 29 0 165 138 165 168 0 13 -11
38 -24 55 -69 91 -47 217 47 272 24 14 57 25 73 25 16 0 40 7 52 16 20 14 22
23 22 123 0 119 -10 141 -63 141 -58 0 -123 44 -154 105 -9 16 -16 54 -16 83
0 44 6 61 32 98 17 25 31 55 31 67 0 30 -137 167 -167 167 -13 0 -42 -14 -67
-31 -75 -53 -172 -42 -238 28 -31 32 -48 72 -48 112 0 51 -24 61 -143 61 -98
0 -107 -2 -121 -22z m245 -428 c174 -54 290 -225 276 -408 -14 -186 -146 -329
-337 -364 -253 -47 -499 199 -452 452 24 129 96 233 200 288 104 55 206 66
313 32z"/>
<path d="M3645 1726 c-237 -46 -418 -183 -547 -415 l-17 -31 -663 -1 c-550 0
-655 -2 -616 -13 59 -16 89 -36 125 -82 27 -36 28 -41 31 -180 3 -127 1 -146
-17 -182 -24 -47 -71 -86 -121 -100 -24 -7 162 -11 605 -11 352 -1 645 -5 651
-9 6 -4 30 -40 53 -80 55 -95 148 -194 239 -253 128 -84 249 -120 407 -120
165 0 299 41 433 133 55 38 149 133 168 170 16 31 7 61 -22 72 -8 3 -125 6
-258 6 l-243 0 -147 171 c-80 94 -146 179 -146 189 0 20 255 329 293 355 18
12 66 15 262 15 132 0 245 4 251 8 28 18 24 49 -12 96 -82 107 -249 214 -391
251 -89 22 -234 27 -318 11z"/>
</g>
</svg>
