<svg version="1.2" xmlns="http://www.w3.org/2000/svg" viewBox="0 0 50 50" width="50" height="50">
	<title>product-manufacture-svg</title>
	<g id="03. Recycling Factory">
		<path id="Layer" fill-rule="evenodd" fill="currentColor" d="m49.4 44.1q0.2 0.1 0.3 0.2 0.1 0.1 0.2 0.3 0.1 0.2 0.1 0.4v4q0 0.2-0.1 0.4-0.1 0.2-0.2 0.3-0.1 0.1-0.3 0.2-0.2 0.1-0.4 0.1h-48q-0.2 0-0.4-0.1-0.2-0.1-0.3-0.2-0.1-0.1-0.2-0.3-0.1-0.2-0.1-0.4v-4q0-0.2 0.1-0.4 0.1-0.2 0.2-0.3 0.1-0.1 0.3-0.2 0.2-0.1 0.4-0.1h11v-18q0-0.2 0-0.3 0.1-0.2 0.2-0.3 0.1-0.1 0.2-0.2 0.1-0.1 0.3-0.1l12-4q0.2-0.1 0.5-0.1 0.2 0 0.4 0.2 0.2 0.1 0.3 0.3 0.1 0.3 0.1 0.5v22h23q0.2 0 0.4 0.1zm-29.4-11.1q0 0.4 0.3 0.7 0.3 0.3 0.7 0.3 0.4 0 0.7-0.3 0.3-0.3 0.3-0.7v-4q0-0.4-0.3-0.7-0.3-0.3-0.7-0.3-0.4 0-0.7 0.3-0.3 0.3-0.3 0.7zm0 8q0 0.4 0.3 0.7 0.3 0.3 0.7 0.3 0.4 0 0.7-0.3 0.3-0.3 0.3-0.7v-4q0-0.4-0.3-0.7-0.3-0.3-0.7-0.3-0.4 0-0.7 0.3-0.3 0.3-0.3 0.7zm-4-8q0 0.4 0.3 0.7 0.3 0.3 0.7 0.3 0.4 0 0.7-0.3 0.3-0.3 0.3-0.7v-4q0-0.4-0.3-0.7-0.3-0.3-0.7-0.3-0.4 0-0.7 0.3-0.3 0.3-0.3 0.7zm0 8q0 0.4 0.3 0.7 0.3 0.3 0.7 0.3 0.4 0 0.7-0.3 0.3-0.3 0.3-0.7v-4q0-0.4-0.3-0.7-0.3-0.3-0.7-0.3-0.4 0-0.7 0.3-0.3 0.3-0.3 0.7z"/>
		<path id="Layer" fill="currentColor" d="m9.9 43l-0.9-25h-6l-0.9 25h7.8z"/>
		<path id="Layer" fill-rule="evenodd" fill="currentColor" d="m17 10h-1q-0.8 0-1.5-0.3-0.8-0.3-1.3-0.9-0.6-0.5-0.9-1.3-0.3-0.7-0.3-1.5 0-0.4-0.2-0.8-0.1-0.3-0.4-0.6-0.3-0.3-0.6-0.4-0.4-0.2-0.8-0.2h-1q-0.4 0-0.8 0.2-0.3 0.1-0.6 0.4-0.3 0.3-0.4 0.6-0.2 0.4-0.2 0.8v3q0 0.4-0.3 0.7-0.3 0.3-0.7 0.3-0.4 0-0.7-0.3-0.3-0.3-0.3-0.7v-3q0-0.8 0.3-1.5 0.3-0.8 0.9-1.3 0.5-0.6 1.3-0.9 0.7-0.3 1.5-0.3h1q0.8 0 1.5 0.3 0.8 0.3 1.3 0.9 0.6 0.5 0.9 1.3 0.3 0.7 0.3 1.5 0 0.4 0.2 0.8 0.1 0.3 0.4 0.6 0.3 0.3 0.6 0.4 0.4 0.2 0.8 0.2h1q0.4 0 0.8-0.2 0.3-0.1 0.6-0.4 0.3-0.3 0.4-0.6 0.2-0.4 0.2-0.8v-3q0-0.4 0.3-0.7 0.3-0.3 0.7-0.3 0.4 0 0.7 0.3 0.3 0.3 0.3 0.7v3q0 0.8-0.3 1.5-0.3 0.8-0.9 1.3-0.5 0.6-1.3 0.9-0.7 0.3-1.5 0.3zm-8.6 2.1q0.2 0.1 0.3 0.2 0.1 0.1 0.2 0.3 0.1 0.2 0.1 0.4v4h-6v-4q0-0.2 0.1-0.4 0.1-0.2 0.2-0.3 0.1-0.1 0.3-0.2 0.2-0.1 0.4-0.1h4q0.2 0 0.4 0.1zm25.6-6.1h-4q-0.4 0-0.7-0.3-0.3-0.3-0.3-0.7 0-0.4 0.3-0.7 0.3-0.3 0.7-0.3h4q0.4 0 0.7 0.3 0.3 0.3 0.3 0.7 0 0.4-0.3 0.7-0.3 0.3-0.7 0.3zm0 3h-4q-0.4 0-0.7-0.3-0.3-0.3-0.3-0.7 0-0.4 0.3-0.7 0.3-0.3 0.7-0.3h4q0.4 0 0.7 0.3 0.3 0.3 0.3 0.7 0 0.4-0.3 0.7-0.3 0.3-0.7 0.3zm-7.2 12.2q-0.1-0.3-0.4-0.6-0.3-0.3-0.6-0.4-0.4-0.2-0.8-0.2-0.1 0-0.2 0 0 0-0.1 0-0.1 0-0.2 0.1-0.1 0-0.1 0l-4.4 1.5v-6.6q0-0.2 0.1-0.4 0.1-0.2 0.2-0.3 0.2-0.2 0.4-0.3 0.2 0 0.4 0l16 2q0.2 0 0.4 0.1 0.1 0.1 0.2 0.2 0.2 0.2 0.2 0.3 0.1 0.2 0.1 0.4v6h-4v-1q0-0.4-0.3-0.7-0.3-0.3-0.7-0.3-0.4 0-0.7 0.3-0.3 0.3-0.3 0.7v1h-2v-1q0-0.4-0.3-0.7-0.3-0.3-0.7-0.3-0.4 0-0.7 0.3-0.3 0.3-0.3 0.7v1h-1v-1q0-0.4-0.2-0.8zm20.6 2.9q0.2 0.1 0.3 0.2 0.1 0.1 0.2 0.3 0.1 0.2 0.1 0.4v18h-21v-19h20q0.2 0 0.4 0.1zm-4.4 13.3q-0.1-0.4-0.4-0.6-0.3-0.3-0.7-0.3-0.4 0-0.7 0.3c-0.6 0.8-1.5 1.3-2.4 1.5-1 0.3-2 0.3-2.9-0.1-0.9-0.3-1.7-0.9-2.3-1.6-0.6-0.8-1-1.7-1.1-2.7h2l-3-3-3 3h2c0.1 1.4 0.6 2.7 1.4 3.8 0.8 1.1 2 2 3.3 2.4 1.3 0.5 2.7 0.5 4.1 0.2 1.3-0.4 2.5-1.1 3.4-2.1q0.3-0.3 0.3-0.8zm3.5-4.3h-2c-0.1-1.4-0.6-2.7-1.4-3.8-0.8-1.1-2-2-3.3-2.4-1.3-0.5-2.7-0.5-4.1-0.2-1.3 0.4-2.5 1.1-3.4 2.1q-0.3 0.3-0.3 0.8 0.1 0.4 0.4 0.6 0.3 0.3 0.7 0.3 0.4 0 0.7-0.3c0.6-0.8 1.5-1.3 2.4-1.5 1-0.3 2-0.3 2.9 0.1 0.9 0.3 1.7 0.9 2.3 1.6 0.6 0.8 1 1.7 1.1 2.7h-2l3 3zm-2.5-25.2q-0.3 4.1-3 4.1-0.4 0-0.7-0.3-0.3-0.3-0.3-0.7 0-0.4 0.3-0.7 0.3-0.3 0.7-0.3c0.7 0 1-1 1-3 0-2.4 1.5-7 7-7q0.2 0 0.4 0.1 0.2 0.1 0.3 0.2 0.1 0.1 0.2 0.3 0.1 0.2 0.1 0.4c0 2.3-1.3 6.5-6 6.9z"/>
		<path id="Layer" fill="currentColor" d="m41 7q0-0.6 0.1-1.2 0.1-0.6 0.3-1.2 0.1-0.6 0.4-1.2 0.3-0.6 0.6-1.1-0.5-0.5-1.1-1-0.7-0.4-1.4-0.7-0.7-0.3-1.4-0.4-0.7-0.2-1.5-0.2-0.2 0-0.4 0.1-0.2 0.1-0.3 0.2-0.1 0.1-0.2 0.3-0.1 0.2-0.1 0.4-0.1 1.2 0.3 2.3 0.3 1.1 1 2 0.7 1 1.7 1.6 1 0.6 2.1 0.9 0-0.1 0-0.2 0-0.1-0.1-0.2 0-0.1 0-0.2 0-0.1 0-0.2z"/>
	</g>
</svg>