<svg version="1.2" xmlns="http://www.w3.org/2000/svg" viewBox="0 0 497 432" width="497" height="432">
	<title>shipment-svg</title>
	<g id="Layer">
		<path id="Layer" fill-rule="evenodd" fill="currentColor" d="m113 0h112v80h48v80h23.6l4.9-4.6c2.6-2.6 7.8-6 11.4-7.8l6.6-3.1h104l6.7 3.2c12.8 6 20.2 15.8 23.1 30.3 0.9 4.1 3.7 20.4 6.3 36.1l4.7 28.6 7.4 3.7c12.8 6.3 20.7 15.4 23.8 27.2 2 7.7 2.2 87.2 0.3 93.8-1.6 5.5-9.9 13.8-15.4 15.4-2.4 0.7-10 1.2-18 1.2h-14l-1.7 6.8c-4.6 17.8-18.8 32.4-37.7 38.8-7.6 2.6-24.4 2.6-32 0-13.4-4.5-23.7-12.4-31-23.8-3.8-5.7-8-16.4-8-20 0-1.7-3.3-1.8-72.8-1.8h-72.8l-1.7 6.8c-4.6 17.8-18.8 32.4-37.7 38.8-7.6 2.6-24.4 2.6-32 0-13.4-4.5-23.7-12.4-31-23.8-3.8-5.7-8-16.4-8-20 0-1.7-1.5-1.8-22.1-1.8-14.5 0-23.6-0.4-26.3-1.2-5.5-1.6-13.8-9.9-15.4-15.4-0.8-2.9-1.2-15.1-1.2-41.7v-37.5l-3.5-0.6c-4.3-0.8-9.4-5-11.1-9.3-1.9-4.4-1.9-24.2 0-28.6 1.7-4.3 6.8-8.5 11.1-9.3l3.5-0.6v-79.8h48v-80h48zm32 16h-16v64h80v-64h-16v32h-48zm32 0h-16v16h16zm-80 80h-16v64h80v-64h-16v32h-48zm32 0h-16v16h16zm64 0h-16v64h80v-64h-16v32h-48zm32 0h-16v16h16zm96 65.3c-4.9 1.6-13.3 10.2-14.8 15.3-0.9 3.1-1.2 27.2-1.2 97.8v93.6h16l0.2-90.9c0.3-90.1 0.3-91 2.4-93.7 1.1-1.5 3.3-3.7 4.8-4.8 2.6-2 4.2-2.1 41.9-2.4 21.6-0.2 40.6 0 42.4 0.3 3.8 0.7 8.8 4.6 10.7 8.4 0.8 1.4 3.2 12.6 5.5 24.7l4.1 22.2v105l3.7 4.4c4.3 5.1 8.8 14.4 10.5 21.6l1.3 5.2h13.8c13.3 0 13.9-0.1 16.2-2.5 2.4-2.3 2.5-3.1 2.5-13.4v-11.1l-32-16v-37h32v-3.8c0-6-2.8-12.8-7-16.9-2.1-2.1-8.3-6-13.9-8.8-7-3.4-10.3-5.6-10.6-7-0.3-1.1-3.2-18.4-6.5-38.3-4-24-6.7-37.7-8-40.2-2.5-4.9-8.9-10.4-13.9-11.8-5.2-1.6-95.1-1.5-100.1 0.1zm-272 14.7h-16v64h80v-64h-16v32h-48zm32 0h-16v16h16zm64 0h-16v64h80v-64h-16v32h-48zm32 0h-16v16h16zm64 0h-16v64h64v-32h-48zm32.6 0h-16.6v16h32v-6.4c0-3.5 0.3-7.1 0.6-8 0.5-1.4-1.3-1.6-16-1.6zm135.9 16.5l-36.3-0.3-36.2-0.2v64h18.1c14.1 0 18-0.3 17.5-1.3-5.5-13.2-4.3-22.1 3.8-28.1 2.5-1.9 4.4-2.1 20.7-2.4 16-0.3 17.9-0.5 17.8-2 0-0.9-1.2-8-2.7-15.7zm7.5 47.5h-32.2l0.6 3.2c0.7 3.9 3.1 7.4 7 10.2 2.3 1.8 4.5 2.2 13.7 2.4l10.9 0.4zm-128 16h-272v16h272zm128 16h-80l0.1 48.2c0 44.5 0.1 47.9 1.5 42.8 5.3-19.8 18.6-33.8 38.4-40.6 8-2.7 25.3-2.5 33.4 0.4 3.3 1.2 6.1 2.2 6.3 2.2 0.1 0 0.3-11.9 0.3-26.5zm-128 16h-256v16h25c13.8 0 25 0.3 25 0.7 0 0.5-2.7 11.1-5.8 23.8l-5.8 23-19.2 0.3-19.2 0.2v5.6c0 4.5 0.4 5.9 2.5 7.9l2.4 2.5h22.1c20.5 0 22-0.1 22-1.8 0-3.6 4.2-14.3 8-20 7.3-11.4 17.6-19.3 31-23.8 7.6-2.6 24.4-2.6 32 0 18.9 6.4 33.1 21 37.7 38.8l1.7 6.8h96.6zm192 16h-16v11l16 8zm-418.2 16h-29.8v16h25.8zm76.4 16.4c-9.1-0.4-13.5 0.6-21.3 4.8-7.5 3.9-13.2 10.1-17.2 18.6-2.9 6.1-3.2 7.6-3.2 16.3 0 9 0.2 9.9 3.7 17.1 4.5 9.1 10.3 14.7 19.6 19.1 6.1 2.9 7.6 3.2 16.2 3.2 8.6 0 10.1-0.3 16.2-3.2 9.3-4.4 15.1-10 19.6-19.1 3.5-7.2 3.7-8.1 3.7-17.2 0-9.1-0.2-10-3.7-17.2-4.5-9-10.3-14.8-19.4-19-5-2.3-8.1-3.1-14.2-3.4zm256 0c-9.1-0.4-13.5 0.6-21.3 4.8-7.5 3.9-13.2 10.1-17.2 18.6-2.9 6.1-3.2 7.6-3.2 16.3 0 9 0.2 9.9 3.7 17.1 4.5 9.1 10.3 14.7 19.6 19.1 6.1 2.9 7.6 3.2 16.2 3.2 8.6 0 10.1-0.3 16.2-3.2 9.3-4.4 15.1-10 19.6-19.1 3.5-7.2 3.7-8.1 3.7-17.2 0-9.1-0.2-10-3.7-17.2-4.5-9-10.3-14.8-19.4-19-5-2.3-8.1-3.1-14.2-3.4z"/>
		<path id="Layer" fill-rule="evenodd" fill="currentColor" d="m154.3 360c9.3 10.3 9 22.8-0.8 32.5-10.1 10.2-22.9 10.2-33 0-7.1-7-9.1-14.5-6.3-23.9 1.5-5.1 9.9-13.7 14.8-15.3 9.5-3 18.8-0.5 25.3 6.7zm-17.3 8c-1.9 0-4 0.9-5.5 2.5-1.6 1.5-2.5 3.6-2.5 5.5 0 1.9 0.9 4 2.5 5.5 1.5 1.6 3.6 2.5 5.5 2.5 7 0 10.5-8.6 5.5-13.5-1.5-1.6-3.6-2.5-5.5-2.5z"/>
		<path id="Layer" fill-rule="evenodd" fill="currentColor" d="m410.3 360c9.3 10.3 9 22.8-0.8 32.5-10.1 10.2-22.9 10.2-33 0-7.1-7-9.1-14.5-6.3-23.9 1.5-5.1 9.9-13.7 14.8-15.3 9.5-3 18.8-0.5 25.3 6.7zm-17.3 8c-4.1 0-8 3.9-8 8 0 4.1 3.9 8 8 8 7 0 10.5-8.6 5.5-13.5-1.5-1.6-3.6-2.5-5.5-2.5z"/>
	</g>
</svg>