<?xml version="1.0" encoding="UTF-8"?>
<svg version="1.1" viewBox="0 0 1600 1280" width="1280" height="1280" xmlns="http://www.w3.org/2000/svg">
<path transform="translate(460 146)" d="m0 0c1.7-0.00151 1.7-0.00151 3.44-0.00305 20.4 0.0121 40.5 0.938 60.7 3.25 1.27 0.145 2.54 0.289 3.85 0.438 82.4 9.73 161 36.3 224 91.9 1.36 1.19 2.73 2.37 4.12 3.54 1.11 0.942 1.11 0.942 2.24 1.9 0.67 0.563 1.34 1.13 2.03 1.71 1.47 1.48 1.47 1.48 1.47 3.48 0.897 0.433 0.897 0.433 1.81 0.875 2.19 1.12 2.19 1.12 5.19 3.12 0.846-0.857 1.69-1.71 2.56-2.6 5.97-6.03 11.9-11.9 18.4-17.4 0.882-0.782 1.76-1.56 2.67-2.37 58.1-51.2 137-74.2 212-83.8 1.2-0.155 2.4-0.31 3.64-0.469 21.8-2.66 43.6-3.72 65.6-3.66 1.21 0.00182 2.43 0.00365 3.68 0.00552 20.8 0.0523 41.4 0.87 62 3.31 0.714 0.0825 1.43 0.165 2.16 0.25 39.9 4.64 79.7 13.6 118 26.6 0.766 0.262 1.53 0.524 2.32 0.793 6.38 2.3 11.8 4.96 14.8 11.3 3.87 12.5 0.567 29.1 0 42 0.691 0.115 1.38 0.23 2.09 0.348 23.7 3.98 47 9.24 70.3 15.3 1.91 0.499 3.81 0.993 5.72 1.49 9.83 2.62 18.2 4.93 24.9 12.8 1.21 3.62 1.14 6.92 1.13 10.7 0.0012 0.783 0.00239 1.57 0.00363 2.37 0.00158 2.61-0.00524 5.22-0.0131 7.83-0.00134 0.907-0.00268 1.81-0.00406 2.75-0.0343 20.8-0.486 41.5-0.984 62.3-0.219 9.24-0.423 18.5-0.629 27.7-0.0228 1.02-0.0455 2.03-0.069 3.08-0.401 17.9-0.699 35.9-0.935 53.8-0.363 27.4-0.947 54.8-1.57 82.2-0.667 29.4-1.23 58.9-1.57 88.4-0.148 12.9-0.361 25.8-0.83 38.7-0.478 13.2-0.776 26.4-1.04 39.6-0.0206 1.04-0.0411 2.09-0.0623 3.17-0.149 7.58-0.294 15.2-0.438 22.7-0.164 8.63-0.33 17.3-0.5 25.9-0.0204 1.04-0.0409 2.09-0.0619 3.16-0.276 14-0.635 27.9-1.1 41.9-0.366 11.1-0.565 22.1-0.725 33.2-0.387 26.3-1.06 52.5-1.82 78.8-0.438 15.3-0.842 30.5-1.04 45.8-0.0262 1.86-0.0262 1.86-0.0529 3.77-0.0794 5.73-0.145 11.5-0.183 17.2-0.0248 2-0.0502 4-0.0762 6-5.29e-5 1.32-5.29e-5 1.32-1.07e-4 2.66-0.12 7.4-1.22 14.3-6.57 19.7-3.67 3.28-8.12 3.64-12.9 3.5-4.43-0.858-8.69-2.18-13-3.5-2.61-0.755-5.21-1.5-7.82-2.24-0.672-0.19-1.34-0.381-2.04-0.577-32-8.97-65.4-13.3-98.5-16.9-0.702-0.0771-1.4-0.154-2.13-0.234-4.34-0.471-8.69-0.896-13-1.29-1.76-0.159-3.52-0.324-5.28-0.493-19.8-1.87-39.5-2.08-59.3-2.05-3.55 0.00461-7.09-0.00225-10.6-0.0205-24.3-0.124-48.1 0.858-72.3 3.34-1.07 0.107-2.15 0.214-3.25 0.324-5.95 0.597-11.9 1.26-17.8 1.99-0.858 0.104-1.72 0.207-2.6 0.314-63.6 7.72-137 22.2-191 58.4-0.46 2.22-0.46 2.22-0.406 4.8-0.0195 0.97-0.039 1.94-0.0591 2.94-0.0114 1.03-0.0229 2.07-0.0347 3.13-0.533 18.2-5.17 34.8-18.5 48.1h-2v2c-17.7 15.8-37.6 17.5-60.2 17.3-3.45-0.0237-6.9-0.0205-10.3-0.0139-2.22-0.00558-4.45-0.0127-6.67-0.0215-1.52 0.00137-1.52 0.00137-3.08 0.00276-9.96-0.0973-19-1.33-27.9-6.05-0.688-0.358-1.38-0.716-2.08-1.08-4.96-2.63-9.53-5.41-13.7-9.17-0.723-0.62-1.45-1.24-2.19-1.88-13.4-12.3-19.3-29.1-20.1-46.9-0.0854-2.06-0.167-4.12-0.246-6.19-0.0648-1.59-0.0648-1.59-0.131-3.21-0.105-2.59-0.207-5.19-0.307-7.79-32.1-17-66.4-29.5-102-38.4-2.29-0.582-4.56-1.2-6.84-1.82-38.1-10.3-77.5-14.4-117-17.9-1.14-0.104-1.14-0.104-2.3-0.211-13.3-1.17-26.5-1.78-39.8-1.79-1.52-0.00323-3.04-0.0066-4.56-0.0101-3.17-0.00593-6.34-0.00785-9.5-0.00725-3.18 8.06e-5 -6.36-0.00677-9.53-0.0205-29.5-0.125-58.5 1.49-87.8 4.96-1.66 0.194-1.66 0.194-3.35 0.391-19.8 2.32-39.4 5.14-59 8.86-1.62 0.307-1.62 0.307-3.27 0.62-9.2 1.79-18.3 3.92-27.3 6.51-0.651 0.185-1.3 0.37-1.97 0.561-3.2 0.912-6.39 1.84-9.57 2.81-7.38 2.15-14.1 4.07-21.3 0.268l-1.6-1.52-1.65-1.48c-3.17-3.97-3.71-8.16-4-13.1-0.11-1.86-0.11-1.86-0.223-3.76-0.304-6.44-0.516-12.9-0.684-19.3-0.0405-1.48-0.0811-2.95-0.122-4.43-0.108-3.96-0.212-7.91-0.314-11.9-0.0648-2.5-0.131-5-0.197-7.5-0.624-23.6-1.09-47.2-1.39-70.9-0.327-25.3-0.895-50.7-1.54-76-0.662-26-1.23-51.9-1.59-77.9-0.146-10.3-0.343-20.5-0.688-30.8-0.538-16.1-0.833-32.1-1.05-48.2-0.0243-1.79-0.0243-1.79-0.0491-3.62-0.0685-5.06-0.137-10.1-0.205-15.2-0.562-41.7-1.27-83.4-2.34-125-0.0219-0.855-0.0438-1.71-0.0663-2.59-0.453-17.7-0.924-35.3-1.41-53-0.215-7.81-0.427-15.6-0.637-23.4-0.0203-0.757-0.0407-1.51-0.0616-2.29-0.633-23.6-1.12-47.3-1.46-70.9-0.0104-0.7-0.0209-1.4-0.0316-2.12-0.125-8.41-0.229-16.8-0.307-25.2-0.0415-3.81-0.105-7.62-0.169-11.4-0.0285-2.45-0.0562-4.9-0.083-7.35-0.0237-1.12-0.0474-2.24-0.0719-3.39-0.0503-6.81 0.396-11.6 5.35-16.7 9.33-5.95 20.7-8.23 31.3-11.1 0.875-0.236 1.75-0.472 2.65-0.715 21.1-5.67 42.5-9.97 64-14.1 0.00935-1.21 0.0187-2.42 0.0283-3.67 0.04-4.51 0.106-9.01 0.179-13.5 0.0282-1.95 0.0494-3.9 0.0635-5.84 0.0215-2.81 0.0682-5.61 0.12-8.42 0.00123-0.866 0.00246-1.73 0.00372-2.62 0.131-5.44 0.976-8.62 4.61-12.9 34.5-24.9 99.1-30.1 140-34.7 1.08-0.12 2.17-0.239 3.29-0.362 17.7-1.83 35.3-2.19 53-2.2zm-164 58.3c-0.902 0.362-1.8 0.725-2.73 1.1-0.689 0.277-1.38 0.555-2.09 0.841-0.056 16 0.0875 32 0.402 47.9 0.0424 2.24 0.0845 4.48 0.126 6.72 0.0885 4.72 0.178 9.44 0.269 14.2 0.237 12.3 0.466 24.7 0.695 37 0.0226 1.22 0.0453 2.44 0.0686 3.7 0.281 15.2 0.546 30.4 0.76 45.7 0.0111 0.79 0.0222 1.58 0.0336 2.39 0.108 7.73 0.209 15.5 0.304 23.2 0.184 14.5 0.464 29 0.807 43.5 0.404 17.1 0.74 34.2 1.04 51.3 0.0206 1.19 0.0411 2.38 0.0623 3.61 0.148 8.56 0.293 17.1 0.438 25.7 0.165 9.76 0.332 19.5 0.5 29.3 0.0206 1.2 0.0412 2.4 0.0625 3.64 0.246 14.3 0.531 28.6 0.875 42.8 0.492 20.5 0.774 41 1.03 61.5 0.354 28.6 0.787 57.1 1.29 85.7 0.0164 0.935 0.0329 1.87 0.0498 2.83 0.199 11.3 0.401 22.6 0.604 34 0.176 9.79 0.349 19.6 0.522 29.4 0.354 20 0.711 40 1.07 60 4.78-0.575 9.33-1.21 14-2.42 1.68-0.423 1.68-0.423 3.39-0.854 1.19-0.302 2.38-0.604 3.61-0.915 23.1-5.69 46.4-10 70-12.8 0.791-0.0976 1.58-0.195 2.4-0.296 20.4-2.51 40.9-2.88 61.4-2.83 3.16 0.00537 6.33 5.32e-6 9.49-0.00635 19.5-0.00829 38.9 0.462 58.2 2.89 0.712 0.0871 1.42 0.174 2.16 0.264 55.9 6.86 111 20.2 161 47 0.732 0.39 1.46 0.781 2.22 1.18 20.6 11.1 39.5 24.6 57.3 39.8 2.23 2.21 2.23 2.21 4.5 2 0.137-61.4 0.264-123 0.339-184 0.00166-1.36 0.00166-1.36 0.00335-2.75 0.0239-19.7 0.0461-39.5 0.0664-59.2 0.00998-9.68 0.0204-19.4 0.0309-29 0.00157-1.44 0.00157-1.44 0.00317-2.92 0.0341-31.2 0.0942-62.4 0.168-93.6 0.0755-32.1 0.125-64.1 0.141-96.2 0.00231-4.53 0.00491-9.06 0.0077-13.6 5.39e-4 -0.891 0.00108-1.78 0.00163-2.7 0.00946-14.4 0.0466-28.7 0.094-43.1 0.0471-14.4 0.0651-28.9 0.0534-43.3-0.00609-8.57 0.0102-17.1 0.0584-25.7 0.03-5.73 0.0309-11.5 0.00827-17.2-0.0121-3.26-0.00715-6.53 0.0244-9.79 0.0321-3.52 0.0148-7.04-0.0147-10.6 0.0315-1.51 0.0315-1.51 0.0637-3.06-0.155-8.16-3.53-12.5-9.05-18.2-0.768-0.817-1.54-1.63-2.33-2.48-1.84-1.93-3.63-3.81-5.67-5.52h-2v-2c-2-1.9-2-1.9-4.62-3.94-1.02-0.81-2.03-1.62-3.08-2.45-0.543-0.429-1.09-0.857-1.65-1.3-1.6-1.27-3.18-2.56-4.76-3.86-73.2-59.6-173-79.7-424-52.4zm598 6.94c-0.743 0.3-1.49 0.599-2.25 0.908-11.3 4.61-22 10.2-32.7 16.1-0.663 0.363-1.33 0.725-2.01 1.1-24.8 13.6-55.9 33.7-72 57.9-0.363 1.98-0.363 1.98-0.41 4.18-0.0381 0.846-0.0763 1.69-0.116 2.56-0.0304 0.923-0.0608 1.85-0.0921 2.8-0.0376 0.976-0.0753 1.95-0.114 2.96-0.418 11.9-0.404 23.9-0.389 35.8-4.37e-4 2.59-0.00131 5.19-0.00259 7.78-0.00205 5.6-4.64e-4 11.2 0.00364 16.8 0.00608 8.32 0.00633 16.6 0.00546 25-0.00131 14 0.00201 28 0.00802 42 0.00593 13.9 0.00977 27.7 0.0109 41.6 6.87e-5 0.864 1.37e-4 1.73 2.08e-4 2.62 3.38e-4 4.39 6.4e-4 8.77 9.27e-4 13.2 0.0021 31 0.00882 62 0.0183 93 0.00919 30.1 0.0163 60.2 0.0205 90.3 1.32e-4 0.929 2.63e-4 1.86 3.99e-4 2.82 0.00132 9.33 0.00259 18.7 0.00384 28 0.00254 19 0.00536 38 0.00835 57 1.37e-4 0.874 2.75e-4 1.75 4.16e-4 2.65 0.00919 58.3 0.0251 117 0.0419 175 3.68-0.788 5.41-2 8.16-4.61 4.54-4.17 9.27-7.95 14.2-11.6 0.86-0.643 1.72-1.29 2.61-1.95 8.71-6.43 17.7-12.2 27-17.8l1.85-1.13c51.9-31.5 113-46 173-53.2 1.01-0.122 1.01-0.122 2.03-0.247 20.1-2.4 40.2-2.65 60.4-2.63 1.78 9.06e-4 1.78 9.06e-4 3.6 0.00183 18.4 0.0254 36.7 0.359 55.1 2.19 1.27 0.124 2.55 0.247 3.86 0.375 30.3 3.01 60.3 8.41 89.8 16.1 2.77 0.647 5.56 1.09 8.37 1.55 0.466-24.5 0.928-48.9 1.38-73.4 0.0355-1.9 0.0709-3.8 0.106-5.7 1.23-65.4 1.23-65.4 2.07-131 0.266-27.4 0.813-54.8 1.51-82.2 0.741-29.4 1.17-58.7 1.43-88.1 0.289-32.9 0.858-65.7 1.7-98.6 0.109-4.26 0.218-8.51 0.326-12.8 0.0211-0.826 0.0422-1.65 0.0639-2.5 0.474-18.6 0.766-37.3 1.03-55.9 0.2-14.3 0.434-28.5 0.877-42.8 0.196-6.42 0.359-12.8 0.505-19.3 0.0302-1.31 0.0302-1.31 0.0611-2.64 0.128-5.73 0.222-11.5 0.28-17.2 0.0224-1.85 0.0535-3.7 0.0936-5.55 0.0535-2.55 0.0752-5.11 0.0888-7.66 0.0226-0.764 0.0452-1.53 0.0686-2.31 0.0472-2.37 0.0472-2.37-0.592-5.65-13.1-10.8-37.7-12.8-54.1-16.6-1.74-0.398-3.49-0.799-5.23-1.2-81.5-18.5-171-15.9-292 21.8zm-646 53.5c-0.716 0.156-1.43 0.312-2.17 0.473-2.34 0.514-4.68 1.04-7.02 1.56-1.19 0.265-1.19 0.265-2.41 0.536-24.7 4.67-24.7 4.67-48.1 13-0.117 25.1 0.158 50.2 0.775 75.3 0.112 4.62 0.219 9.24 0.327 13.9 0.204 8.75 0.413 17.5 0.623 26.3 0.418 17.4 0.828 34.8 1.24 52.2 0.0663 2.82 0.133 5.64 0.2 8.47 0.596 25.3 1.13 50.6 1.5 75.9 0.163 10.9 0.405 21.7 0.744 32.6 0.641 20.6 1.02 41.1 1.38 61.7 0.12 6.81 0.244 13.6 0.367 20.4 0.329 18.2 0.655 36.3 0.978 54.5 0.275 15.4 0.552 30.8 0.834 46.2 0.0211 1.16 0.0423 2.32 0.0641 3.51 0.629 34.4 1.39 68.8 2.32 103 0.0804 3 0.161 6 0.241 9 0.019 0.711 0.0381 1.42 0.0577 2.16 0.454 17.1 0.76 34.1 0.956 51.2 0.0432 3.65 0.0927 7.29 0.141 10.9 0.0913 6.91 0.177 13.8 0.258 20.7 6.17-0.603 12.1-1.54 18.2-2.86 1.78-0.377 3.56-0.753 5.34-1.13 0.926-0.197 1.85-0.393 2.81-0.596 30.7-6.49 61.4-11.6 92.7-14.4 1.54-0.146 1.54-0.146 3.11-0.296 29.8-2.8 60-3.08 89.9-2.7 1.21 0.0126 2.42 0.0251 3.67 0.0381 38.7 0.498 77.1 4.87 115 11 1.25 0.197 2.51 0.393 3.8 0.596 50.2 8.05 99.7 23.7 146 45.6 1.17 0.558 2.34 1.12 3.55 1.69 23.8 11.6 23.8 11.6 28.1 20.1 0.121 2.5 0.186 4.97 0.211 7.46 0.0281 1.54 0.0568 3.08 0.0859 4.62 0.0409 2.42 0.0778 4.83 0.104 7.25 0.169 14.1 0.914 26.8 11.3 37.4 10.7 8.99 24.3 8.89 37.5 8.77 2.78-0.0215 5.57-1.03e-4 8.35 0.0254 13.1 0.0213 25.2-0.724 35.6-9.62 7.99-8.24 9.94-17.7 10-28.9 0.0238-1.3 0.0477-2.6 0.0723-3.94 0.0351-2.03 0.0645-4.07 0.0779-6.1 0.114-14.6 0.114-14.6 4.67-20 2.29-1.87 4.71-3.28 7.31-4.69 0.739-0.414 1.48-0.829 2.24-1.26 2.47-1.37 4.96-2.72 7.45-4.06 0.877-0.482 1.75-0.963 2.66-1.46 14.4-7.89 29.1-14.5 44.3-20.5 1.68-0.682 3.37-1.36 5.05-2.05 55.5-22.2 116-33.9 176-38.8 1.61-0.139 3.22-0.287 4.83-0.441 20.8-2 41.6-2.1 62.6-2.07 3.89 0.0046 7.77-0.00218 11.7-0.0205 21.2-0.0988 42.3 0.211 63.4 1.72 0.869 0.0616 1.74 0.123 2.63 0.187 38.1 2.76 76.7 8.41 114 17.7 0.956 0.238 1.91 0.476 2.9 0.721 1.23 0.318 1.23 0.318 2.48 0.643 2.28 0.519 2.28 0.519 5.09-0.674 0.0136-0.728 0.0272-1.46 0.0413-2.2 0.443-23.6 0.887-47.3 1.33-70.9 0.0257-1.36 0.0257-1.36 0.0518-2.75 0.886-46.9 1.79-93.8 2.81-141 0.0983-4.5 0.196-9 0.294-13.5 0.0191-0.879 0.0382-1.76 0.0579-2.66 0.323-14.9 0.618-29.9 0.903-44.8 0.0208-1.09 0.0415-2.18 0.0629-3.3 0.168-8.83 0.336-17.7 0.503-26.5 0.449-23.6 0.911-47.3 1.47-70.9 0.0333-1.4 0.0333-1.4 0.0673-2.83 0.208-8.75 0.42-17.5 0.641-26.2 0.486-19.3 0.86-38.5 1.16-57.8 0.351-22.7 0.789-45.4 1.35-68.1 0.0332-1.34 0.0664-2.68 0.0995-4.02 0.284-11.5 0.573-22.9 0.867-34.4 0.81-31.5 1.56-63 1.28-94.5-5.36-2.38-5.36-2.38-10.9-4.18-0.687-0.184-1.37-0.368-2.08-0.558-0.722-0.187-1.44-0.375-2.19-0.568-0.772-0.204-1.54-0.409-2.34-0.62-2.49-0.657-4.98-1.3-7.47-1.95-0.846-0.221-1.69-0.442-2.56-0.67-21.5-6.52-21.5-6.52-43.4-9.45-0.82 4.36-1.17 8.55-1.28 13-0.0275 1.03-0.0275 1.03-0.0555 2.07-0.06 2.3-0.113 4.61-0.166 6.91-0.0412 1.68-0.0825 3.36-0.124 5.04-0.541 22.6-0.865 45.2-1.21 67.8-0.091 5.88-0.184 11.8-0.277 17.6-0.186 11.7-0.371 23.4-0.554 35.2-0.0109 0.695-0.0217 1.39-0.0329 2.11-0.12 7.67-0.24 15.3-0.359 23-0.286 18.4-0.574 36.7-0.866 55.1-0.0321 2.01-0.0641 4.03-0.0961 6.04-0.651 40.9-1.41 81.9-2.32 123-0.079 3.55-0.158 7.1-0.236 10.6-0.0187 0.844-0.0374 1.69-0.0567 2.56-0.384 17.5-0.638 34.9-0.857 52.4-0.371 28.8-0.971 57.7-1.64 86.5-0.477 20.7-0.913 41.4-1.15 62.2-0.02 1.73-0.04 3.46-0.0601 5.18-0.0828 7.27-0.159 14.5-0.211 21.8-0.0226 2.9-0.0525 5.81-0.0842 8.71-0.0186 1.96-0.027 3.91-0.035 5.87-0.162 14-0.162 14-4.7 19.4-4.26 3.55-7.29 4.64-12.9 4.5-5.55-0.653-10.8-2.59-16.1-4.32-44.8-14.1-92.4-22.1-139-22.2-1.37-0.00323-2.75-0.0066-4.12-0.0101-2.86-0.00593-5.72-0.00785-8.58-0.00725-2.87 8.07e-5 -5.74-0.00679-8.62-0.0205-24.4-0.114-48.5 0.956-72.6 4.39-0.746 0.104-1.49 0.209-2.26 0.316-46.6 6.59-92.4 20.5-134 42.5-0.927 0.483-0.927 0.483-1.87 0.977-16.7 8.79-33 19.5-47.1 32-1.14 0.98-1.14 0.98-2.31 1.98-5.64 4.94-11 10.2-16.3 15.5-0.724 0.711-1.45 1.42-2.19 2.15-1.01 1-1.01 1-2.03 2.03-0.607 0.603-1.21 1.21-1.84 1.83-1.52 1.47-1.52 1.47-1.31 3.55h-2c-1.63 1.69-1.63 1.69-3.31 3.81-5.77 6.69-5.77 6.69-10.7 7.53-5.14 0.351-8.76-0.604-13-3.56-3.2-2.85-5.7-6.19-8.33-9.55-8.26-10.3-18.3-19.2-28.7-27.2-1.16-0.957-1.16-0.957-2.34-1.93-67.6-55.8-161-75.5-312-74.9-36.8 3.65-72.2 11.2-108 21.8-14.7 4.36-14.7 4.36-22.7 0.146-4.76-4.07-5.07-8.15-5.56-14.2-0.159-4.43-0.219-8.86-0.26-13.3-0.0214-2.28-0.0484-4.57-0.0767-6.85-0.0494-4.07-0.0939-8.14-0.137-12.2-0.076-7.18-0.157-14.4-0.245-21.5-0.00972-0.802-0.0194-1.6-0.0294-2.43-0.137-11-0.377-22.1-0.721-33.1-0.466-15-0.769-30-1.03-44.9-0.0309-1.76-0.0309-1.76-0.0624-3.55-0.127-7.28-0.252-14.6-0.375-21.8-0.185-10.9-0.373-21.8-0.562-32.7-0.0206-1.19-0.0411-2.38-0.0623-3.61-0.247-14.3-0.535-28.5-0.886-42.8-0.453-18.5-0.729-37-0.946-55.5-0.0164-1.39-0.0328-2.78-0.0493-4.18-0.0596-5.06-0.119-10.1-0.178-15.2-0.778-66.6-1.9-133-3.24-200-0.158-7.91-0.314-15.8-0.469-23.7-0.21-10.7-0.426-21.4-0.646-32.1-0.0816-3.98-0.161-7.95-0.239-11.9-0.0904-4.6-0.185-9.2-0.283-13.8-0.035-1.67-0.0685-3.35-0.1-5.02-0.0436-2.27-0.0926-4.55-0.143-6.82-0.026-1.27-0.052-2.53-0.0787-3.84-0.157-2.88-0.52-5.5-1.18-8.3-3.95 0-7.42 0.621-11.2 1.47z" fill="#000100"/>
<path transform="translate(521,273)" d="m0 0c3.62 1.52 6.98 3.41 10.4 5.38 1.45 0.813 1.45 0.813 2.92 1.64 2.91 1.64 5.81 3.31 8.7 4.98 1.25 0.719 1.25 0.719 2.52 1.45 6.66 3.86 13.3 7.81 19.9 11.8 3.2 1.93 6.43 3.76 9.72 5.53 5.71 3.1 11.4 6.27 17 9.47 1 0.567 2.01 1.13 3.04 1.72 6.48 3.67 12.9 7.41 19.3 11.2 4.08 2.41 8.18 4.77 12.3 7.08 1.52 0.852 1.52 0.852 3.07 1.72 1.97 1.1 3.95 2.2 5.93 3.29 20.4 11.4 20.4 11.4 23.2 19.7 0.0957 2.02 0.131 4.03 0.134 6.05 0.00426 1.27 0.00853 2.53 0.0129 3.84-3.5e-4 1.41-8.11e-4 2.81-0.00137 4.22 0.00299 1.48 0.00639 2.96 0.0102 4.44 0.00884 4.02 0.0112 8.04 0.0118 12.1 9.49e-4 3.35 0.00463 6.71 0.00817 10.1 0.00815 7.92 0.0106 15.8 0.00987 23.7-6.01e-4 8.16 0.00995 16.3 0.0257 24.5 0.0131 7.01 0.0184 14 0.0178 21-2.55e-4 4.19 0.00259 8.37 0.0132 12.6 0.00969 3.94 0.00975 7.88 0.00248 11.8-0.00104 1.44 0.00131 2.89 0.00736 4.33 0.00774 1.97 0.00187 3.95-0.00463 5.92 5.45e-4 1.1 0.00109 2.21 0.00165 3.35-0.52 6.46-2.79 10.4-7.25 15.1-2.79 1.99-2.79 1.99-6.06 3.88-0.943 0.548-0.943 0.548-1.91 1.11-2.34 1.35-4.68 2.68-7.03 4.02-2.1 1.2-4.2 2.41-6.3 3.61-4.78 2.74-9.57 5.47-14.4 8.2-15.1 8.62-30.2 17.3-45.2 26.1-12.4 7.25-24.8 14.4-37.3 21.5-1.67 0.956-3.33 1.92-4.98 2.91-3.22 1.93-5.93 3.28-9.69 3.69-0.761 0.103-1.52 0.206-2.3 0.312-8.55-0.947-16.5-6.87-23.8-11.1-1.73-1.01-3.46-2.01-5.19-3.02-1.78-1.04-3.57-2.08-5.35-3.12-5.5-3.2-11-6.38-16.5-9.55-2.16-1.25-4.33-2.5-6.49-3.75-4.36-2.51-8.72-5.03-13.1-7.54-13.6-7.83-27.2-15.7-40.7-23.6-2.58-1.51-5.16-3.01-7.74-4.51-1.51-0.88-3.02-1.76-4.53-2.64-0.99-0.572-0.99-0.572-2-1.16-13-7.6-13-7.6-15.4-13.3-1.19-6.2-1.12-12.3-1.07-18.6 0.00443-1.14 0.00887-2.28 0.0134-3.45 0.00964-2.42 0.0213-4.85 0.0349-7.27 0.0185-3.58 0.0282-7.17 0.0343-10.8 0.0249-14.4 0.0878-28.8 0.169-43.3 0.0401-7.22 0.0724-14.4 0.0871-21.7 0.013-6.38 0.0399-12.8 0.0836-19.1 0.0225-3.35 0.0362-6.71 0.0373-10.1 0.00236-3.72 0.0293-7.43 0.0622-11.2-0.00503-1.1-0.0101-2.19-0.0152-3.32 0.0835-6.08 0.45-9.72 4.56-14.3 2.26-1.7 4.39-3.14 6.81-4.56 0.693-0.42 1.39-0.84 2.1-1.27 7.87-4.72 15.9-9.19 23.9-13.7 6.47-3.63 12.9-7.34 19.3-11.1 7.86-4.55 15.7-9.07 23.6-13.6 8.23-4.69 16.4-9.48 24.5-14.3 5.32-3.17 10.7-6.2 16.1-9.14 2.24-1.22 4.46-2.47 6.68-3.73 1.21-0.68 2.43-1.36 3.64-2.04 0.911-0.532 0.911-0.532 1.84-1.07 4.38-2.42 7.45-3.31 12.4-2.55zm-10.1 39.1c-0.811 0.469-1.62 0.938-2.46 1.42-0.875 0.518-1.75 1.04-2.65 1.57-1.38 0.804-1.38 0.804-2.79 1.62-2.99 1.74-5.97 3.5-8.96 5.25-1.99 1.16-3.99 2.33-5.98 3.49-3.02 1.76-6.04 3.52-9.06 5.29-6.54 3.83-13.1 7.6-19.7 11.3-9.6 5.46-19.1 11.1-28.5 16.9-1.22 0.721-2.46 1.39-3.73 2.02v2c1.93 1.44 3.84 2.73 5.88 4 0.629 0.398 1.26 0.796 1.9 1.21 5.51 3.44 11.2 6.6 16.8 9.71 6.46 3.54 12.8 7.23 19.2 11 8.66 5.07 17.3 10.1 26.1 15 3.68 2.09 7.33 4.18 10.9 6.41 1.06 0.652 2.11 1.3 3.2 1.98 0.866 0.553 1.73 1.11 2.62 1.68 3.01 1.28 4.24 0.876 7.38 0.0117 2.59-1.23 2.59-1.23 5.23-2.82 1.02-0.591 2.04-1.18 3.08-1.79 1.09-0.645 2.19-1.29 3.31-1.95 1.16-0.676 2.31-1.35 3.47-2.02 9.36-5.46 18.7-11 28-16.5 8.32-4.94 16.7-9.75 25.2-14.4 6.41-3.58 12.6-7.43 18.8-11.4-3.01-3.27-6.09-5.42-9.93-7.65-0.575-0.336-1.15-0.672-1.74-1.02-1.88-1.1-3.76-2.18-5.64-3.27-1.32-0.766-2.64-1.53-3.95-2.3-8.66-5.03-17.4-9.96-26.1-14.9-8.99-5.05-17.8-10.3-26.7-15.6-1.08-0.645-2.16-1.29-3.27-1.95-0.953-0.572-1.91-1.14-2.89-1.73-8.22-4.92-8.22-4.92-16.9-2.47zm-103 78.9c-0.185 13.7-0.327 27.5-0.414 41.2-0.0418 6.38-0.0984 12.8-0.189 19.1-0.0869 6.15-0.135 12.3-0.156 18.5-0.0148 2.35-0.0437 4.7-0.0868 7.05-0.058 3.29-0.0661 6.57-0.0624 9.86-0.0288 0.973-0.0575 1.95-0.0872 2.95 0.0328 2.68 0.135 4.81 0.995 7.35 2.4 2.32 4.97 3.65 8 5 0.868 0.509 1.74 1.02 2.63 1.54 0.755 0.426 1.51 0.851 2.29 1.29 0.855 0.485 1.71 0.969 2.59 1.47 0.883 0.499 1.77 0.998 2.68 1.51 6.97 3.96 13.9 7.98 20.6 12.3 2.74 1.65 5.5 3.19 8.31 4.71 5.97 3.23 11.8 6.64 17.7 10.1 2.1 1.23 4.21 2.46 6.31 3.69 5.75 3.36 5.75 3.36 8.31 4.86 1.98 1.16 3.96 2.31 5.94 3.45 1.06 0.616 2.12 1.23 3.21 1.87 2.26 1.41 2.26 1.41 4.41 1.26 0.558-13.6 0.983-27.2 1.24-40.7 0.125-6.31 0.294-12.6 0.567-18.9 2.73-26 2.73-26-4.06-49.9-5.43-5.19-11.4-7.55-18.6-9.44-5.34-1.64-9.9-4.59-14.7-7.47-1.9-1.08-3.8-2.15-5.71-3.21-12-6.78-23.9-13.7-35.7-20.8-0.926-0.56-1.85-1.12-2.81-1.7-1.75-1.06-3.5-2.13-5.24-3.2-0.772-0.469-1.54-0.938-2.34-1.42-1.01-0.62-1.01-0.62-2.04-1.25-1.66-1.03-1.66-1.03-3.68-0.879zm217 0c-2.63 1.24-2.63 1.24-5.62 3.09-0.57 0.338-1.14 0.676-1.73 1.02-1.24 0.734-2.47 1.47-3.7 2.21-1.96 1.18-3.93 2.35-5.9 3.52-2.03 1.2-4.05 2.41-6.08 3.61-6.35 3.78-12.7 7.48-19.2 11.2-1.05 0.603-2.09 1.21-3.17 1.83-3.21 1.85-6.43 3.7-9.64 5.55-3.53 2.03-7.05 4.06-10.6 6.09-2.21 1.27-4.42 2.54-6.62 3.81-1.51 0.87-1.51 0.87-3.05 1.76-0.871 0.502-1.74 1-2.64 1.52-1.54 0.901-1.54 0.901-3.11 1.82-1.21 0.556-1.21 0.556-2.45 1.12-5.25 2.52-5.25 2.52-8.46 7.12-0.323 2.77-0.328 5.39-0.225 8.17-0.00146 1.03-0.00292 2.07-0.00443 3.14 0.00695 3.41 0.0846 6.82 0.163 10.2 0.0187 2.37 0.0329 4.74 0.0429 7.1 0.0381 6.23 0.136 12.4 0.247 18.7 0.102 6.35 0.148 12.7 0.198 19.1 0.107 12.5 0.278 24.9 0.488 37.4 4.41-1.71 8.5-3.82 12.6-6.12 1.16-0.647 1.16-0.647 2.34-1.31 7.61-4.28 15.1-8.74 22.6-13.2 11.2-6.68 22.5-13.2 33.9-19.6 0.996-0.596 1.99-1.19 3.02-1.8 2.42-1.39 4.48-2.25 7.17-3.18 4.17-1.67 7.56-3.13 10.4-6.73 2.67-7.53 1.76-16.1 1.59-24-0.00368-2.37-0.00118-4.73 0.00723-7.1 0.00554-6.21-0.0726-12.4-0.168-18.6-0.0829-6.34-0.0865-12.7-0.0967-19-0.0318-12.4-0.152-24.9-0.328-37.3-0.99-0.495-0.99-0.495-2-1z" fill="#000100"/>
<path transform="translate(1137,342)" d="m0 0c1.17 0.138 1.17 0.138 2.36 0.279 5.6 0.67 11.2 1.4 16.8 2.16 0.724 0.0972 1.45 0.194 2.19 0.295 22.3 3.05 22.3 3.05 28.3 8.77 0.454 0.825 0.908 1.65 1.38 2.5 0.351 0.611 0.701 1.22 1.06 1.85 1.71 3.93 1.47 7.96 0.938 12.1-2.39 4.88-5.72 7.81-10 11-9.04 3.01-21.4-0.647-30.7-1.94-2.66-0.362-5.32-0.72-7.98-1.08-1.9-0.256-1.9-0.256-3.84-0.518-22.1-2.96-44.2-3.68-66.5-3.65-1.53 9.06e-4 -1.53 9.06e-4 -3.09 0.00183-74.2 0.118-145 15.1-211 48-4.37 2.06-7.65 2.49-12.5 2.16-6.11-2.2-9.59-6.06-12.4-11.9-1.01-5.03-0.498-9.2 1.62-13.9 11.1-14.3 35.1-20.4 51.5-26.9 2.71-1.08 5.4-2.17 8.1-3.27 34.9-13.9 73-21.1 110-25.8 1.98-0.251 3.96-0.51 5.94-0.769 42.1-5.29 86.1-4.49 128 0.505z" fill="#000100"/>
<path transform="translate(487 727)" d="m0 0c0.84 0.0442 1.68 0.0884 2.55 0.134 58.9 3.15 160 12.5 204 56.7 4.2 5.37 5.13 8.61 4.36 15.4-1.71 5.31-4.25 8.95-9 12-5.07 1.69-9.2 1.56-14-0.668-0.791-0.364-1.58-0.728-2.4-1.1-3.66-1.75-7.3-3.54-10.9-5.34-21.1-10.4-42.9-18.6-65.6-24.9-1.05-0.29-2.1-0.579-3.18-0.878-25.6-6.96-51.5-11.5-77.8-14.4-0.726-0.0814-1.45-0.163-2.2-0.247-18.5-2.04-36.9-2.68-55.5-2.69-1.04-6.75e-4 -2.08-0.00135-3.15-0.00204-28.3 0.0288-56.2 2.01-84.1 6.63-20 3.25-20 3.25-26-0.374-4.59-3.91-6.72-8.61-7.56-14.5 0.819-5.73 2.73-9.86 7-13.8 10.2-4.9 22-5.8 33.1-7.25 0.811-0.108 1.62-0.216 2.46-0.327 35.8-4.74 71.9-6.22 108-4.3z" fill="#000100"/>
<path transform="translate(1066 462)" d="m0 0c2.69 8.07e-5 5.39-0.00679 8.08-0.0205 24.4-0.115 48.6 0.9 72.8 4.33 2.29 0.323 4.58 0.629 6.87 0.934 26.1 3.55 26.1 3.55 31.9 8.94 3.59 4.73 4.76 8.55 4.52 14.5-1.13 5.42-4.75 8.88-8.71 12.5-10.2 3.63-23.2-0.156-33.6-1.71-24.6-3.63-49.1-4.67-74-4.61-2.22 0.00565-4.44 0.00846-6.66 0.0111-21.3 0.0365-42.4 0.383-63.5 3.31-1.34 0.179-2.67 0.358-4.01 0.536-47.2 6.4-93.5 18.4-136 40.1-0.847 0.423-1.69 0.845-2.57 1.28-1.6 0.803-3.19 1.62-4.77 2.47-5.43 2.72-9.62 3.23-15.5 1.65-4.29-2.1-7.1-5.53-9-9.88-1.79-5.85-0.93-10.2 1.71-15.6 14.8-24.9 79.2-37.3 106-44.1 21.7-5.36 43.7-9.14 65.9-11.7 0.704-0.0814 1.41-0.163 2.13-0.247 19.6-2.23 39-2.63 58.7-2.63z" fill="#000100"/>
<path transform="translate(695,713)" d="m0 0c3.47 5.03 3.87 10.1 3 16-2.49 4.99-5.99 8.5-11 11-8.4 1.22-14.3-1.54-21.6-5.38-2.23-1.11-4.46-2.22-6.69-3.33-1.12-0.558-2.24-1.12-3.39-1.69-77.5-37.8-171-45.8-295-32-5.44 0.937-9.67 1.26-14.7-1.28-4.07-3.5-7.36-7.02-8.69-12.3-0.0996-5.96 0.899-10.5 5-15 5.41-3.48 11-4.95 17.3-6 1.37-0.24 1.37-0.24 2.77-0.486 14.9-2.48 29.9-3.97 44.9-5.51 1.01-0.104 2.01-0.208 3.05-0.315 83.5-8.12 220-2.3 285 56.3z" fill="#000100"/>
<path transform="translate(1070 268)" d="m0 0c0.969 6.04e-4 1.94 0.00121 2.94 0.00183 32.8 0.055 66.2 1.68 98.4 8.19 0.717 0.142 1.43 0.283 2.17 0.429 6.21 1.39 11.1 3.62 15.1 8.7 2.22 4.47 2.36 9 1.56 13.9-2.49 4.99-5.99 8.5-11 11-10.1 0.748-19.9-0.804-29.9-2.38-24-3.76-47.6-4.98-71.8-4.94-3.11 0.00461-6.22-0.00222-9.33-0.0205-71.5-0.416-143 12.8-207 45.8-0.875 0.449-1.75 0.898-2.65 1.36l-2.33 1.21c-5.2 2.3-9.57 2.46-15 0.927-4.67-2.78-7.29-5.92-9.62-10.8-0.99-4.95-0.452-9.08 1.44-13.8 5.37-6.58 13.2-10.4 20.7-14.1 1.56-0.772 1.56-0.772 3.15-1.56 65.9-32 140-44 213-43.9z" fill="#000100"/>
<path transform="translate(1065 533)" d="m0 0c3.13 0.00534 6.26 2.66e-5 9.38-0.00635 20-0.00884 39.9 0.658 59.8 3.01 1.56 0.18 3.13 0.361 4.69 0.541 42.5 4.95 42.5 4.95 48.3 11.7 3.25 5.34 3.37 9.67 2.75 15.9-1.62 3.38-1.62 3.38-4 6-1.21 1.42-1.21 1.42-2.44 2.88-5.5 4.26-14.1 2.46-20.6 1.68-3.65-0.48-7.3-1.02-10.9-1.58-4-0.606-8.01-1.17-12-1.73-0.789-0.111-1.58-0.222-2.39-0.337-33-4.61-67.4-5.11-101-2.91-1.25 0.0823-2.5 0.165-3.78 0.25-22.3 1.56-44.2 4.74-66.2 8.75-1.12 0.204-2.23 0.407-3.38 0.617-34 6.39-68.4 17.8-99.1 33.7-0.717 0.369-1.43 0.737-2.17 1.12-1.32 0.687-2.64 1.39-3.94 2.1-5.7 2.99-10.8 4.22-17.1 2.41-4.32-2.53-7.04-5.4-9.31-9.94-0.494-5.4-0.708-10.3 1.44-15.4 23.5-24.1 70.2-34.3 102-42.6 1.16-0.308 2.33-0.616 3.53-0.934 15.6-4.05 31.2-7 47.1-9.38 0.821-0.123 1.64-0.247 2.49-0.374 25.6-3.81 51.1-5.5 77-5.44z" fill="#000100"/>
<path transform="translate(1098 727)" d="m0 0c1.3 0.0658 1.3 0.0658 2.62 0.133 20.4 1.05 40.6 2.93 60.8 5.99 0.989 0.146 1.98 0.291 3 0.441 17.5 2.83 17.5 2.83 22.5 8.75 3.43 5.26 3.76 9.66 2.88 15.9-2.05 4.36-4.88 7.19-8.75 10-8.82 2.71-18.4 0.396-27.3-1.02-10.6-1.68-21.2-3.28-31.9-4.23-1.14-0.101-1.14-0.101-2.3-0.205-2.59-0.21-5.18-0.382-7.77-0.545-0.642-0.0413-1.28-0.0826-1.94-0.125-12.8-0.807-25.6-1.08-38.4-1.06-0.957 2.72e-4 -1.91 5.44e-4 -2.9 8.24e-4 -16.3 0.0212-32.5 0.636-48.7 2.19-1.63 0.145-1.63 0.145-3.3 0.292-50.8 4.57-102 16.9-148 39.8-1.03 0.509-2.05 1.02-3.11 1.54-1.95 0.975-3.89 1.97-5.83 2.98-6.02 3.02-11.1 4.44-17.9 3.4-4.86-2.34-7.52-5.23-10-10-1.49-5.35-1.15-9.82 1-15 31.6-40.5 123-50.3 171-56.3 31.1-3.71 62.6-4.48 93.9-2.88z" fill="#000100"/>
<path transform="translate(1155 661)" d="m0 0c1.2 0.154 2.4 0.308 3.63 0.466 22.9 3.13 22.9 3.13 29 10.5 2.72 4.5 2.85 8.88 2 14-2.09 4.84-4.74 8.12-9.06 11.1-9.27 3.05-22-0.738-31.4-2.06-81.3-11.1-165-5.64-287 40-6.22 3.44-12.2 6.04-19.5 4.92-5.3-1.89-8.51-4.92-11-10-1.61-6.08-1.2-10.5 2-16 4.26-5.07 9.47-7.7 15.3-10.7 1.52-0.783 1.52-0.783 3.07-1.58 11-5.54 22.2-10.3 33.6-14.7 0.992-0.388 1.98-0.776 3.01-1.18 81.6-31.6 172-36.3 266-24.8z" fill="#000100"/>
</svg>
