<svg width="30" height="31" viewBox="0 0 30 31" fill="none" xmlns="http://www.w3.org/2000/svg">
<path d="M0.461554 15.2638C0.582778 15.3577 0.720723 15.4261 0.867513 15.4649C1.0143 15.5038 1.16706 15.5124 1.31707 15.4903C1.46708 15.4681 1.61139 15.4157 1.74178 15.3359C1.87217 15.2561 1.98607 15.1506 2.07699 15.0254C2.77562 14.063 3.68153 13.2819 4.72298 12.7439C5.76443 12.2059 6.91282 11.9258 8.07719 11.9258C9.24157 11.9258 10.39 12.2059 11.4314 12.7439C12.4729 13.2819 13.3788 14.063 14.0774 15.0254C14.2612 15.2781 14.5347 15.445 14.8376 15.4895C15.1406 15.5339 15.4482 15.4522 15.6928 15.2623C15.78 15.1953 15.8573 15.1155 15.9222 15.0254C16.6208 14.063 17.5267 13.2819 18.5682 12.7439C19.6096 12.2059 20.758 11.9258 21.9224 11.9258C23.0867 11.9258 24.2351 12.2059 25.2766 12.7439C26.318 13.2819 27.2239 14.063 27.9226 15.0254C28.1064 15.2783 28.3799 15.4455 28.683 15.49C28.9861 15.5346 29.2939 15.453 29.5387 15.2631C29.7836 15.0732 29.9453 14.7906 29.9885 14.4774C30.0316 14.1643 29.9526 13.8463 29.7688 13.5933C28.7474 12.1787 27.3854 11.0649 25.8182 10.3627C26.6774 9.55221 27.2793 8.49233 27.5451 7.32211C27.8108 6.15189 27.7279 4.92601 27.3072 3.80535C26.8865 2.68468 26.1477 1.7216 25.1878 1.0425C24.2278 0.363398 23.0916 0 21.9281 0C20.7647 0 19.6285 0.363398 18.6685 1.0425C17.7086 1.7216 16.9698 2.68468 16.5491 3.80535C16.1284 4.92601 16.0455 6.15189 16.3112 7.32211C16.577 8.49233 17.1789 9.55221 18.0381 10.3627C16.9065 10.8682 15.8785 11.5919 15.0092 12.4951C14.1398 11.5919 13.1118 10.8682 11.9802 10.3627C12.8394 9.55221 13.4414 8.49233 13.7071 7.32211C13.9728 6.15189 13.8899 4.92601 13.4692 3.80535C13.0485 2.68468 12.3097 1.7216 11.3498 1.0425C10.3898 0.363398 9.2536 0 8.09017 0C6.92675 0 5.7905 0.363398 4.83056 1.0425C3.87061 1.7216 3.13181 2.68468 2.71113 3.80535C2.29044 4.92601 2.20753 6.15189 2.47326 7.32211C2.73899 8.49233 3.34095 9.55221 4.20014 10.3627C2.62603 11.0626 1.2573 12.1771 0.230777 13.5948C0.139859 13.7201 0.0737077 13.8626 0.0361008 14.0142C-0.00150619 14.1659 -0.00983243 14.3237 0.0115972 14.4787C0.0330268 14.6337 0.0837929 14.7828 0.160997 14.9175C0.2382 15.0522 0.34033 15.1699 0.461554 15.2638ZM21.9238 2.38876C22.6085 2.38876 23.2777 2.59851 23.847 2.99149C24.4163 3.38447 24.86 3.94303 25.122 4.59653C25.384 5.25004 25.4525 5.96913 25.319 6.66289C25.1854 7.35664 24.8557 7.9939 24.3716 8.49407C23.8875 8.99423 23.2706 9.33485 22.5991 9.47285C21.9277 9.61085 21.2316 9.54002 20.5991 9.26933C19.9666 8.99864 19.4259 8.54025 19.0456 7.95211C18.6652 7.36397 18.4622 6.67251 18.4622 5.96516C18.4622 5.01664 18.8269 4.10697 19.4761 3.43626C20.1252 2.76556 21.0057 2.38876 21.9238 2.38876ZM8.07719 2.38876C8.76184 2.38876 9.43112 2.59851 10.0004 2.99149C10.5697 3.38447 11.0133 3.94303 11.2753 4.59653C11.5374 5.25004 11.6059 5.96913 11.4723 6.66289C11.3388 7.35664 11.0091 7.9939 10.525 8.49407C10.0408 8.99423 9.42402 9.33485 8.75253 9.47285C8.08103 9.61085 7.38501 9.54002 6.75248 9.26933C6.11994 8.99864 5.57931 8.54025 5.19893 7.95211C4.81856 7.36397 4.61554 6.67251 4.61554 5.96516C4.61554 5.01664 4.98025 4.10697 5.62944 3.43626C6.27862 2.76556 7.15911 2.38876 8.07719 2.38876ZM25.8182 25.8604C26.6774 25.05 27.2793 23.9901 27.5451 22.8199C27.8108 21.6496 27.7279 20.4238 27.3072 19.3031C26.8865 18.1824 26.1477 17.2194 25.1878 16.5403C24.2278 15.8612 23.0916 15.4978 21.9281 15.4978C20.7647 15.4978 19.6285 15.8612 18.6685 16.5403C17.7086 17.2194 16.9698 18.1824 16.5491 19.3031C16.1284 20.4238 16.0455 21.6496 16.3112 22.8199C16.577 23.9901 17.1789 25.05 18.0381 25.8604C16.9065 26.3659 15.8785 27.0897 15.0092 27.9928C14.1398 27.0897 13.1118 26.3659 11.9802 25.8604C12.8394 25.05 13.4414 23.9901 13.7071 22.8199C13.9728 21.6496 13.8899 20.4238 13.4692 19.3031C13.0485 18.1824 12.3097 17.2194 11.3498 16.5403C10.3898 15.8612 9.2536 15.4978 8.09017 15.4978C6.92675 15.4978 5.7905 15.8612 4.83056 16.5403C3.87061 17.2194 3.13181 18.1824 2.71113 19.3031C2.29044 20.4238 2.20753 21.6496 2.47326 22.8199C2.73899 23.9901 3.34095 25.05 4.20014 25.8604C2.62603 26.5603 1.2573 27.6749 0.230777 29.0926C0.139859 29.2178 0.0737077 29.3603 0.0361008 29.512C-0.00150619 29.6637 -0.00983243 29.8215 0.0115972 29.9765C0.0330268 30.1314 0.0837929 30.2805 0.160997 30.4152C0.2382 30.55 0.34033 30.6676 0.461554 30.7616C0.582778 30.8555 0.720723 30.9238 0.867513 30.9627C1.0143 31.0016 1.16706 31.0102 1.31707 30.988C1.46708 30.9659 1.61139 30.9134 1.74178 30.8337C1.87217 30.7539 1.98607 30.6484 2.07699 30.5231C2.77562 29.5608 3.68153 28.7797 4.72298 28.2417C5.76443 27.7037 6.91282 27.4236 8.07719 27.4236C9.24157 27.4236 10.39 27.7037 11.4314 28.2417C12.4729 28.7797 13.3788 29.5608 14.0774 30.5231C14.2612 30.7759 14.5347 30.9428 14.8376 30.9872C15.1406 31.0316 15.4482 30.9499 15.6928 30.7601C15.78 30.6931 15.8573 30.6132 15.9222 30.5231C16.6208 29.5608 17.5267 28.7797 18.5682 28.2417C19.6096 27.7037 20.758 27.4236 21.9224 27.4236C23.0867 27.4236 24.2351 27.7037 25.2766 28.2417C26.318 28.7797 27.2239 29.5608 27.9226 30.5231C28.1064 30.7761 28.3799 30.9432 28.683 30.9878C28.9861 31.0324 29.2939 30.9507 29.5387 30.7608C29.7836 30.5709 29.9453 30.2883 29.9885 29.9752C30.0316 29.662 29.9526 29.344 29.7688 29.0911C28.7474 27.6764 27.3854 26.5626 25.8182 25.8604ZM8.07719 17.8865C8.76184 17.8865 9.43112 18.0963 10.0004 18.4892C10.5697 18.8822 11.0133 19.4408 11.2753 20.0943C11.5374 20.7478 11.6059 21.4669 11.4723 22.1606C11.3388 22.8544 11.0091 23.4916 10.525 23.9918C10.0408 24.492 9.42402 24.8326 8.75253 24.9706C8.08103 25.1086 7.38501 25.0378 6.75248 24.7671C6.11994 24.4964 5.57931 24.038 5.19893 23.4499C4.81856 22.8617 4.61554 22.1703 4.61554 21.4629C4.61554 20.5144 4.98025 19.6047 5.62944 18.934C6.27862 18.2633 7.15911 17.8865 8.07719 17.8865ZM21.9238 17.8865C22.6085 17.8865 23.2777 18.0963 23.847 18.4892C24.4163 18.8822 24.86 19.4408 25.122 20.0943C25.384 20.7478 25.4525 21.4669 25.319 22.1606C25.1854 22.8544 24.8557 23.4916 24.3716 23.9918C23.8875 24.492 23.2706 24.8326 22.5991 24.9706C21.9277 25.1086 21.2316 25.0378 20.5991 24.7671C19.9666 24.4964 19.4259 24.038 19.0456 23.4499C18.6652 22.8617 18.4622 22.1703 18.4622 21.4629C18.4622 20.5144 18.8269 19.6047 19.4761 18.934C20.1252 18.2633 21.0057 17.8865 21.9238 17.8865Z" fill="black"/>
</svg>
