<svg width="30" height="26" viewBox="0 0 30 26" fill="none" xmlns="http://www.w3.org/2000/svg">
<path d="M28.9286 0H19.2857C18.454 0 17.6338 0.195786 16.8899 0.571853C16.1461 0.947919 15.499 1.49394 15 2.16667C14.501 1.49394 13.8539 0.947919 13.1101 0.571853C12.3662 0.195786 11.546 0 10.7143 0H1.07143C0.787268 0 0.514746 0.114137 0.313814 0.317301C0.112882 0.520466 0 0.796016 0 1.08333V20.5833C0 20.8707 0.112882 21.1462 0.313814 21.3494C0.514746 21.5525 0.787268 21.6667 1.07143 21.6667H10.7143C11.5668 21.6667 12.3843 22.0091 12.9871 22.6186C13.5899 23.2281 13.9286 24.0547 13.9286 24.9167C13.9286 25.204 14.0415 25.4795 14.2424 25.6827C14.4433 25.8859 14.7158 26 15 26C15.2842 26 15.5567 25.8859 15.7576 25.6827C15.9585 25.4795 16.0714 25.204 16.0714 24.9167C16.0714 24.0547 16.4101 23.2281 17.0129 22.6186C17.6157 22.0091 18.4332 21.6667 19.2857 21.6667H28.9286C29.2127 21.6667 29.4853 21.5525 29.6862 21.3494C29.8871 21.1462 30 20.8707 30 20.5833V1.08333C30 0.796016 29.8871 0.520466 29.6862 0.317301C29.4853 0.114137 29.2127 0 28.9286 0ZM10.7143 19.5H2.14286V2.16667H10.7143C11.5668 2.16667 12.3843 2.50908 12.9871 3.11857C13.5899 3.72806 13.9286 4.55471 13.9286 5.41667V20.5833C13.0021 19.8785 11.8737 19.4981 10.7143 19.5ZM27.8571 19.5H19.2857C18.1263 19.4981 16.9979 19.8785 16.0714 20.5833V5.41667C16.0714 4.55471 16.4101 3.72806 17.0129 3.11857C17.6157 2.50908 18.4332 2.16667 19.2857 2.16667H27.8571V19.5ZM19.2857 5.41667H24.6429C24.927 5.41667 25.1995 5.5308 25.4005 5.73397C25.6014 5.93713 25.7143 6.21268 25.7143 6.5C25.7143 6.78732 25.6014 7.06287 25.4005 7.26603C25.1995 7.4692 24.927 7.58333 24.6429 7.58333H19.2857C19.0016 7.58333 18.729 7.4692 18.5281 7.26603C18.3272 7.06287 18.2143 6.78732 18.2143 6.5C18.2143 6.21268 18.3272 5.93713 18.5281 5.73397C18.729 5.5308 19.0016 5.41667 19.2857 5.41667ZM25.7143 10.8333C25.7143 11.1207 25.6014 11.3962 25.4005 11.5994C25.1995 11.8025 24.927 11.9167 24.6429 11.9167H19.2857C19.0016 11.9167 18.729 11.8025 18.5281 11.5994C18.3272 11.3962 18.2143 11.1207 18.2143 10.8333C18.2143 10.546 18.3272 10.2705 18.5281 10.0673C18.729 9.86414 19.0016 9.75 19.2857 9.75H24.6429C24.927 9.75 25.1995 9.86414 25.4005 10.0673C25.6014 10.2705 25.7143 10.546 25.7143 10.8333ZM25.7143 15.1667C25.7143 15.454 25.6014 15.7295 25.4005 15.9327C25.1995 16.1359 24.927 16.25 24.6429 16.25H19.2857C19.0016 16.25 18.729 16.1359 18.5281 15.9327C18.3272 15.7295 18.2143 15.454 18.2143 15.1667C18.2143 14.8793 18.3272 14.6038 18.5281 14.4006C18.729 14.1975 19.0016 14.0833 19.2857 14.0833H24.6429C24.927 14.0833 25.1995 14.1975 25.4005 14.4006C25.6014 14.6038 25.7143 14.8793 25.7143 15.1667Z" fill="currentColor"/>
</svg>
