<svg width="35" height="32" viewBox="0 0 35 32" fill="none" xmlns="http://www.w3.org/2000/svg">
<path d="M27.5625 21.6364H7.45937C7.21875 21.6364 7.02187 21.8532 7.02187 22.1181L7.01641 25.0088C7.01641 25.2738 7.21328 25.4906 7.45391 25.4906H27.5625C27.8031 25.4906 28 25.2738 28 25.0088V22.1181C28 21.8532 27.8031 21.6364 27.5625 21.6364ZM27.5625 27.4177H7.44297C7.20234 27.4177 7.00547 27.6345 7.00547 27.8995L7 30.7902C7 31.0552 7.19688 31.272 7.4375 31.272H27.5625C27.8031 31.272 28 31.0552 28 30.7902V27.8995C28 27.6345 27.8031 27.4177 27.5625 27.4177ZM27.5625 15.855H7.47031C7.22969 15.855 7.03281 16.0718 7.03281 16.3368L7.02734 19.2274C7.02734 19.4924 7.22422 19.7092 7.46484 19.7092H27.5625C27.8031 19.7092 28 19.4924 28 19.2274V16.3368C28 16.0718 27.8031 15.855 27.5625 15.855ZM33.3867 7.48401L18.5063 0.660776C18.1864 0.514662 17.8435 0.439453 17.4973 0.439453C17.151 0.439453 16.8081 0.514662 16.4883 0.660776L1.61328 7.48401C0.639844 7.93568 0 8.98356 0 10.1519V30.7902C0 31.0552 0.196875 31.272 0.4375 31.272H4.8125C5.05312 31.272 5.25 31.0552 5.25 30.7902V15.855C5.25 14.7951 6.04844 13.9278 7.03281 13.9278H27.9672C28.9516 13.9278 29.75 14.7951 29.75 15.855V30.7902C29.75 31.0552 29.9469 31.272 30.1875 31.272H34.5625C34.8031 31.272 35 31.0552 35 30.7902V10.1519C35 8.98356 34.3602 7.93568 33.3867 7.48401Z" fill="black"/>
</svg>
