<svg width="40" height="31" viewBox="0 0 40 31" fill="none" xmlns="http://www.w3.org/2000/svg">
<path d="M30 0.878906H10C7.34871 0.881742 4.80681 1.93622 2.93207 3.81097C1.05732 5.68572 0.00283612 8.22761 0 10.8789V28.0218C0 28.7795 0.301019 29.5063 0.836838 30.0421C1.37266 30.5779 2.09938 30.8789 2.85714 30.8789H37.1429C37.9006 30.8789 38.6273 30.5779 39.1632 30.0421C39.699 29.5063 40 28.7795 40 28.0218V10.8789C39.9972 8.22761 38.9427 5.68572 37.0679 3.81097C35.1932 1.93622 32.6513 0.881742 30 0.878906ZM37.1429 10.8789V12.3075H31.4286V3.87891C33.0409 4.21041 34.4896 5.08766 35.5305 6.36277C36.5714 7.63788 37.1408 9.23288 37.1429 10.8789ZM21.4286 18.0218H18.5714V12.3075H21.4286V18.0218ZM17.1429 20.8789H22.8571C23.236 20.8789 23.5994 20.7284 23.8673 20.4605C24.1352 20.1926 24.2857 19.8292 24.2857 19.4503V15.1646H28.5714V28.0218H11.4286V15.1646H15.7143V19.4503C15.7143 19.8292 15.8648 20.1926 16.1327 20.4605C16.4006 20.7284 16.764 20.8789 17.1429 20.8789ZM24.2857 12.3075V10.8789C24.2857 10.5 24.1352 10.1367 23.8673 9.86875C23.5994 9.60085 23.236 9.45033 22.8571 9.45033H17.1429C16.764 9.45033 16.4006 9.60085 16.1327 9.86875C15.8648 10.1367 15.7143 10.5 15.7143 10.8789V12.3075H11.4286V3.73605H28.5714V12.3075H24.2857ZM8.57143 3.87891V12.3075H2.85714V10.8789C2.85915 9.23288 3.42861 7.63788 4.46952 6.36277C5.51043 5.08766 6.95913 4.21041 8.57143 3.87891ZM2.85714 15.1646H8.57143V28.0218H2.85714V15.1646ZM37.1429 28.0218H31.4286V15.1646H37.1429V28.0218Z" fill="black"/>
</svg>
