<svg width="42" height="43" viewBox="0 0 42 43" fill="none" xmlns="http://www.w3.org/2000/svg">
<path d="M10.5 23.1895C6.65 23.1895 3.5 26.3395 3.5 30.1895C3.5 34.0395 6.65 37.1895 10.5 37.1895C14.35 37.1895 17.5 34.0395 17.5 30.1895C17.5 26.3395 14.35 23.1895 10.5 23.1895ZM21 5.68945C17.15 5.68945 14 8.83945 14 12.6895C14 16.5395 17.15 19.6895 21 19.6895C24.85 19.6895 28 16.5395 28 12.6895C28 8.83945 24.85 5.68945 21 5.68945ZM31.5 23.1895C27.65 23.1895 24.5 26.3395 24.5 30.1895C24.5 34.0395 27.65 37.1895 31.5 37.1895C35.35 37.1895 38.5 34.0395 38.5 30.1895C38.5 26.3395 35.35 23.1895 31.5 23.1895Z" fill="currentColor"/>
</svg>
