<svg width="29" height="26" viewBox="0 0 29 26" fill="none" xmlns="http://www.w3.org/2000/svg">
<path d="M26.68 4.72727H3.48C3.17235 4.72727 2.8773 4.60276 2.65976 4.38113C2.44221 4.15949 2.32 3.85889 2.32 3.54545C2.32 3.23202 2.44221 2.93142 2.65976 2.70978C2.8773 2.48815 3.17235 2.36364 3.48 2.36364H23.2C23.5077 2.36364 23.8027 2.23912 24.0202 2.01749C24.2378 1.79586 24.36 1.49526 24.36 1.18182C24.36 0.86838 24.2378 0.567781 24.0202 0.346147C23.8027 0.124513 23.5077 0 23.2 0H3.48C2.55705 0 1.6719 0.373538 1.01927 1.03844C0.366642 1.70334 0 2.60514 0 3.54545V22.4545C0 23.3949 0.366642 24.2967 1.01927 24.9616C1.6719 25.6265 2.55705 26 3.48 26H26.68C27.2953 26 27.8854 25.751 28.3205 25.3077C28.7556 24.8644 29 24.2632 29 23.6364V7.09091C29 6.46403 28.7556 5.86283 28.3205 5.41957C27.8854 4.9763 27.2953 4.72727 26.68 4.72727ZM26.68 23.6364H3.48C3.17235 23.6364 2.8773 23.5119 2.65976 23.2902C2.44221 23.0686 2.32 22.768 2.32 22.4545V6.88852C2.69247 7.02304 3.08482 7.0915 3.48 7.09091H26.68V23.6364ZM19.72 14.7727C19.72 14.4221 19.8221 14.0794 20.0132 13.7879C20.2044 13.4963 20.4762 13.2691 20.7941 13.1349C21.1121 13.0008 21.4619 12.9657 21.7995 13.0341C22.137 13.1025 22.447 13.2713 22.6904 13.5192C22.9337 13.7671 23.0994 14.083 23.1666 14.4269C23.2337 14.7708 23.1992 15.1272 23.0675 15.4511C22.9359 15.775 22.7128 16.0519 22.4267 16.2467C22.1405 16.4415 21.8041 16.5455 21.46 16.5455C20.9985 16.5455 20.5559 16.3587 20.2296 16.0262C19.9033 15.6938 19.72 15.2429 19.72 14.7727Z" fill="black"/>
</svg>
