<svg width="29" height="23" viewBox="0 0 29 23" fill="none" xmlns="http://www.w3.org/2000/svg">
<path d="M27.8264 14.0228C27.4668 13.7484 27.0482 13.56 26.6031 13.4721C26.1581 13.3842 25.6986 13.3993 25.2604 13.5161L20.2057 14.6685C20.3233 14.1759 20.3269 13.6633 20.2163 13.1691C20.1057 12.6749 19.8837 12.212 19.567 11.815C19.2503 11.418 18.847 11.0972 18.3875 10.8766C17.928 10.6561 17.4241 10.5416 16.9136 10.5417H10.8658C10.3579 10.5404 9.85476 10.639 9.3855 10.8316C8.91624 11.0243 8.49013 11.3072 8.1318 11.6641L5.39905 14.375H1.93298C1.42032 14.375 0.92866 14.5769 0.566156 14.9364C0.203653 15.2958 0 15.7833 0 16.2917L0 21.0833C0 21.5917 0.203653 22.0792 0.566156 22.4386C0.92866 22.7981 1.42032 23 1.93298 23H14.4973C14.5764 23 14.6551 22.9904 14.7317 22.9712L22.4636 21.0546C22.5129 21.0429 22.561 21.0269 22.6074 21.0067L27.3033 19.0253L27.3565 19.0014C27.8078 18.7777 28.1943 18.4439 28.4795 18.0312C28.7647 17.6186 28.9393 17.1407 28.9868 16.6427C29.0343 16.1446 28.9531 15.6428 28.751 15.1845C28.5488 14.7261 28.2323 14.3263 27.8313 14.0228H27.8264ZM1.93298 16.2917H4.83245V21.0833H1.93298V16.2917ZM26.5096 17.2752L21.9188 19.2134L14.3765 21.0833H6.76543V15.7298L9.49938 13.0202C9.67823 12.8414 9.89112 12.6997 10.1257 12.6032C10.3603 12.5068 10.6118 12.4575 10.8658 12.4583H16.9136C17.2981 12.4583 17.6668 12.6098 17.9387 12.8794C18.2106 13.149 18.3633 13.5146 18.3633 13.8958C18.3633 14.2771 18.2106 14.6427 17.9387 14.9123C17.6668 15.1819 17.2981 15.3333 16.9136 15.3333H13.5309C13.2745 15.3333 13.0287 15.4343 12.8474 15.614C12.6662 15.7937 12.5644 16.0375 12.5644 16.2917C12.5644 16.5458 12.6662 16.7896 12.8474 16.9693C13.0287 17.149 13.2745 17.25 13.5309 17.25H17.3968C17.4696 17.2498 17.5421 17.2418 17.6131 17.226L25.7074 15.3801L25.7449 15.3705C25.992 15.3025 26.2557 15.3274 26.4853 15.4406C26.7149 15.5538 26.8942 15.7472 26.9887 15.9836C27.0832 16.22 27.0861 16.4827 26.997 16.7211C26.9079 16.9596 26.733 17.1569 26.506 17.2752H26.5096ZM19.813 8.625C20.0518 8.62527 20.2902 8.60604 20.5258 8.5675C20.7908 9.348 21.2757 10.0369 21.923 10.5529C22.5704 11.0688 23.3532 11.3901 24.1789 11.4789C25.0046 11.5677 25.8387 11.4201 26.5826 11.0538C27.3264 10.6874 27.9489 10.1175 28.3764 9.41144C28.8039 8.70539 29.0187 7.89272 28.9952 7.06951C28.9717 6.24629 28.7109 5.44697 28.2438 4.76603C27.7767 4.08509 27.1227 3.55101 26.3591 3.22694C25.5956 2.90287 24.7544 2.80236 23.9351 2.93729C23.6799 2.1853 23.2205 1.51767 22.6073 1.0079C21.9942 0.498127 21.2511 0.165963 20.4598 0.0479623C19.6685 -0.0700383 18.8598 0.0306992 18.1225 0.339089C17.3853 0.647479 16.7481 1.15157 16.2811 1.79587C15.8142 2.44018 15.5355 3.19974 15.4759 3.99095C15.4162 4.78216 15.5778 5.57436 15.943 6.28036C16.3081 6.98636 16.8626 7.57879 17.5454 7.99247C18.2282 8.40614 19.0129 8.62501 19.813 8.625ZM27.0617 7.1875C27.0617 7.66135 26.92 8.12456 26.6545 8.51855C26.389 8.91255 26.0116 9.21963 25.5701 9.40096C25.1286 9.5823 24.6428 9.62974 24.1741 9.5373C23.7054 9.44486 23.2749 9.21667 22.937 8.88161C22.599 8.54655 22.3689 8.11965 22.2757 7.65491C22.1825 7.19016 22.2303 6.70844 22.4132 6.27066C22.5961 5.83287 22.9058 5.4587 23.3031 5.19544C23.7004 4.93218 24.1676 4.79167 24.6455 4.79167C25.2863 4.79167 25.9009 5.04409 26.354 5.49339C26.8071 5.9427 27.0617 6.55209 27.0617 7.1875ZM19.813 1.91667C20.3401 1.91693 20.8527 2.0881 21.2726 2.40407C21.6924 2.72005 21.9966 3.1635 22.1387 3.66682C21.6436 4.01218 21.2268 4.45618 20.9147 4.97042C20.6027 5.48466 20.4023 6.05782 20.3265 6.65323C20.1577 6.68936 19.9857 6.70783 19.813 6.70833C19.1722 6.70833 18.5576 6.45592 18.1045 6.00661C17.6514 5.55731 17.3968 4.94792 17.3968 4.3125C17.3968 3.67709 17.6514 3.0677 18.1045 2.61839C18.5576 2.16909 19.1722 1.91667 19.813 1.91667Z" fill="black"/>
</svg>
