<?xml version="1.0" encoding="UTF-8"?>
<svg version="1.1" viewBox="0 0 1600 1600" width="1280" height="1280" xmlns="http://www.w3.org/2000/svg">
<path transform="translate(1138 162)" d="m0 0c1.15-0.00961 2.31-0.0192 3.49-0.0291 1.25-0.00425 2.51-0.0085 3.8-0.0129 1.95-0.00855 1.95-0.00855 3.94-0.0173 2.77-0.0105 5.53-0.0164 8.3-0.0198 2.79-0.00434 5.59-0.018 8.38-0.041 15.6-0.126 30.9 0.156 46.3 2.92 3.6 0.605 7.22 1.01 10.8 1.43 14.8 1.82 14.8 1.82 21.2 4.44 5.17 2.09 10.6 2.72 16.1 3.5-0.773 4.96-2.31 6.55-6 10-1.18 1.32-2.35 2.66-3.5 4-2.72 3.14-5.53 6.1-8.5 9-1.59 1.56-3.17 3.12-4.75 4.69-1.17 1.15-1.17 1.15-2.36 2.32-1.94 1.85-1.94 1.85-2.89 3.99-1.49 0.495-1.49 0.495-3 1-1.68 1.62-1.68 1.62-3.31 3.62-0.614 0.721-1.23 1.44-1.86 2.18-1.14 1.36-2.27 2.73-3.41 4.1-3.21 3.84-6.54 6.93-10.4 10.1-0.33 0.66-0.66 1.32-1 2h-2v2c-1.43 1.23-2.87 2.46-4.34 3.64-3.15 2.59-5.94 5.38-8.34 8.67-0.65 0.835-0.65 0.835-1.31 1.69h-2v2c-2.38 2.63-2.38 2.63-5 5h-2v2h-2v2c-2.38 2.63-2.38 2.63-5 5h-2v2c-1.43 1.23-2.87 2.46-4.34 3.64-3.15 2.59-5.94 5.38-8.34 8.67-0.65 0.835-0.65 0.835-1.31 1.69h-2v2c-2.38 2.63-2.38 2.63-5 5h-2v2h-2v2c-1.43 1.23-2.87 2.46-4.35 3.64-2.38 1.96-4.5 4.15-6.65 6.36-0.825 0.804-1.65 1.61-2.5 2.44-1.87 1.92-3.52 3.79-5.19 5.88-0.763 0.887-1.53 1.77-2.31 2.69h-2v2c-1.43 1.23-2.87 2.46-4.34 3.64-3.15 2.59-5.94 5.38-8.34 8.67-0.433 0.557-0.866 1.11-1.31 1.69h-2v2c-2.38 2.63-2.38 2.63-5 5h-2v2c-1.43 1.23-2.88 2.46-4.35 3.65-3.37 2.76-6.24 5.84-8.96 9.23-3.69 4.51-8.24 8.11-12.7 11.8-0.628 0.521-1.26 1.04-1.9 1.58-0.566 0.459-1.13 0.918-1.71 1.39-1.62 1.43-1.62 1.43-2.35 4.36-0.663 0.308-1.33 0.616-2.01 0.934-2.15 0.868-2.15 0.868-2.67 2.91-0.501 5.68-0.0954 10.7 1.68 16.2 0.33 0.33 0.66 0.66 1 1 0.0409 2.33 0.0424 4.67 0 7h2c0.124 1.83 0.124 1.83 0.25 3.69 0.444 4.19 1.5 7.94 2.81 11.9 1.53 4.72 2.4 8.44 1.94 13.4h2c0.228 2.05 0.456 4.1 0.684 6.15 0.135 1.86 0.135 1.86 1.32 2.85 0.327 1.47 0.611 2.95 0.875 4.44 0.697 3.67 1.57 7.19 2.69 10.8 1.24 3.95 1.91 7.71 2.44 11.8 0.33 0.33 0.66 0.66 1 1 0.478 2.12 0.952 4.24 1.4 6.36 0.589 2.6 1.3 5.14 2.04 7.7 1.49 5.35 2.53 10.7 3.47 16.2 0.768 4.35 1.82 8.52 3.09 12.7 2.16 7.41 4.23 14.8 6.06 22.3 0.641 2.56 1.29 5.13 1.94 7.69 0.233 0.959 0.467 1.92 0.707 2.91 0.331 1.19 0.331 1.19 0.668 2.41 0.173 0.656 0.345 1.31 0.523 1.99 2.2 3.4 5.77 4.37 9.56 5.31 2.8 0.576 5.6 1.09 8.42 1.58 0.975 0.177 1.95 0.354 2.95 0.537 2.39 0.433 4.78 0.858 7.17 1.28v2c0.989-0.0387 1.98-0.0773 3-0.117 4.22 0.00212 8.01 0.903 12.1 1.99 1.02 0.261 1.02 0.261 2.06 0.527 3.07 0.797 6.09 1.67 9.1 2.69 3.62 1.18 7 1.52 10.8 1.91v2c1.02-0.0374 2.04-0.0748 3.09-0.113 3.87 0.112 6.74 0.76 10.4 1.93 6.49 1.97 12.9 3.35 19.6 4.57 2.89 0.613 2.89 0.613 3.89 1.61 1.05 0.144 2.1 0.289 3.19 0.438 3.81 0.562 3.81 0.562 6.59 1.5 3.5 1.16 6.98 1.94 10.6 2.69 1.87 0.391 1.87 0.391 3.77 0.789 1.41 0.29 1.41 0.29 2.85 0.586v2c1.01-0.04 2.02-0.0799 3.06-0.121 4.02 0.124 7.11 0.859 10.9 2.06 4.68 1.46 9.14 2.39 14 3.06 0.33 0.33 0.66 0.66 1 1 2.33 0.368 4.66 0.702 7 1v2h9v-2h2c0.33-0.99 0.66-1.98 1-3h2v-2h2v-2h2v-2h2c0.227-0.552 0.454-1.1 0.688-1.67 1.7-3.02 3.86-5.14 6.31-7.58 0.887-0.892 1.77-1.78 2.69-2.7 2.31-2.05 2.31-2.05 4.31-2.05v-2h2c0.268-0.639 0.536-1.28 0.812-1.94 1.19-2.06 1.19-2.06 4.19-3.06v-2h2c0.268-0.598 0.536-1.2 0.812-1.81 1.19-2.19 2.28-3.6 4.19-5.19h2v-2h2c0.33-0.99 0.66-1.98 1-3h2v-2h2v-2h2c0.268-0.639 0.536-1.28 0.812-1.94 1.19-2.06 1.19-2.06 4.19-3.06v-2h2v-2h2c0.33-0.99 0.66-1.98 1-3h2v-2h2v-2h2c0.268-0.639 0.536-1.28 0.812-1.94 1.19-2.06 1.19-2.06 4.19-3.06v-2h2v-2h2c0.33-0.99 0.66-1.98 1-3h2v-2h2v-2h2v-2h2c0.33-0.99 0.66-1.98 1-3h2v-2h2v-2h2c0.268-0.639 0.536-1.28 0.812-1.94 1.19-2.06 1.19-2.06 4.19-3.06v-2h2c0.268-0.639 0.536-1.28 0.812-1.94 1.19-2.06 1.19-2.06 4.19-3.06v-2h2v-2h2c0.33-0.99 0.66-1.98 1-3h2v-2h2v-2h2c0.268-0.639 0.536-1.28 0.812-1.94 1.19-2.06 1.19-2.06 4.19-3.06v-2h2v-2h2c0.33-0.99 0.66-1.98 1-3h2v-2h2v-2h2c0.33-0.99 0.66-1.98 1-3h2v-2h2v-2h2v-2h2c0.33-0.99 0.66-1.98 1-3h2v-2h2v-2h2v-2c1.38-1.62 1.38-1.62 3-3h2v-2h2v-2h2c0.33-0.99 0.66-1.98 1-3h2v-2h2v-2h2c0.268-0.639 0.536-1.28 0.812-1.94 1.19-2.06 1.19-2.06 4.19-3.06v-2h2v-2h2c0.33-0.99 0.66-1.98 1-3h2v-2h2v-2h2c0.402-0.959 0.402-0.959 0.812-1.94 1.19-2.06 1.19-2.06 4.19-3.06v-2h2v-2h2c0.371-0.835 0.371-0.835 0.75-1.69 1.48-2.74 3.18-4.99 5.25-7.31h2v2h2c0.124 1.73 0.124 1.73 0.25 3.5 0.876 8.01 3.24 15.8 5.3 23.6 0.988 3.8 1.72 7.44 2.01 11.4 0.0077 3.09 0.0077 3.09 1.44 5.56 0.19 2.06 0.325 4.12 0.438 6.19 0.32 5.01 0.81 9.91 1.56 14.9 4.1 27.7 2.78 57.3-2 84.9l-1 1c-0.207 1.49-0.367 3-0.5 4.5-0.389 4.39-0.389 4.39-1.5 5.5-0.593 2.93-1.15 5.87-1.69 8.81-1.88 9.83-4.54 19.3-7.58 28.8-0.78 2.5-1.5 5.01-2.23 7.53-1.19 3.98-2.67 7.65-4.5 11.4-2.42 5.08-4.36 10.1-6 15.4h-2c-0.124 0.722-0.247 1.44-0.375 2.19-0.615 2.77-1.51 5.21-2.62 7.81h-2v4h-2v4h-2c-0.0825 0.681-0.165 1.36-0.25 2.06-0.973 3.81-2.71 6.58-4.75 9.94h-2c-0.124 0.743-0.247 1.48-0.375 2.25-0.58 2.55-1.36 4.48-2.62 6.75h-2v3h-2c-0.276 0.562-0.552 1.12-0.836 1.7-1.21 2.38-2.49 4.71-3.79 7.05-0.446 0.799-0.892 1.6-1.35 2.42-0.338 0.603-0.675 1.21-1.02 1.83h-2c-0.464 1.18-0.464 1.18-0.938 2.38-1.06 2.62-1.06 2.62-2.06 4.62h-2c-0.66 1.65-1.32 3.3-2 5h-2c-0.464 0.928-0.464 0.928-0.938 1.88l-2.06 4.12h-2v3h-2v2c-1.38 1.62-1.38 1.62-3 3h-2v2h-2v2h-2l-0.76 1.74c-1.41 2.56-3.02 4.3-5.08 6.37-0.752 0.754-1.5 1.51-2.28 2.29-0.785 0.777-1.57 1.55-2.38 2.36-0.785 0.793-1.57 1.59-2.38 2.4-1.13 1.12-1.13 1.12-2.28 2.27-1.03 1.03-1.03 1.03-2.09 2.08-1.76 1.5-1.76 1.5-3.76 1.5v2h-2v2c-1.87 1.7-1.87 1.7-4.44 3.69-0.909 0.706-1.82 1.41-2.75 2.14-0.927 0.717-1.85 1.43-2.81 2.17-0.834 0.675-1.67 1.35-2.53 2.05-0.775 0.624-1.55 1.25-2.35 1.89-0.699 0.566-1.4 1.13-2.12 1.71-2.04 1.37-3.61 1.92-6.01 2.35v2c-4.38 3-4.38 3-7 3v2c-2.65 1.46-3.89 2-7 2v2c-2.56 1.49-5.12 2.97-7.69 4.44-1.08 0.631-1.08 0.631-2.19 1.28-3.68 2.1-6.83 3.82-11.1 4.29v2h-4v2c-0.724 0.254-1.45 0.508-2.2 0.77l-2.93 1.04c-0.951 0.336-1.9 0.673-2.88 1.02-3.03 1.12-3.03 1.12-5.91 2.67-3.39 1.65-6.7 2.64-10.3 3.62-4.49 1.15-4.49 1.15-8.75 2.88-2 0.04-4 0.0435-6 0v2c-1.52 0.186-1.52 0.186-3.06 0.375-3.84 0.518-3.84 0.518-7.06 1.57-4.55 1.33-9.19 1.96-13.9 2.62-0.864 0.126-1.73 0.251-2.62 0.381-2.46 0.357-4.92 0.708-7.38 1.06-1.07 0.175-2.13 0.35-3.23 0.53-4.31 0.538-8.52 0.65-12.9 0.673-1.3 0.0103-1.3 0.0103-2.62 0.0208-2.78 0.0171-5.57 0.0235-8.35 0.026-0.945 0.00167-1.89 0.00334-2.87 0.00507-13.2 0.0014-26-0.402-39-2.87-3.11-0.584-6.23-1.03-9.36-1.51-4.55-0.74-4.55-0.74-5.69-1.88-1.01-0.124-2.02-0.248-3.06-0.375-3.42-0.543-6.15-1.45-9.34-2.73-6.05-2.09-12.4-3.41-18.6-4.9v-2c-0.908-0.0825-1.82-0.165-2.75-0.25-6.71-0.943-13.1-3.6-19.4-5.92-2.78-1.08-2.78-1.08-5.55-0.141-2.53 1.25-2.53 1.25-4.25 4.31h-2v2h-2v2h-2v2c-2.38 2.62-2.38 2.62-5 5h-2v2h-2c-0.33 0.99-0.66 1.98-1 3h-2v2h-2v2h-2v2c-1.38 1.62-1.38 1.62-3 3h-2v2h-2v2c-2.38 2.62-2.38 2.62-5 5h-2v2h-2v2c-1.38 1.62-1.38 1.62-3 3h-2v2h-2v2h-2v2c-1.38 1.62-1.38 1.62-3 3h-2v2h-2v2c-1.38 1.62-1.38 1.62-3 3h-2v2h-2v2c-2.38 2.62-2.38 2.62-5 5h-2v2h-2v2c-1.38 1.62-1.38 1.62-3 3h-2v2h-2v2c-2.38 2.62-2.38 2.62-5 5h-2v2h-2v2c-1.38 1.62-1.38 1.62-3 3h-2v2h-2v2c-2.38 2.62-2.38 2.62-5 5h-2v2h-2v2c-1.38 1.62-1.38 1.62-3 3h-2v2h-2v2c-2.38 2.62-2.38 2.62-5 5h-2v2h-2v2c-1.38 1.62-1.38 1.62-3 3h-2v2h-2v2c-2.38 2.62-2.38 2.62-5 5h-2v2h-2v2c-1.38 1.62-1.38 1.62-3 3h-2v2h-2v2c-2.38 2.62-2.38 2.62-5 5h-2v2h-2v2c-1.38 1.62-1.38 1.62-3 3h-2v2h-2v2c-2.38 2.62-2.38 2.62-5 5h-2v2h-2v2c-1.38 1.62-1.38 1.62-3 3h-2v2h-2v2c-2.38 2.62-2.38 2.62-5 5h-2v2h-2v2c-1.38 1.62-1.38 1.62-3 3h-2v2h-2v2c-2.38 2.62-2.38 2.62-5 5h-2v2h-2v2c-1.38 1.62-1.38 1.62-3 3h-2v2h-2v2c-2.38 2.62-2.38 2.62-5 5h-2v2h-2v2c-1.38 1.62-1.38 1.62-3 3h-2v2h-2v2c-2.38 2.62-2.38 2.62-5 5h-2v2h-2v2c-1.38 1.62-1.38 1.62-3 3h-2v2h-2v2c-2.38 2.62-2.38 2.62-5 5h-2v2h-2v2c-1.38 1.62-1.38 1.62-3 3h-2v2h-2v2c-2.38 2.62-2.38 2.62-5 5h-2v2h-2v2c-1.38 1.62-1.38 1.62-3 3h-2v2h-2v2c-2.38 2.62-2.38 2.62-5 5h-2v2h-2v2c-1.38 1.62-1.38 1.62-3 3h-2v2h-2v2c-2.38 2.62-2.38 2.62-5 5h-2v2h-2v2c-1.38 1.62-1.38 1.62-3 3h-2v2h-2v2c-2.38 2.62-2.38 2.62-5 5h-2v2h-2v2c-1.38 1.62-1.38 1.62-3 3h-2v2h-2v2c-1.38 1.62-1.38 1.62-3 3h-2v2h-2v2h-2v2c-1.38 1.62-1.38 1.62-3 3h-2v2h-2v2c-2.38 2.62-2.38 2.62-5 5h-2v2h-2v2c-1.38 1.62-1.38 1.62-3 3h-2v2h-2v2c-2.38 2.62-2.38 2.62-5 5h-2v2h-2v2c-1.38 1.62-1.38 1.62-3 3h-2v2h-2v2c-2.38 2.62-2.38 2.62-5 5h-2v2h-2v2c-1.38 1.62-1.38 1.62-3 3h-2v2h-2v2c-1.38 1.62-1.38 1.62-3 3h-2v2h-2v2h-2v2c-1.38 1.62-1.38 1.62-3 3h-2v2h-2v2c-2.37 2.62-2.37 2.62-5 5h-2v2h-2v2c-1.38 1.62-1.38 1.62-3 3h-2v2h-2v2c-2.38 2.63-2.38 2.63-5 5h-2v2h-2v2c-1.38 1.62-1.38 1.62-3 3h-2v2h-2v2c-2.38 2.63-2.38 2.63-5 5h-2v2h-2v2c-1.38 1.62-1.38 1.62-3 3h-2v2h-2v2c-2.38 2.63-2.38 2.63-5 5h-2v2h-2v2c-1.38 1.62-1.38 1.62-3 3h-2v2h-2v2c-2.38 2.63-2.38 2.63-5 5h-2v2h-2v2c-1.38 1.62-1.38 1.62-3 3h-2v2h-2v2c-2.38 2.63-2.38 2.63-5 5h-2v2h-2v2c-1.38 1.62-1.38 1.62-3 3h-2v2h-2v2c-2.38 2.63-2.38 2.63-5 5h-2v2h-2v2c-1.38 1.62-1.38 1.62-3 3h-2v2h-2v2c-2.38 2.63-2.38 2.63-5 5h-2v2h-2v2c-1.38 1.62-1.38 1.62-3 3h-2v2h-2v2h-2c-0.33 0.99-0.66 1.98-1 3h-2v2h-2v2h-2v2c-1.38 1.62-1.38 1.62-3 3h-2v2h-2v2c-2.38 2.63-2.38 2.63-5 5h-2v2h-2v2c-1.38 1.62-1.38 1.62-3 3h-2v2h-2v2c-2.38 2.63-2.38 2.63-5 5h-2v2h-2v2c-1.38 1.62-1.38 1.62-3 3h-2v2h-2v2c-1.38 1.62-1.38 1.62-3 3h-2v2h-2v2h-2v2c-1.38 1.62-1.38 1.62-3 3h-2v2h-2v2h-2c-0.33 0.99-0.66 1.98-1 3h-2v2h-2v2h-2v2c-1.38 1.62-1.38 1.62-3 3h-2v2h-2v2c-2.38 2.63-2.38 2.63-5 5h-2v2h-2v2c-1.71 1.59-3.5 3.1-5.31 4.56l-2.99 2.44c-2.7 2-2.7 2-5.7 3v2h-3v2c-1.68 1.29-1.68 1.29-3.88 2.62l-2.18 1.35c-1.95 1.02-1.95 1.02-3.95 1.02v2h-3v2c-1.58 0.843-3.16 1.67-4.75 2.5-1.32 0.696-1.32 0.696-2.67 1.41-2.58 1.09-2.58 1.09-6.58 1.09v2c-2.06 0.844-4.12 1.67-6.19 2.5-1.72 0.696-1.72 0.696-3.48 1.41-3.05 1-5.16 1.33-8.33 1.09v2c-3.23 0.801-6.46 1.59-9.69 2.38l-2.71 0.672c-12.6 3.04-24.6 4.26-37.4 4.16-2.4-0.0186-4.8-0.0205-7.19-0.0203-1.53-0.00491-3.06-0.0107-4.59-0.0176-0.714-0.00111-1.43-0.00223-2.17-0.00337-5-0.0484-5-0.0484-7.23-1.16-2.16-0.346-4.33-0.652-6.5-0.938-8.7-1.21-16.5-2.4-24.5-6.06-5.62-2.13-11.3-4.15-17-6v-2l-1.61-0.309c-3.09-0.894-5.78-2.29-8.64-3.75l-3.27-1.66c-0.82-0.422-1.64-0.843-2.48-1.28v-2l-1.81-0.375c-2.19-0.625-2.19-0.625-5.19-2.62v-2h-3v-2c-0.928-0.464-0.928-0.464-1.88-0.938l-4.12-2.06v-2l-5-2v-2h-2v-2c-0.99-0.33-1.98-0.66-3-1v-2h-2v-2h-2v-2h-2c-1.8-1.98-1.8-1.98-3.88-4.62-0.712-0.909-1.42-1.82-2.16-2.75-1.52-2.03-2.97-4.05-4.34-6.18-1.4-2.53-1.4-2.53-3.62-3.44-1.29-2-1.29-2-2.62-4.44-0.446-0.803-0.892-1.61-1.35-2.43-1.02-2.13-1.02-2.13-1.02-4.13h-2v-4h-2v-3h-2c-3-6.5-3-6.5-3-11h-2v-5h-2c-3.93-11-6.99-22.3-8-34l-1-2c-1.21-7.1-1.1-14.4-1.12-21.6-0.00459-0.874-0.00918-1.75-0.0139-2.65 0.0365-15.6 0.0365-15.6 2.14-19.8 0.228-1.87 0.41-3.75 0.562-5.62l0.254-3.04c0.0606-0.771 0.121-1.54 0.184-2.34h2c-0.049-0.987-0.098-1.97-0.148-2.99 0.00218-4.34 1.15-8.05 2.52-12.1 0.333-1.03 0.333-1.03 0.672-2.09 1.19-3.65 2.48-7.24 3.95-10.8h2l0.375-2.69c0.569-3.02 1.39-5.52 2.62-8.31h2l0.438-1.81c0.45-1.75 0.991-3.47 1.56-5.19h2c0.33-1.65 0.66-3.3 1-5h2c0.66-1.98 1.32-3.96 2-6h2c0.309-0.784 0.619-1.57 0.938-2.38 1.06-2.62 1.06-2.62 2.06-4.62h2c0.99-2.47 0.99-2.47 2-5h2c0.402-0.959 0.402-0.959 0.812-1.94 1.19-2.06 1.19-2.06 4.19-3.06 0.698-1.32 1.36-2.65 2-4 1.55-1.71 1.55-1.71 3.31-3.38 2.24-2.16 4.32-4.31 6.25-6.75 2.44-2.88 2.44-2.88 5.38-5.31 3.02-2.53 5.33-5.14 7.77-8.21 0.428-0.447 0.856-0.895 1.3-1.36h2v-2h2v-2c1.43-1.23 2.87-2.46 4.34-3.64 3.15-2.59 5.94-5.38 8.34-8.67 0.433-0.557 0.866-1.11 1.31-1.69h2v-2c2.37-2.62 2.37-2.62 5-5h2v-2c1.61-1.55 1.61-1.55 3.75-3.31 2.35-1.99 4.32-3.77 6.25-6.19 1.85-2.32 3.69-4.02 5.94-5.94 2.47-2.1 4.67-4.15 6.69-6.69 2.54-3.07 5.29-5.37 8.38-7.88 2.69-2.56 5.1-5.12 7.44-8 2.63-3.08 5.43-5.45 8.56-8 2.46-2.34 4.69-4.57 6.69-7.31 0.433-0.557 0.866-1.11 1.31-1.69h2v-2c1.4-1.38 1.4-1.38 3.38-3 8.89-7.11 8.89-7.11 15.6-16h2v-2c1.43-1.23 2.87-2.46 4.35-3.64 2.38-1.96 4.5-4.15 6.65-6.36 5-5 5-5 7.06-7.02l2.19-2.16 2.08-2.04c1.75-1.68 1.75-1.68 2.67-3.77h2v-2c1.44-1.24 2.89-2.47 4.37-3.66 2.38-1.95 4.48-4.14 6.63-6.34l4.75-4.69 2.36-2.32c1.94-1.85 1.94-1.85 2.89-3.99h2v-2c2.37-2.62 2.37-2.62 5-5h2v-2c1.54-1.48 1.54-1.48 3.62-3.19 3.36-2.84 6.15-5.8 8.94-9.19 2.22-2.5 4.86-4.49 7.43-6.62 1.2-1.46 2.41-2.92 3.59-4.39 2.27-2.58 4.89-4.72 7.5-6.95 2.43-2.1 4.68-4.36 6.92-6.66l2.5-2.44c1.87-1.92 3.52-3.79 5.19-5.88 0.763-0.887 1.53-1.77 2.31-2.69h2v-2c1.4-1.38 1.4-1.38 3.38-3 8.89-7.11 8.89-7.11 15.6-16h2v-2c1.43-1.23 2.87-2.46 4.35-3.64 2.38-1.96 4.5-4.15 6.65-6.36 2.5-2.51 5.01-5.01 7.54-7.5 0.834-0.825 1.67-1.65 2.53-2.5 0.837-0.825 1.67-1.65 2.54-2.5 2.43-2.45 2.43-2.45 4.48-5.11 1.75-2.18 3.47-3.86 5.61-5.64 8.15-6.55 8.15-6.55 14.3-14.8h2v-2c2.37-2.62 2.37-2.62 5-5h2v-2c2.37-2.62 2.37-2.62 5-5h2v-2c1.44-1.2 2.88-2.4 4.34-3.57 2.57-2.22 4.53-4.79 6.66-7.43 1.69-1.88 1.69-1.88 3-3h2v-2h2v-2c1.61-1.55 1.61-1.55 3.75-3.31 2.35-1.99 4.32-3.77 6.25-6.19 2.45-3.07 5.29-5.43 8.29-7.95 1.81-1.46 1.81-1.46 2.71-3.55h2v-2h2v-2c1.38-1.62 1.38-1.62 3-3h2v-2h2v-2c1.41-1.18 2.83-2.35 4.27-3.49 2.45-2.14 4.41-4.61 6.43-7.15 0.428-0.447 0.856-0.895 1.3-1.36h2v-2h2v-2h2c0.33-0.99 0.66-1.98 1-3h2v-2c1.43-1.23 2.88-2.46 4.35-3.65 3.51-2.88 6.5-6.13 9.34-9.66 0.763-0.887 1.53-1.77 2.31-2.69h2v-2h2v-2c1.43-1.23 2.87-2.46 4.34-3.64 3.15-2.59 5.94-5.38 8.34-8.67 0.433-0.557 0.866-1.11 1.31-1.69h2v-2c2.37-2.62 2.37-2.62 5-5h2v-2c2.37-2.62 2.37-2.62 5-5h2v-2c2.37-2.62 2.37-2.62 5-5h2v-2c1.44-1.2 2.88-2.4 4.34-3.57 2.57-2.22 4.53-4.79 6.66-7.43 1.69-1.87 1.69-1.87 3-3h2v-2h2v-2h2c0.33-0.99 0.66-1.98 1-3h2v-2c1.44-1.21 2.89-2.41 4.36-3.58 1.9-1.57 1.9-1.57 4.14-4.42 1.9-2.28 3.49-3.92 5.75-5.75 2.77-1.96 2.77-1.96 3.75-4.25h2v-2c2.38-2.63 2.38-2.63 5-5h2v-2c1.41-1.18 2.83-2.35 4.27-3.49 2.45-2.14 4.41-4.61 6.43-7.15 0.428-0.447 0.856-0.895 1.3-1.36h2v-2h2v-2h2c0.33-0.99 0.66-1.98 1-3h2v-2c1.44-1.21 2.88-2.41 4.35-3.58 2.55-2.2 4.53-4.82 6.65-7.42 2.69-2.88 2.69-2.88 5-5h2v-2h2v-2c1.38-1.62 1.38-1.62 3-3h2v-2h2v-2c1.98-1.69 3.98-3.35 6-5 0.33-0.66 0.66-1.32 1-2h2v-2c2.38-2.63 2.38-2.63 5-5h2v-2c2.38-2.63 2.38-2.63 5-5h2v-2h2v-2c1.38-1.62 1.38-1.62 3-3h2v-2c2.38-2.63 2.38-2.63 5-5h2v-2h2v-2h2v-2c1.38-1.62 1.38-1.62 3-3h2v-2h2v-2h2c0.33-0.99 0.66-1.98 1-3h2v-2c1.64-1.62 1.64-1.62 3.81-3.44 3.01-2.54 3.01-2.54 5.82-5.29 1.36-1.28 1.36-1.28 3.36-1.28v-2h2v-2h2c1.24-5.63 0.733-8.02-2-13-0.513-1.55-0.989-3.12-1.44-4.69-1.07-3.75-2.28-7.4-3.62-11.1l-1.02-2.78c-0.717-1.93-1.44-3.86-2.17-5.79-0.837-3-0.898-5.59-0.75-8.69h-2c-0.456-2.07-0.912-4.14-1.37-6.21-0.425-1.88-0.868-3.75-1.33-5.62-1.85-7.59-3.17-15.2-4.3-22.9-0.553-4.26-0.553-4.26-2-8.27-1.5-9.19-1.15-18.7-1.13-27.9 0.00537-2.62 2.35e-5 -5.23-0.00635-7.85-0.0099-21.9-0.0099-21.9 2.14-26.2 0.124-1.3 0.247-2.6 0.375-3.94 0.453-4.41 1.5-8.42 2.73-12.7 1.95-7.39 3.37-14.9 4.9-22.4h2c0.125-0.865 0.25-1.73 0.379-2.62 0.605-3.29 1.48-6.28 2.56-9.44 0.339-1 0.678-2 1.03-3.04 0.95-2.66 1.96-5.29 3.04-7.9h2c0.124-0.887 0.247-1.77 0.375-2.69 0.569-3.02 1.39-5.52 2.62-8.31h2c0.153-0.797 0.153-0.797 0.309-1.61 0.894-3.09 2.29-5.78 3.75-8.64 0.548-1.08 1.1-2.16 1.66-3.27 0.422-0.82 0.843-1.64 1.28-2.48h2c0.0825-0.516 0.165-1.03 0.25-1.56 1.07-3.48 2.89-6.31 4.75-9.44h2v-3h2c0.247-0.887 0.495-1.77 0.75-2.69 1.3-3.43 2.87-5.55 5.25-8.31 0.33-0.66 0.66-1.32 1-2h2c0.268-0.557 0.536-1.11 0.812-1.69 2.5-4.86 5.08-8.63 9.19-12.3h2c0.66-1.65 1.32-3.3 2-5h2v-2h2c0.33-0.99 0.66-1.98 1-3h2v-2h2v-2h2v-2c1.38-1.63 1.38-1.63 3-3h2v-2h2v-2c1.68-1.73 1.68-1.73 3.88-3.62 0.719-0.632 1.44-1.26 2.18-1.91 1.95-1.46 1.95-1.46 3.95-1.46v-2h2v-2c1.32-0.33 2.64-0.66 4-1v-2c1.65-0.66 3.3-1.32 5-2v-2c1.46-1.29 1.46-1.29 3.38-2.62 0.94-0.669 0.94-0.669 1.9-1.35 1.73-1.02 1.73-1.02 3.73-1.02v-2c4.38-3 4.38-3 7-3v-2h3v-2c2.34-1.73 2.34-1.73 5.38-3.62 0.998-0.632 2-1.26 3.02-1.91 2.6-1.46 2.6-1.46 4.6-1.46v-2c4.46-1.49 4.46-1.49 9-3v-2h4v-2h3v-2c1.58-0.649 3.17-1.29 4.75-1.94 1.32-0.539 1.32-0.539 2.67-1.09 2.19-0.826 4.3-1.47 6.58-1.97v-2c1.73-0.65 3.46-1.3 5.19-1.94 0.963-0.36 1.93-0.719 2.92-1.09 2.63-0.884 5.16-1.5 7.89-1.97v-2c1.15-0.398 2.29-0.797 3.47-1.21 1.53-0.535 3.06-1.07 4.59-1.61 0.752-0.261 1.5-0.522 2.28-0.791 3.46-1.21 6.81-2.47 10.2-3.96 4.05-1.66 8.04-2.63 12.3-3.56 5.23-1.02 5.23-1.02 10.2-2.88 2.33-0.0402 4.67-0.0432 7 0v-2h9v-2c20.5-3.23 20.5-3.23 29.8-3.79 3.77-0.359 6.95-1.35 10.8-1.37zm-786 1066v2l-1.81 0.438c-1.75 0.45-3.47 0.991-5.19 1.56v2l-2.38 0.938c-2.55 0.991-2.55 0.991-4.62 2.06v2h-2v2h-2v2c-0.99 0.33-1.98 0.66-3 1v2h-2c-1.13 2.18-2.26 4.37-3.38 6.56l-0.961 1.85c-4.38 8.63-5.03 16.4-5.04 26-0.0245 1.18-0.049 2.36-0.0742 3.58-0.0216 6.45 0.421 11.4 3.49 17.2 0.993 1.95 1.51 3.75 1.96 5.88h2v3h2c0.33 1.32 0.66 2.64 1 4h2c0.66 1.32 1.32 2.64 2 4h2c0.33 0.99 0.66 1.98 1 3h2v2c1.68 1.37 1.68 1.37 3.81 2.62l2.14 1.35c2.11 1.25 2.11 1.25 5.04 1.02v2c15.9 5.13 30.1 6.8 46 0v-2h4v-2l2.38-0.938c2.55-0.991 2.55-0.991 4.62-2.06v-2l1.69-0.688c2.97-1.69 5.03-3.78 7.31-6.31v-2h2c8.84-14.3 12-30.4 8.56-47.1-1.06-3.55-2.65-6.69-4.56-9.85-0.403-0.746-0.807-1.49-1.22-2.26-0.88-1.61-1.82-3.18-2.78-4.74h-2l-0.25-1.69c-1.85-5.7-6.72-9.4-11.8-12.3h-2v-2h-4v-2c-1.73-0.65-3.46-1.3-5.19-1.94-0.963-0.36-1.93-0.719-2.92-1.09-11.7-3.94-26.4-3.31-37.9 1.03z" fill="currentColor"/>
<path transform="translate(1094,942)" d="m0 0c0.33 0.66 0.66 1.32 1 2h3c1.68 1.61 1.68 1.61 3.44 3.75 1.94 2.33 3.82 4.51 6 6.62 1.56 1.62 1.56 1.62 1.56 3.62 1.65 0.66 3.3 1.32 5 2v2h2c2.62 2.38 2.62 2.38 5 5v2h2v2h2v2h2v2c0.99 0.33 1.98 0.66 3 1v2h2v2h2v2c0.99 0.33 1.98 0.66 3 1v2h2v2h2v2h2v2c0.99 0.33 1.98 0.66 3 1v2h2v2h2v2h2c1.62 1.38 1.62 1.38 3 3v2h2v2h2c1.62 1.38 1.62 1.38 3 3v2h2v2h2v2c0.99 0.33 1.98 0.66 3 1v2h2v2h2v2h2v2c0.99 0.33 1.98 0.66 3 1v2h2v2h2v2c0.99 0.33 1.98 0.66 3 1v2h2v2h2v2h2v2c0.99 0.33 1.98 0.66 3 1v2h2v2h2v2c0.99 0.33 1.98 0.66 3 1v2h2v2h2v2h2v2c0.99 0.33 1.98 0.66 3 1v2h2v2h2v2h2c1.62 1.38 1.62 1.38 3 3v2h2v2h2c1.62 1.38 1.62 1.38 3 3v2h2v2h2v2h2c1.62 1.38 1.62 1.38 3 3v2h2v2h2v2c0.99 0.33 1.98 0.66 3 1v2h2v2h2v2c0.99 0.33 1.98 0.66 3 1v2h2v2h2v2h2v2c0.99 0.33 1.98 0.66 3 1v2h2v2h2v2c0.99 0.33 1.98 0.66 3 1v2h2v2h2v2h2v2c0.99 0.33 1.98 0.66 3 1v2h2v2h2v2h2c1.62 1.38 1.62 1.38 3 3v2h2v2h2c1.62 1.38 1.62 1.38 3 3v2h2v2h2v2h2c1.62 1.38 1.62 1.38 3 3v2h2v2h2v2c0.99 0.33 1.98 0.66 3 1v2h2v2h2v2c0.99 0.33 1.98 0.66 3 1v2h2v2h2v2h2v2c0.99 0.33 1.98 0.66 3 1v2h2v2h2v2c0.99 0.33 1.98 0.66 3 1v2h2v2h2v2h2v2c0.99 0.33 1.98 0.66 3 1v2h2v2h2v2h2v3h3c4 4.34 4 4.34 4 7h2v2h2c1.62 1.38 1.62 1.38 3 3v2h2c3 4.38 3 4.38 3 7h2c0.66 1.98 1.32 3.96 2 6h2c4.58 6.52 7.83 13.4 10 21h2c0.193 0.652 0.387 1.3 0.586 1.98 0.391 1.31 0.391 1.31 0.789 2.65 0.383 1.29 0.383 1.29 0.773 2.6 0.577 1.88 1.19 3.75 1.82 5.61 1.19 3.66 2.16 7.36 3.09 11.1 0.173 0.677 0.347 1.35 0.525 2.05 0.833 3.33 1.49 6.54 1.97 9.95 0.111 2.93 0.111 2.93 1.44 4.06 0.101 2.51 0.14 4.99 0.133 7.5 0.00144 1.13 0.00144 1.13 0.0029 2.28 6.82e-4 1.59-0.00117 3.18-0.00534 4.77-0.00535 2.44-5.48e-5 4.89 0.00635 7.33-6.61e-4 1.54-0.00194 3.08-0.00391 4.62 0.00202 0.735 0.00405 1.47 0.00613 2.23-0.024 5.16-0.024 5.16-1.14 6.27-0.497 2.44-0.95 4.86-1.38 7.31-1.25 6.98-2.8 13.8-4.62 20.7h-2v5h-2c-0.195 1.09-0.195 1.09-0.395 2.21-1.82 8.42-6.09 15.6-10.6 22.8-0.33 0.66-0.66 1.32-1 2h-2c-0.0735 0.545-0.147 1.09-0.223 1.65-1.08 3.26-3 5.3-5.21 7.91-2.34 2.77-4.55 5.42-6.56 8.44h-2v2h-2v3h-3v2c-5.48 5-5.48 5-8 5v2c-1.43 1.29-1.43 1.29-3.31 2.62-0.615 0.446-1.23 0.892-1.86 1.35-1.82 1.02-1.82 1.02-4.82 1.02v2h-2v2c-2.97 0.99-5.94 1.98-9 3v2h-4v2c-1.89 0.844-3.79 1.68-5.69 2.5-1.58 0.696-1.58 0.696-3.2 1.41-2.97 1.04-5.01 1.32-8.11 1.09v2c-6.59 1.99-13.3 3.6-20 5-0.84 0.174-1.68 0.349-2.55 0.528-8.4 1.58-16.7 1.83-25.2 1.78-0.705-8.26e-4 -1.41-0.00165-2.14-0.0025-10.3-0.0279-20.1-0.661-30.1-3.31-1.83-0.401-3.67-0.798-5.5-1.19-1.15-0.268-2.31-0.536-3.5-0.812v-2h-7v-2c-0.784-0.0825-1.57-0.165-2.38-0.25-4.8-0.994-9.12-2.84-13.6-4.75v-2c-0.516-0.0825-1.03-0.165-1.56-0.25-3.48-1.07-6.31-2.89-9.44-4.75v-2h-3v-2c-0.784-0.309-1.57-0.619-2.38-0.938-2.62-1.06-2.62-1.06-4.62-2.06v-2c-0.568-0.263-1.14-0.526-1.72-0.797-6.57-3.47-11.7-8.42-16.3-14.2-0.66-0.33-1.32-0.66-2-1v-2h-2c-2.62-2.38-2.62-2.38-5-5v-2h-2c-1.69-1.98-3.35-3.98-5-6-0.66-0.33-1.32-0.66-2-1v-2h-2c-2.62-2.38-2.62-2.38-5-5v-2h-2c-1.69-1.98-3.35-3.98-5-6-0.66-0.33-1.32-0.66-2-1v-2h-2c-2.62-2.38-2.62-2.38-5-5v-2h-2c-1.69-1.98-3.35-3.98-5-6-0.66-0.33-1.32-0.66-2-1v-2h-2c-2.62-2.38-2.62-2.38-5-5v-2h-2c-1.69-1.98-3.35-3.98-5-6-0.66-0.33-1.32-0.66-2-1v-2h-2c-2.62-2.38-2.62-2.38-5-5v-2h-2c-1.69-1.98-3.35-3.98-5-6-0.66-0.33-1.32-0.66-2-1v-2h-2c-2.62-2.38-2.62-2.38-5-5v-2h-2c-1.69-1.98-3.35-3.98-5-6-0.66-0.33-1.32-0.66-2-1v-2h-2c-2.62-2.38-2.62-2.38-5-5v-2h-2c-1.69-1.98-3.35-3.98-5-6-0.66-0.33-1.32-0.66-2-1v-2h-2c-2.62-2.38-2.62-2.38-5-5v-2h-2c-1.69-1.98-3.35-3.98-5-6-0.66-0.33-1.32-0.66-2-1v-2h-2c-2.62-2.38-2.62-2.38-5-5v-2h-2c-1.69-1.98-3.35-3.98-5-6-0.66-0.33-1.32-0.66-2-1v-2h-2c-2.62-2.38-2.62-2.38-5-5v-2h-2c-1.69-1.98-3.35-3.98-5-6-0.66-0.33-1.32-0.66-2-1v-2h-2c-2.62-2.38-2.62-2.38-5-5v-2h-2c-1.69-1.98-3.35-3.98-5-6-0.66-0.33-1.32-0.66-2-1v-2h-2c-2.62-2.38-2.62-2.38-5-5v-2h-2c-1.69-1.98-3.35-3.98-5-6-0.66-0.33-1.32-0.66-2-1v-2h-2c-2.62-2.38-2.62-2.38-5-5v-2h-2c-1.69-1.98-3.35-3.98-5-6-0.66-0.33-1.32-0.66-2-1v-2h-2c-2.62-2.38-2.62-2.38-5-5v-2h-2v-2h-2c-2.62-2.38-2.62-2.38-5-5v-2h-2c-2.62-2.38-2.62-2.38-5-5v-2h-2c-2.62-2.38-2.62-2.38-5-5v-2h-2v-2h-2c-2.62-2.38-2.62-2.38-5-5v-2h-2v-5h3v-2c1.26-1.23 1.26-1.23 3.12-2.75 5.02-4.24 9.56-8.91 14.1-13.6 0.585-0.597 1.17-1.19 1.77-1.81 0.525-0.542 1.05-1.08 1.59-1.64 1.39-1.17 1.39-1.17 3.39-1.17 0.248-0.574 0.495-1.15 0.75-1.74 1.44-2.61 3.11-4.33 5.24-6.41 0.788-0.777 1.58-1.55 2.39-2.35 0.824-0.802 1.65-1.6 2.5-2.43 1.62-1.59 3.25-3.18 4.87-4.78 0.72-0.702 1.44-1.4 2.18-2.13 2.19-2.27 4.12-4.68 6.07-7.16 1.32-1.22 2.68-2.41 4.06-3.56 2.17-1.8 3.89-3.37 5.56-5.65 0.455-0.589 0.91-1.18 1.38-1.79h2v-2c1.38-1.62 1.38-1.62 3-3h2v-2h2v-2c2.38-2.62 2.38-2.62 5-5h2v-2h2v-2c1.38-1.62 1.38-1.62 3-3h2v-2h2v-2c2.38-2.62 2.38-2.62 5-5h2v-2h2v-2c1.38-1.62 1.38-1.62 3-3h2v-2h2v-2h2c0.495-1.48 0.495-1.48 1-3h2v-2h2v-2h2v-2c1.38-1.62 1.38-1.62 3-3h2v-2h2v-2c2.38-2.62 2.38-2.62 5-5h2v-2h2v-2c1.38-1.62 1.38-1.62 3-3h2v-2h2v-2c2.38-2.62 2.38-2.62 5-5h2v-2h2v-2c1.38-1.62 1.38-1.62 3-3h2v-2h2v-2c2.38-2.62 2.38-2.62 5-5h2v-2h2v-2c1.38-1.62 1.38-1.62 3-3h2v-2h2v-2h2c0.33-0.99 0.66-1.98 1-3h2v-2c1.98-1.69 3.98-3.35 6-5 0.33-0.66 0.66-1.32 1-2h2v-2h2v-2c1.71-1.66 1.71-1.66 3.94-3.5 2.98-2.39 2.98-2.39 5.06-5.5h2c0.33-0.99 0.66-1.98 1-3 0.99-0.66 1.98-1.32 3-2z" fill="currentColor"/>
<path transform="translate(211,162)" d="m0 0c5.32-0.482 8.76 1.09 13.2 3.69 1.33 0.735 2.65 1.47 3.98 2.2 0.642 0.36 1.28 0.721 1.95 1.09 2.46 1.37 4.95 2.68 7.45 3.96 1.1 0.57 1.1 0.57 2.23 1.15 2.36 1 4.62 1.49 7.15 1.91v2c1.18 0.34 1.18 0.34 2.38 0.688 6.59 2.39 12.7 5.79 18.8 9.12 6.81 3.68 13.7 7.08 20.7 10.3 4.98 2.32 9.81 4.82 14.6 7.55 2.6 1.43 2.6 1.43 5.87 2.76 3.62 1.56 7.05 3.35 10.5 5.25 6.3 3.42 12.7 6.54 19.2 9.52 3.34 1.53 6.57 3.13 9.75 4.98 2.53 1.46 4.32 2.36 7.15 2.81v2c1.1 0.174 1.1 0.174 2.23 0.352 2.8 0.654 4.69 1.56 7.15 3.02 3.76 2.23 7.61 3.91 11.6 5.62 2.5 1.19 4.97 2.44 7.44 3.69 0.636 0.32 1.27 0.641 1.93 0.971 1.55 0.779 3.09 1.56 4.63 2.34v2c0.656 0.0877 1.31 0.175 1.99 0.266 4.01 0.978 7.5 2.69 11.2 4.48 1.13 0.547 1.13 0.547 2.28 1.11 1.5 0.725 2.99 1.45 4.49 2.18 1.71 0.811 3.45 1.56 5.2 2.29 6.54 2.81 9.12 6.15 11.8 12.7 0.433 0.928 0.866 1.86 1.31 2.81 0.688 2.19 0.688 2.19 0.688 6.19h2c0.652 2.19 1.3 4.37 1.94 6.56 0.36 1.22 0.719 2.44 1.09 3.69 0.939 3.62 1.52 7.04 1.97 10.7h2c0.254 0.918 0.508 1.84 0.77 2.78 2.2 7.98 2.2 7.98 4.98 15.8 1.14 3.13 1.56 5.16 1.25 8.44h2c0.0825 0.949 0.165 1.9 0.25 2.88 0.83 5.92 3.52 11.3 5.87 16.7 1.06 2.9 1.02 5.33 0.879 8.4h2c0.652 2.19 1.3 4.37 1.94 6.56 0.36 1.22 0.719 2.44 1.09 3.69 0.939 3.62 1.52 7.04 1.97 10.7h2c0.254 0.834 0.508 1.67 0.77 2.53 0.344 1.13 0.688 2.25 1.04 3.41 0.362 1.18 0.724 2.37 1.1 3.59 0.894 2.85 1.84 5.66 2.84 8.47 1.06 3.1 1.57 5.69 1.25 9h2c2.11 5.53 3.38 10.1 3 16h2c1.29 1.46 1.29 1.46 2.62 3.38 0.446 0.626 0.892 1.25 1.35 1.9 1.02 1.73 1.02 1.73 1.02 3.73h2v2c0.598 0.268 1.2 0.536 1.81 0.812 2.19 1.19 3.6 2.28 5.19 4.19v2h2v2l1.94 0.812c2.06 1.19 2.06 1.19 3.06 4.19h2v2h2v2l1.94 0.812c2.06 1.19 2.06 1.19 3.06 4.19h2v2h2v2c0.99 0.33 1.98 0.66 3 1v2h2v2h2v2c0.639 0.268 1.28 0.536 1.94 0.812 2.06 1.19 2.06 1.19 3.06 4.19h2v2h2v2c0.99 0.33 1.98 0.66 3 1v2h2v2h2v2c0.639 0.268 1.28 0.536 1.94 0.812 2.06 1.19 2.06 1.19 3.06 4.19h2v2c0.639 0.268 1.28 0.536 1.94 0.812 2.06 1.19 2.06 1.19 3.06 4.19h2v2h2v2c0.639 0.268 1.28 0.536 1.94 0.812 2.06 1.19 2.06 1.19 3.06 4.19h2v2h2v2c0.99 0.33 1.98 0.66 3 1v2h2v2h2v2c0.639 0.268 1.28 0.536 1.94 0.812 2.06 1.19 2.06 1.19 3.06 4.19h2v2h2v2c0.99 0.33 1.98 0.66 3 1v2h2v2h2v2c0.639 0.268 1.28 0.536 1.94 0.812 2.06 1.19 2.06 1.19 3.06 4.19h2v2h2v2c0.639 0.268 1.28 0.536 1.94 0.812 2.06 1.19 2.06 1.19 3.06 4.19h2v2c0.639 0.268 1.28 0.536 1.94 0.812 2.06 1.19 2.06 1.19 3.06 4.19h2v2h2v2c0.99 0.33 1.98 0.66 3 1v2h2v2h2v2c0.639 0.268 1.28 0.536 1.94 0.812 2.06 1.19 2.06 1.19 3.06 4.19h2v2c0.959 0.402 0.959 0.402 1.94 0.812 2.06 1.19 2.06 1.19 3.06 4.19h2v2h2v2c0.959 0.402 0.959 0.402 1.94 0.812 2.06 1.19 2.06 1.19 3.06 4.19h2v2h2v2c0.959 0.402 0.959 0.402 1.94 0.812 2.06 1.19 2.06 1.19 3.06 4.19h2v2c0.959 0.402 0.959 0.402 1.94 0.812 2.06 1.19 2.06 1.19 3.06 4.19h2v2h2v2c0.99 0.33 1.98 0.66 3 1v2h2v2h2c1.12 4.75 1.12 4.75 0 7-4.5 3-4.5 3-7 3v2h-2v2h-2c-0.33 0.99-0.66 1.98-1 3h-2v2h-2v2h-2c-0.268 0.598-0.536 1.2-0.812 1.81-1.19 2.19-2.28 3.6-4.19 5.19h-2c-0.273 0.598-0.546 1.2-0.827 1.81-1.14 2.13-2.25 3.51-3.94 5.21-0.554 0.56-1.11 1.12-1.68 1.7-0.596 0.592-1.19 1.18-1.81 1.79-0.921 0.924-0.921 0.924-1.86 1.87-1.3 1.3-2.59 2.59-3.89 3.88-2 1.99-3.98 3.98-5.96 5.98-1.26 1.26-2.52 2.52-3.78 3.77-0.596 0.6-1.19 1.2-1.81 1.82-4.21 4.17-4.21 4.17-6.44 4.17-0.268 0.598-0.536 1.2-0.812 1.81-1.19 2.19-2.28 3.6-4.19 5.19h-2c-0.402 0.897-0.402 0.897-0.812 1.81-1.19 2.19-2.28 3.6-4.19 5.19h-2v2h-2c-0.402 0.897-0.402 0.897-0.812 1.81-1.19 2.19-2.28 3.6-4.19 5.19h-2v2h-2c-0.402 0.959-0.402 0.959-0.812 1.94-1.19 2.06-1.19 2.06-4.19 3.06v2h-2v2h-2c-0.33 0.99-0.66 1.98-1 3h-2v2h-2v2h-2c-0.227 0.784-0.454 1.57-0.688 2.38-1.31 2.62-1.31 2.62-3.94 3.94-0.784 0.227-1.57 0.454-2.38 0.688-1.5-1.38-1.5-1.38-3-3v-2h-2v-2h-2c-1.23-1.43-2.46-2.87-3.64-4.34-2.59-3.15-5.38-5.94-8.67-8.34l-1.69-1.31v-2h-2c-1.23-1.43-2.46-2.87-3.64-4.34-2.59-3.15-5.38-5.94-8.67-8.34l-1.69-1.31v-2h-2c-1.23-1.43-2.46-2.87-3.64-4.35-1.96-2.38-4.15-4.5-6.36-6.65-0.763-0.784-1.53-1.57-2.31-2.38-2.13-2.09-4.29-4.01-6.56-5.94-3.51-3.04-6.53-6.31-9.54-9.84-2.08-2.41-4.31-4.63-6.59-6.85-0.763-0.784-1.53-1.57-2.31-2.38-2.17-2.12-4.38-4.09-6.69-6.06-3.42-2.96-6.17-6.04-9-9.56-2.34-2.46-4.57-4.69-7.31-6.69-0.557-0.433-1.11-0.866-1.69-1.31v-2h-2c-1.19-1.38-2.37-2.76-3.49-4.2-2.03-2.42-4.26-4.59-6.51-6.8-11-11-11-11-13.7-13.7-2.38-2.41-2.38-2.41-5.34-4.75-2.25-1.92-3.92-3.56-5.75-5.81-1.96-2.77-1.96-2.77-4.25-3.75v-2h-2c-2.62-2.38-2.62-2.38-5-5v-2h-2c-1.23-1.43-2.46-2.87-3.64-4.35-1.96-2.38-4.15-4.5-6.36-6.65-0.763-0.784-1.53-1.57-2.31-2.38-2.92-2.85-5.98-5.46-9.11-8.07-0.519-0.512-1.04-1.02-1.57-1.55v-2h-2c-1.62-1.38-1.62-1.38-3-3v-2h-2v-2c-0.681-0.247-1.36-0.495-2.06-0.75-2.94-1.25-2.94-1.25-6.06-3.19-4.61-2.73-9.7-3.83-14.9-5.06v-2c-0.969-0.124-1.94-0.247-2.94-0.375-4.41-0.624-8.73-1.61-13.1-2.62v-2c-1.02 0.0928-1.02 0.0928-2.06 0.188-3.06-0.195-5.22-1.05-7.98-2.32-5.45-2.4-11-4.11-17-4.86v-2h-5v-2c-0.887-0.0825-1.77-0.165-2.69-0.25-8.04-1.14-15.9-4.11-23.4-7.03-5.55-2.11-11-3.96-16.9-4.72v-2c-1-0.122-2-0.245-3.04-0.371-3.91-0.559-7.61-1.57-11.4-2.69-1.24-0.362-2.47-0.724-3.75-1.1-0.929-0.277-1.86-0.554-2.82-0.84v-2c-0.99 0.0928-0.99 0.0928-2 0.188-3.26-0.204-5.8-1.18-8.81-2.39-3.01-1.09-6.07-1.68-9.21-2.27-1.98-0.527-1.98-0.527-4.98-2.53v-2c-0.598-0.227-1.2-0.454-1.81-0.688-2.78-1.67-3.75-3.44-5.19-6.31v-2h-2c-0.84-1.77-1.67-3.54-2.5-5.31-0.464-0.986-0.928-1.97-1.41-2.99-1.09-2.7-1.09-2.7-1.09-5.7h-2c-0.84-1.77-1.67-3.54-2.5-5.31-0.464-0.986-0.928-1.97-1.41-2.99-1.09-2.7-1.09-2.7-1.09-5.7h-2v-3h-2c-0.254-0.664-0.508-1.33-0.77-2.01-2.17-5.59-2.17-5.59-4.98-10.9-1.25-2.12-1.25-2.12-1.25-6.12h-2c-0.843-1.58-1.67-3.16-2.5-4.75-0.696-1.32-0.696-1.32-1.41-2.67-1.09-2.58-1.09-2.58-1.09-6.58h-2c-0.843-1.58-1.67-3.16-2.5-4.75-0.464-0.882-0.928-1.76-1.41-2.67-1.09-2.58-1.09-2.58-1.09-6.58h-2v-4h-2c-2.03-3.73-3-5.67-3-10h-2v-4h-2c-0.843-1.58-1.67-3.16-2.5-4.75-0.464-0.882-0.928-1.76-1.41-2.67-1.09-2.58-1.09-2.58-1.09-6.58h-2c-0.84-1.77-1.67-3.54-2.5-5.31-0.464-0.986-0.928-1.97-1.41-2.99-1.09-2.7-1.09-2.7-1.09-5.7h-2c-0.338-0.748-0.675-1.5-1.02-2.27-0.446-0.985-0.892-1.97-1.35-2.98-0.441-0.975-0.882-1.95-1.34-2.95-0.773-1.68-1.58-3.34-2.45-4.97-0.836-1.83-0.836-1.83-0.836-4.83h-2c-0.84-1.77-1.67-3.54-2.5-5.31-0.464-0.986-0.928-1.97-1.41-2.99-1.09-2.7-1.09-2.7-1.09-5.7h-2v-3h-2c-0.254-0.664-0.508-1.33-0.77-2.01-2.17-5.59-2.17-5.59-4.98-10.9-1.25-2.12-1.25-2.12-1.25-6.12h-2c-0.843-1.58-1.67-3.16-2.5-4.75-0.464-0.882-0.928-1.76-1.41-2.67-1.09-2.58-1.09-2.58-1.09-6.58h-2c-2.22-4.62-3.38-7.77-3-13l3-1v-2c2.37-2.62 2.37-2.62 5-5h2v-2c1.43-1.23 2.87-2.46 4.34-3.64 3.15-2.59 5.94-5.38 8.34-8.67 0.433-0.557 0.866-1.11 1.31-1.69h2v-2c1.98-1.69 3.98-3.35 6-5 0.33-0.66 0.66-1.32 1-2h2v-2c1.43-1.23 2.87-2.46 4.34-3.64 3.15-2.59 5.94-5.38 8.34-8.67 0.433-0.557 0.866-1.11 1.31-1.69h2v-2c2.38-2.62 2.38-2.62 5-5h2v-2c1.98-1.69 3.98-3.35 6-5l1-2h2v-2c2.38-2.63 2.38-2.63 5-5h2v-2h2v-2c1.38-1.62 1.38-1.62 3-3h2v-2h2v-2h2c0.495-1.49 0.495-1.49 1-3h2v-2h2v-2h2v-2c1.38-1.62 1.38-1.62 3-3h2v-2h2v-2h2c0.33-0.99 0.66-1.98 1-3z" fill="currentColor"/>
</svg>
