<?xml version="1.0" standalone="no"?>
<!DOCTYPE svg PUBLIC "-//W3C//DTD SVG 20010904//EN"
 "http://www.w3.org/TR/2001/REC-SVG-20010904/DTD/svg10.dtd">
<svg version="1.0" xmlns="http://www.w3.org/2000/svg"
 width="577.000000pt" height="433.000000pt" viewBox="0 0 577.000000 433.000000"
 preserveAspectRatio="xMidYMid meet">

<g transform="translate(0.000000,433.000000) scale(0.100000,-0.100000)"
fill="#000000" stroke="none">
<path d="M985 3882 c-103 -49 -163 -139 -173 -259 -17 -221 174 -384 386 -329
158 40 241 160 230 330 -6 89 -39 158 -103 214 -89 79 -228 96 -340 44z"/>
<path d="M2122 3873 c-33 -6 -88 -66 -96 -103 -3 -18 -6 -243 -6 -501 0 -258
-4 -469 -8 -469 -4 0 -97 90 -207 201 -110 110 -213 208 -230 217 -27 15 -79
17 -486 17 l-456 0 -48 -30 c-36 -22 -57 -45 -77 -84 l-28 -53 0 -470 c0 -515
0 -512 60 -543 37 -19 93 -19 129 0 58 29 61 50 61 409 0 319 0 326 20 326 20
0 20 -7 20 -942 0 -650 4 -955 11 -983 20 -73 77 -115 156 -115 65 0 112 27
140 80 l23 43 0 572 c0 454 3 575 13 583 35 29 36 8 39 -589 l3 -586 28 -36
c36 -48 75 -67 132 -67 62 0 110 24 137 69 l23 36 3 1015 2 1014 215 -214 215
-215 115 115 116 116 -1 532 0 532 1450 0 1450 0 0 -980 0 -980 -1450 0 -1451
0 3 330 3 329 -62 -61 -63 -62 0 -270 c0 -248 2 -273 20 -311 40 -82 -104 -75
1552 -75 1442 0 1474 0 1505 20 18 10 40 31 50 47 17 26 18 80 18 1033 0 1135
6 1052 -78 1091 -41 18 -88 19 -1492 17 -797 0 -1460 -3 -1473 -5z"/>
<path d="M2405 2884 c-275 -267 -504 -496 -509 -509 -7 -17 -6 -29 4 -39 27
-34 55 -18 160 92 57 59 278 286 492 505 373 382 419 437 370 437 -10 0 -236
-213 -517 -486z"/>
<path d="M2459 1549 c-97 -15 -191 -85 -236 -177 -37 -76 -39 -182 -5 -257 30
-66 103 -138 166 -166 70 -31 182 -32 248 -2 69 32 131 94 163 164 24 55 27
71 23 143 -3 66 -10 92 -33 134 -64 118 -193 182 -326 161z"/>
<path d="M3529 1546 c-108 -23 -203 -111 -239 -220 -20 -63 -9 -172 26 -235
57 -105 155 -164 275 -165 68 -1 83 3 145 34 200 102 232 362 63 514 -74 67
-172 93 -270 72z"/>
<path d="M4618 1549 c-101 -16 -197 -90 -241 -187 -31 -70 -30 -179 5 -253 54
-117 158 -183 288 -183 126 0 222 60 280 176 40 81 43 186 6 265 -61 129 -198
204 -338 182z"/>
<path d="M2170 864 c-117 -32 -212 -112 -265 -227 -18 -40 -37 -96 -40 -124
l-7 -53 520 0 519 0 7 58 c7 61 50 164 91 218 l24 31 -22 21 c-30 28 -114 69
-167 81 -73 17 -594 13 -660 -5z"/>
<path d="M3274 870 c-92 -18 -208 -100 -260 -182 -31 -48 -64 -149 -64 -193
l0 -35 645 0 645 0 0 29 c0 41 -33 142 -64 195 -51 86 -159 163 -264 185 -61
13 -574 13 -638 1z"/>
<path d="M4354 870 c-46 -9 -126 -47 -163 -77 l-23 -19 40 -63 c44 -67 67
-128 78 -203 l6 -48 514 0 514 0 0 29 c0 48 -37 153 -74 207 -44 64 -105 115
-182 151 l-59 28 -305 2 c-168 1 -324 -2 -346 -7z"/>
</g>
</svg>
